<svg xmlns="http://www.w3.org/2000/svg" width="85.076" height="79.127" viewBox="0 0 85.076 79.127">
  <g id="Grupo_2885" data-name="Grupo 2885" transform="translate(-1479.152 -6807.989)">
    <g id="Grupo_2824" data-name="Grupo 2824" transform="translate(1487.081 6880.546)">
      <path id="Trazado_10156" data-name="Trazado 10156" d="M561.057,593.431h0a6.8,6.8,0,0,1-3.377-.835l-.945-.558a6.6,6.6,0,0,0-6,0l-.944.558a7.389,7.389,0,0,1-6.815,0l-.945-.557a6.6,6.6,0,0,0-6,0l-.944.558a7.391,7.391,0,0,1-6.815,0l-.945-.558a6.607,6.607,0,0,0-6,0l-.943.558a7.388,7.388,0,0,1-6.815,0l-.944-.557a6.6,6.6,0,0,0-6,0l-.945.558a7.4,7.4,0,0,1-6.815,0l-.944-.558a6.6,6.6,0,0,0-6,0l-.945.558a6.8,6.8,0,0,1-3.379.835h0a.4.4,0,0,1-.4-.4v-4.582a.4.4,0,0,1,.805,0v4.168a5.761,5.761,0,0,0,2.568-.712l.945-.558a7.394,7.394,0,0,1,6.814,0l.945.558a6.6,6.6,0,0,0,6,0l.945-.558a7.4,7.4,0,0,1,6.815,0l.944.558a6.6,6.6,0,0,0,6,0l.944-.558a7.4,7.4,0,0,1,6.816,0l.945.558a6.6,6.6,0,0,0,6,0l.945-.558a7.394,7.394,0,0,1,6.814,0l.945.558a6.6,6.6,0,0,0,6,0l.944-.558a7.394,7.394,0,0,1,6.815,0l.945.558a5.763,5.763,0,0,0,2.567.712V588.45a.4.4,0,0,1,.805,0v4.578a.4.4,0,0,1-.4.4Z" transform="translate(-487.211 -588.043)" fill="none" stroke="#a80e0e" stroke-width="2"/>
    </g>
    <g id="Grupo_2825" data-name="Grupo 2825" transform="translate(1487.081 6809.175)">
      <path id="Trazado_10157" data-name="Trazado 10157" d="M561.057,490.367a.4.4,0,0,1-.4-.4v-4.02a6.593,6.593,0,0,1-2.976-.824l-.945-.558a6.606,6.606,0,0,0-6,0l-.943.558a7.388,7.388,0,0,1-6.816,0l-.945-.558a6.6,6.6,0,0,0-6,0l-.944.558a7.391,7.391,0,0,1-6.815,0l-.945-.558a6.607,6.607,0,0,0-6,0l-.943.558a7.387,7.387,0,0,1-6.815,0l-.944-.558a6.6,6.6,0,0,0-6,0l-.945.558a7.389,7.389,0,0,1-6.814,0l-.944-.558a6.6,6.6,0,0,0-6,0l-.945.558a6.6,6.6,0,0,1-2.978.824v4.02a.4.4,0,1,1-.805,0v-4.411a.4.4,0,0,1,.4-.4,5.98,5.98,0,0,0,2.972-.724l.945-.557a7.39,7.39,0,0,1,6.814,0l.945.557a6.6,6.6,0,0,0,6,0l.945-.558a7.393,7.393,0,0,1,6.815,0l.944.557a6.6,6.6,0,0,0,6,0l.944-.557a7.394,7.394,0,0,1,6.816,0l.944.557a6.6,6.6,0,0,0,6,0l.945-.557a7.391,7.391,0,0,1,6.814,0l.945.557a6.594,6.594,0,0,0,6,0l.945-.557a7.39,7.39,0,0,1,6.814,0l.945.557a5.98,5.98,0,0,0,2.971.724.4.4,0,0,1,.4.4v4.411A.4.4,0,0,1,561.057,490.367Z" transform="translate(-487.211 -483.037)" fill="none" stroke="#a80e0e" stroke-width="2"/>
    </g>
    <g id="Grupo_2826" data-name="Grupo 2826" transform="translate(1496.49 6819.837)">
      <path id="Trazado_10158" data-name="Trazado 10158" d="M528.77,554.155a27.716,27.716,0,1,1,27.715-27.716A27.747,27.747,0,0,1,528.77,554.155Zm0-54.626a26.91,26.91,0,1,0,26.909,26.91A26.94,26.94,0,0,0,528.77,499.529Z" transform="translate(-501.054 -498.724)" fill="none" stroke="#a80e0e" stroke-width="2"/>
    </g>
    <g id="Grupo_2827" data-name="Grupo 2827" transform="translate(1504.514 6827.86)">
      <path id="Trazado_10159" data-name="Trazado 10159" d="M532.551,549.913a19.692,19.692,0,1,1,19.692-19.692A19.715,19.715,0,0,1,532.551,549.913Zm0-38.579a18.887,18.887,0,1,0,18.886,18.887A18.909,18.909,0,0,0,532.551,511.333Z" transform="translate(-512.859 -510.528)" fill="none" stroke="#a80e0e" stroke-width="2"/>
    </g>
    <g id="Grupo_2828" data-name="Grupo 2828" transform="translate(1507.421 6830.769)">
      <path id="Trazado_10160" data-name="Trazado 10160" d="M517.539,531.994a.4.4,0,0,1-.4-.4,16.8,16.8,0,0,1,16.785-16.783.4.4,0,0,1,0,.805,16,16,0,0,0-15.979,15.978A.4.4,0,0,1,517.539,531.994Z" transform="translate(-517.137 -514.808)" fill="none" stroke="#a80e0e" stroke-width="2"/>
    </g>
    <g id="Grupo_2832" data-name="Grupo 2832" transform="translate(1556.882 6819.095)">
      <g id="Grupo_2829" data-name="Grupo 2829" transform="translate(0)">
        <path id="Trazado_10161" data-name="Trazado 10161" d="M593.99,556.3a2.266,2.266,0,0,1-2.264-2.263l.809-26.781h-2.223a.4.4,0,0,1-.4-.4V503.7a6.107,6.107,0,0,1,5.934-6.068.392.392,0,0,1,.291.115.4.4,0,0,1,.121.288v56A2.266,2.266,0,0,1,593.99,556.3Zm-3.276-29.85h2.236a.4.4,0,0,1,.4.415l-.821,27.185a1.459,1.459,0,0,0,2.917-.012V498.465a5.3,5.3,0,0,0-4.735,5.237Z" transform="translate(-589.908 -497.632)" fill="none" stroke="#a80e0e" stroke-width="2"/>
      </g>
      <g id="Grupo_2830" data-name="Grupo 2830" transform="translate(1.583 17.21)">
        <line id="Línea_81" data-name="Línea 81" y1="11.607" transform="translate(0.403 0.403)" fill="#fff" stroke="#a80e0e" stroke-width="2"/>
        <path id="Trazado_10162" data-name="Trazado 10162" d="M592.64,535.365a.4.4,0,0,1-.4-.4V523.356a.4.4,0,1,1,.805,0v11.606A.4.4,0,0,1,592.64,535.365Z" transform="translate(-592.237 -522.953)" fill="none" stroke="#a80e0e" stroke-width="2"/>
      </g>
      <g id="Grupo_2831" data-name="Grupo 2831" transform="translate(1.583 9.165)">
        <line id="Línea_82" data-name="Línea 82" y1="6.133" transform="translate(0.403 0.403)" fill="#fff" stroke="#a80e0e" stroke-width="2"/>
        <path id="Trazado_10163" data-name="Trazado 10163" d="M592.64,518.056a.4.4,0,0,1-.4-.4V511.52a.4.4,0,1,1,.805,0v6.133A.4.4,0,0,1,592.64,518.056Z" transform="translate(-592.237 -511.117)" fill="none" stroke="#a80e0e" stroke-width="2"/>
      </g>
    </g>
    <g id="Grupo_2837" data-name="Grupo 2837" transform="translate(1480.152 6819.243)">
      <g id="Grupo_2833" data-name="Grupo 2833" transform="translate(4.832 20.338)">
        <path id="Trazado_10164" data-name="Trazado 10164" d="M486.625,565.578a2.5,2.5,0,0,1-2.5-2.5l.954-34.911a.4.4,0,0,1,.146-.3.392.392,0,0,1,.321-.086,6.121,6.121,0,0,0,2.158,0,.4.4,0,0,1,.468.386l.956,34.9A2.507,2.507,0,0,1,486.625,565.578Zm.754-36.94a6.505,6.505,0,0,1-1.508,0l-.941,34.451a1.7,1.7,0,0,0,3.392-.011" transform="translate(-484.125 -527.773)" fill="none" stroke="#a80e0e" stroke-width="2"/>
      </g>
      <g id="Grupo_2834" data-name="Grupo 2834">
        <path id="Trazado_10165" data-name="Trazado 10165" d="M484.348,519.1a7.371,7.371,0,0,1-7.314-6.824.378.378,0,0,1-.018-.114l0-.114c0-.124,0-.2,0-.281a7.4,7.4,0,0,1,.056-.9,20.962,20.962,0,0,1,3.68-11,4.646,4.646,0,0,1,3.519-2.006l.11,0a4.744,4.744,0,0,1,3.557,1.994,21,21,0,0,1,3.689,11.035,7.1,7.1,0,0,1,.056.879l0,.289,0,.1a.41.41,0,0,1-.02.138,7.371,7.371,0,0,1-7.315,6.811Zm-6.524-7.021a.294.294,0,0,1,.008.06,6.562,6.562,0,0,0,5.439,6.06,6.116,6.116,0,0,0,2.157,0,6.559,6.559,0,0,0,5.437-6.06.438.438,0,0,1,.01-.067l0-.077.006-.228a6.517,6.517,0,0,0-.052-.8,20.649,20.649,0,0,0-3.512-10.6,4.086,4.086,0,0,0-2.929-1.7h-.112a3.89,3.89,0,0,0-2.888,1.7,20.591,20.591,0,0,0-3.509,10.58,6.631,6.631,0,0,0-.053.825c0,.066,0,.134,0,.2,0,.011,0,.1,0,.11Z" transform="translate(-477.016 -497.85)" fill="none" stroke="#a80e0e" stroke-width="2"/>
      </g>
      <g id="Grupo_2836" data-name="Grupo 2836" transform="translate(7.809 13.814)">
        <g id="Grupo_2835" data-name="Grupo 2835">
          <path id="Trazado_10166" data-name="Trazado 10166" d="M488.908,523.916a.4.4,0,0,1-.066-.8,4.938,4.938,0,0,0,4.094-4.561.4.4,0,0,1,.425-.38.4.4,0,0,1,.379.425,5.748,5.748,0,0,1-4.765,5.31A.372.372,0,0,1,488.908,523.916Z" transform="translate(-488.506 -518.174)" fill="none" stroke="#a80e0e" stroke-width="2"/>
        </g>
      </g>
    </g>
  </g>
</svg>
