<svg xmlns="http://www.w3.org/2000/svg" width="73.712" height="67.889" viewBox="0 0 73.712 67.889">
  <g id="Grupo_2886" data-name="Grupo 2886" transform="translate(-1114 -6811)">
    <path id="Trazado_4277" data-name="Trazado 4277" d="M287.27,46.583A27.415,27.415,0,0,1,298.391,50.8a17.334,17.334,0,0,1,6.435,7.42,1.263,1.263,0,1,0,2.327-.981,19.838,19.838,0,0,0-7.347-8.53,29.95,29.95,0,0,0-12.15-4.622,1.263,1.263,0,0,0-.386,2.5Zm0,0" transform="translate(864.932 6774.491)" fill="#a80e0e"/>
    <path id="Trazado_4278" data-name="Trazado 4278" d="M99.726,126.948a1.262,1.262,0,1,0,.434-1.512A1.291,1.291,0,0,0,99.726,126.948Zm0,0" transform="translate(1027.943 6703.597)" fill="#a80e0e"/>
    <path id="Trazado_4279" data-name="Trazado 4279" d="M147.9,89.7a1.262,1.262,0,1,0,.427-1.507A1.289,1.289,0,0,0,147.9,89.7Zm0,0" transform="translate(985.854 6736.14)" fill="#a80e0e"/>
    <path id="Trazado_4280" data-name="Trazado 4280" d="M199.664,126.948a1.262,1.262,0,1,0,.434-1.512A1.292,1.292,0,0,0,199.664,126.948Zm0,0" transform="translate(940.623 6703.597)" fill="#a80e0e"/>
    <path id="Trazado_4282" data-name="Trazado 4282" d="M225.277,89.7a1.262,1.262,0,1,0,.436-1.512,1.289,1.289,0,0,0-.436,1.512Zm0,0" transform="translate(918.244 6736.141)" fill="#a80e0e"/>
    <path id="Trazado_4283" data-name="Trazado 4283" d="M270.395,133.788a1.262,1.262,0,1,0,.435-1.512A1.29,1.29,0,0,0,270.395,133.788Zm0,0" transform="translate(878.821 6697.621)" fill="#a80e0e"/>
    <path id="Trazado_4284" data-name="Trazado 4284" d="M241.644,40.019a1.263,1.263,0,1,0-.478-1.5,1.289,1.289,0,0,0,.478,1.5Zm0,0" transform="translate(904.349 6780.053)" fill="#a80e0e"/>
    <g id="Grupo_1406" data-name="Grupo 1406" transform="translate(1114 6811)">
      <path id="Trazado_7431" data-name="Trazado 7431" d="M255.561,168.337c2.029-3.043.8-7.689-2.3-9.567-3.637-2.208-7.448.623-8.893,4-1.089,2.311-.934,6.147,1.561,7.506C248.545,171.7,253.854,170.9,255.561,168.337Zm-1.84-.614c-1.319,1.3-4.774,1.7-6.421,1.119-1.9-.672-2.118-3.509-1.348-5.148.924-2.156,3.012-4.651,5.714-3.686S255.911,165.571,253.722,167.723Z" transform="translate(-220.209 -142.378)" fill="#a80e0e"/>
      <path id="Trazado_7432" data-name="Trazado 7432" d="M242.342,176.217c-3.022.4-4.548,2.515-4.908,5.338a.843.843,0,0,0-.059.413.873.873,0,0,0,.055.4c.446,2.9,2.546,5.8,5.838,5.2,3.067-.56,5.328-4.045,5.007-7.083A5.1,5.1,0,0,0,242.342,176.217Zm1.735,9.136c-2.555,1.476-4.625-.963-4.87-3.385.154-1.829.854-3.212,2.662-3.767,1.612-.495,3.793.018,4.4,1.757A5.034,5.034,0,0,1,244.076,185.353Z" transform="translate(-222.17 -136.772)" fill="#a80e0e"/>
      <path id="Trazado_7433" data-name="Trazado 7433" d="M266.91,176.691a5.354,5.354,0,0,0-3.249-7.367c-3.42-1.2-6.332.807-7.787,3.857a.925.925,0,0,0-.029.111,1.221,1.221,0,0,0-.064.107C253.345,180.26,264.432,182.744,266.91,176.691Zm-4.94-5.882a3.629,3.629,0,0,1,3.39,4.807c-1.395,4.392-9.44,3.151-7.83-1.65C258.409,172.185,259.794,170.621,261.969,170.808Z" transform="translate(-216.601 -138.992)" fill="#a80e0e"/>
      <path id="Trazado_7434" data-name="Trazado 7434" d="M258.436,163.63c1.017-.131,2.683,1.074,2.426,2.215s1.5,1.638,1.766.487c.5-2.223-1.917-4.826-4.192-4.533a.947.947,0,0,0-.916.916A.92.92,0,0,0,258.436,163.63Z" transform="translate(-215.957 -141.21)" fill="#a80e0e"/>
      <path id="Trazado_7435" data-name="Trazado 7435" d="M250.912,176.168c1.056.514,1.985-1.065.925-1.582a1.73,1.73,0,0,1-1.015-.85,1.043,1.043,0,0,1,.241-1.244c.883-.786-.416-2.078-1.3-1.3a2.813,2.813,0,0,0-.781,2.816A3.329,3.329,0,0,0,250.912,176.168Z" transform="translate(-218.62 -138.38)" fill="#a80e0e"/>
      <path id="Trazado_7436" data-name="Trazado 7436" d="M268.609,174.54c1.06.5,1.99-1.077.925-1.582-1.447-.684-1.482-2.232-.641-3.436.678-.968-.911-1.884-1.582-.924A3.967,3.967,0,0,0,268.609,174.54Z" transform="translate(-213.186 -139.231)" fill="#a80e0e"/>
      <path id="Trazado_7437" data-name="Trazado 7437" d="M237.127,186.714c-.873.254-2.314-.147-2.031-1.323.277-1.146-1.488-1.634-1.766-.488-.615,2.541,2.01,4.239,4.284,3.577A.917.917,0,0,0,237.127,186.714Z" transform="translate(-223.444 -134.28)" fill="#a80e0e"/>
      <path id="Trazado_7438" data-name="Trazado 7438" d="M240.462,169.824c.675.136,1.04.349,1.128,1.085a1.435,1.435,0,0,1-.739,1.611c-1.109.379-.633,2.148.487,1.766a3.191,3.191,0,0,0,2.084-3.377,2.933,2.933,0,0,0-2.473-2.851C239.8,167.826,239.306,169.591,240.462,169.824Z" transform="translate(-221.42 -139.279)" fill="#a80e0e"/>
      <path id="Trazado_7439" data-name="Trazado 7439" d="M251.375,178.975a2.947,2.947,0,0,0-1.986,2.982c.076,1.17,1.909,1.179,1.832,0a1.163,1.163,0,0,1,.911-1.308,1.363,1.363,0,0,1,1.673.362c.82.849,2.116-.447,1.3-1.3A3.19,3.19,0,0,0,251.375,178.975Z" transform="translate(-218.467 -135.996)" fill="#a80e0e"/>
      <path id="Trazado_7440" data-name="Trazado 7440" d="M299.187,175.928c-1.019-6.465-5.328-10.609-10.111-14.685-5.177-4.41-10.267-8.207-16.617-10.829-5.214-2.154-13.155-5.352-18.972-4.058-3.671.816-5.142,4.972-3.964,8.342-2.32,7.5-6.733,14.179-9.8,21.385-3.531,8.308-7.163,16.523-11.09,24.653-.879,1.823-3.555,5.388-2.725,7.742a.811.811,0,0,0,.02.144,6.2,6.2,0,0,0,7.081,4.263c6.283-1.314,12.792-4.854,18.636-7.612.113,1.225-.249,2.473.976,3.519,2.248,1.922,3.619-.349,3.907-2.435a12.9,12.9,0,0,0-.093-2.724.882.882,0,0,0,.183-.031l3.663-1.422c-.005.612-.073,1.247-.067,1.794a37.046,37.046,0,0,0,.26,4.618c.34,2.454,1.749,6.847,5.049,4.849,3.979-2.409,2.016-9.5,1.976-14.142,7.895-4.162,16.048-7.837,23.913-12.042C296.5,184.538,300.587,182.17,299.187,175.928Zm-35.032-26.4a57.828,57.828,0,0,1,14.366,5.926c6.253,3.708,14.451,9.758,17.669,16.972a4.042,4.042,0,0,0-2.648.128,5.751,5.751,0,0,0-3.557,3.99c-3.236-5.551-9.338-9.366-14.559-12.843-7.412-4.935-15.424-8.622-24.283-9.811C248.177,146.26,260.369,148.5,264.154,149.527Zm-34.761,60.6a27.762,27.762,0,0,0,3.7-1.269c3.615-1.2,7.293-2.372,10.807-3.852,1.826-.769,5.384-3.22,7.051-1.42C246.946,205.542,234.311,212.665,229.393,210.124Zm26.921-8.36a4.384,4.384,0,0,1,.331-2.014c.884-1.711,2.507-.636,3.234.629Zm8.733,9.513c-1.145.412-2.36-1.395-2.639-2.071a9.544,9.544,0,0,1-.28-2.669c-.114-1.717.007-3.438-.075-5.154-.137-2.865-1.621-6.226-5.125-4.7-3,1.3-2.084,4.87-2.139,7.5-.026,1.261-.27,4.2-1.552,1.452-.245-.522.081-1.332-.033-1.91a3.071,3.071,0,0,0-1.717-2.5c-3.1-1.421-8.393,2.184-11.147,3.183-2.776,1.007-8.615,4.243-11.368,2.986-1.8-.819-1.068-.947-.259-2.618q.936-1.933,1.87-3.866,5.46-11.324,10.3-22.895c3.153-7.526,7.711-14.512,10.221-22.293,8.016,1.078,15.327,4.373,22.107,8.725,6.007,3.857,13.905,8.549,16.388,15.62-5.912,3.819-12.047,7.018-18.157,10.473-4.948,2.8-5.92,6-5.608,11.555C265.908,203.313,266.678,210.689,265.047,211.277Zm18.785-22.306c-5.409,2.659-10.793,5.364-16.131,8.163.022-.089.033-.188.059-.273,1.3-4.221,6.724-5.687,10.225-7.567,4.509-2.423,8.85-5.209,13.128-8.014a.863.863,0,0,0,.6-1.074c-.59-2.236-.041-4.685,2.151-5.784,1.921-.964,3.045.233,3.552,1.994C298.949,183.229,288.709,186.574,283.832,188.971Z" transform="translate(-225.753 -146.057)" fill="#a80e0e"/>
      <path id="Trazado_7441" data-name="Trazado 7441" d="M251.859,150.958a38.918,38.918,0,0,1,12.722,4.948.916.916,0,0,0,.924-1.582,40.135,40.135,0,0,0-13.159-5.134C251.194,148.972,250.7,150.737,251.859,150.958Z" transform="translate(-217.907 -145.096)" fill="#a80e0e"/>
      <path id="Trazado_7442" data-name="Trazado 7442" d="M264.5,156.407a.916.916,0,0,0,0-1.832A.916.916,0,0,0,264.5,156.407Z" transform="translate(-214.078 -143.43)" fill="#a80e0e"/>
    </g>
  </g>
</svg>
