<svg width="377" height="12.95" viewBox="0 0 377 12.95" xmlns="http://www.w3.org/2000/svg" xmlns:xlink="http://www.w3.org/1999/xlink" overflow="hidden"><path d="M376.352 4.206C376.015 4.23455 375.692 4.35224 375.415 4.547 375.226 4.7091 374.982 4.79063 374.734 4.774 374.284 4.83976 373.845 4.9638 373.428 5.143 372.207 5.654 369.255 5.767 369.255 5.313 369.283 4.859 365.934 4.774 365.764 5.228 365.679 5.428 365.281 5.483 364.742 5.398 364.061 5.284 363.862 5.341 363.862 5.71 363.862 6.11 363.692 6.136 363.01 5.965 362.471 5.823 362.158 5.88 362.158 6.05 361.448 6.334 361.335 5.965 361.647 5.426 362.073 4.66 361.505 4.007 360.966 4.66 360.647 4.96998 360.219 5.14325 359.774 5.143 358.525 5.2 358.468 5.143 358.809 4.575 359.15 3.975 360.509 3.695 363.379 3.638 364.401 3.61 366.047 3.553 367.069 3.524 368.77 3.40994 370.476 3.40059 372.178 3.496 373.512 3.524 375.13 3.553 375.778 3.553 377.033 3.581 377.487 4.092 376.352 4.206ZM357.306 4.606C358.101 5.259 357.051 5.713 355.092 5.571 354.356 5.47098 353.608 5.49022 352.878 5.628 352.71 5.74162 352.497 5.76305 352.31 5.685 351.76 5.6228 351.204 5.65152 350.664 5.77 349.869 5.884 348.507 6.025 347.627 6.054 346.906 6.05502 346.189 6.1601 345.498 6.366 344.632 6.51974 343.745 6.50037 342.887 6.309 341.297 6.082 340.673 6.109 340.247 6.366 339.847 6.621 339.367 6.65 338.374 6.451 337.783 6.28982 337.166 6.24164 336.557 6.309 335.274 6.43547 333.985 6.48289 332.697 6.451 331.235 6.42806 329.773 6.52303 328.326 6.735 327.056 6.90672 325.772 6.94493 324.494 6.849 322.024 6.707 321.655 6.764 321.542 7.19 320.634 7.133 317.994 7.19 317.682 7.616 317.029 8.439 316.092 8.468 315.809 7.673 315.554 6.963 315.554 6.963 314.361 7.389 313.396 7.73 313.055 7.73 312.629 7.446 312.229 7.162 311.806 7.162 310.929 7.361 310.411 7.50089 309.871 7.5396 309.339 7.475 308.715 7.22 304.883 7.986 304.514 8.44 304.145 8.923 303.095 8.979 302.839 8.525 302.583 8.071 301.675 8.156 301.139 8.667 300.739 9.036 300.344 9.067 298.783 8.837 296.597 8.525 296.711 8.525 292.709 8.637 291.474 8.64762 290.241 8.74251 289.019 8.921 288.418 9.02247 287.802 8.96383 287.231 8.751 286.209 8.41 285.982 8.41 285.358 8.865 284.563 9.433 283.627 9.518 283.201 9.065 282.946 8.781 281.271 8.865 277.552 9.349 276.069 9.48211 274.577 9.47273 273.096 9.321 272.896 9.293 271.336 9.435 269.605 9.633 267.874 9.831 265.773 10.033 264.921 10.059 264.069 10.085 262.221 10.229 260.834 10.343 256.292 10.797 250.871 10.655 250.388 10.059 249.788 9.293 250.133 8.895 251.325 8.924 251.925 8.952 252.517 8.839 252.602 8.669 252.716 8.499 253.028 8.469 253.312 8.555 253.682 8.6576 254.077 8.6169 254.419 8.441 254.922 8.24328 255.459 8.1448 256 8.151 256.402 8.18563 256.805 8.10699 257.164 7.924 257.473 7.74596 257.833 7.67561 258.186 7.724 259.066 7.752 259.066 7.752 258.386 7.014 257.705 6.304 257.676 6.304 255.207 6.56 253.277 6.76 252.596 6.73 252.198 6.446 251.545 5.992 250.637 5.963 250.353 6.361 250.208 6.53879 249.962 6.59705 249.753 6.503 249.374 6.42269 248.981 6.45218 248.618 6.588 248.107 6.758 247.766 6.758 247.511 6.531 247.256 6.304 246.603 6.331 245.07 6.731 243.707 7.072 242.884 7.157 242.714 6.958 242.26 6.475 241.862 6.617 241.777 7.327 241.72 7.951 241.805 8.008 242.657 7.895 243.452 7.781 243.679 7.895 244.048 8.548 244.559 9.371 245.411 9.371 246.063 8.548 246.663 7.81 248.504 8.406 248.249 9.286 248.079 9.91 248.135 9.967 248.873 10.024 250.434 10.081 248.873 10.535 246.602 10.677 244.672 10.791 244.36 10.734 244.047 10.308 243.735 9.854 243.564 9.825 242.628 10.108 241.833 10.335 241.464 10.335 241.18 10.08 240.93 9.85208 240.56 9.81738 240.272 9.995 237.689 11.329 237.604 11.357 232.097 11.329 229.173 11.329 226.392 11.357 225.909 11.443 224.777 11.5542 223.64 11.6016 222.503 11.585 221.414 11.551 220.325 11.6658 219.267 11.926 218.961 12.0842 218.617 12.1535 218.274 12.126 216.932 12.0291 215.585 12.0291 214.243 12.126 212.228 12.183 204.195 12.41 200.902 12.495 198.626 12.5056 196.352 12.6391 194.09 12.895 193.607 13.009 187.164 12.952 179.756 12.695 172.348 12.468 162.867 12.184 158.694 12.095 154.039 11.981 150.973 11.811 150.775 11.641 150.548 11.441 149.668 11.471 148.192 11.669 147.37 11.8405 146.528 11.8883 145.692 11.811 145.181 11.47 128.661 11.187 122.331 11.411 118.731 11.553 115.093 11.611 114.241 11.581 113.389 11.551 110.892 11.524 108.706 11.524 106.52 11.524 102.064 11.439 98.771 11.354 86.991 10.985 84.522 10.954 80.605 11.127 68.456 11.727 62.353 11.553 61.388 10.588 61.1359 10.3437 60.8602 10.125 60.565 9.935 60.4248 10.1191 60.3277 10.3324 60.281 10.559 60.081 11.723 57.244 11.524 57.329 10.332 57.386 9.537 56.506 9.537 54.86 10.332 54.4602 10.5616 54.0138 10.6983 53.554 10.732 52.2765 10.5214 50.9875 10.3878 49.694 10.332 47.679 10.19 44.386 9.932 42.371 9.732 32.2228 9.04706 22.0423 8.98027 11.886 9.532 1.156 10.043 2.036 10.242 0.586 6.722-0.2 4.83-0.2 4.83 0.648 4.092 1.32863 3.60037 2.08678 3.2262 2.891 2.985 3.657 2.758 5.559 2.219 7.149 1.764 12.088 0.345 29.4 0.147 38.741 1.452 42.808 2.0241 46.9357 2.01467 51 1.424 51.852 1.31 53.583 1.169 54.832 1.112 56.081 1.055 58.181 0.912 59.516 0.828 66.692 0.246989 73.8933 0.0373761 81.091 0.2 84.753 0.228 88.13 0.2 88.613 0.143 91.849-0.226 108.313 0.115 124.634 0.881 130.084 1.136 137.18 1.307 140.359 1.25 150.067 1.08 151.401 1.08 164.628 1.335 171.639 1.477 178.48 1.477 179.814 1.363 181.148 1.249 186.714 1.193 192.161 1.278 197.608 1.363 203.174 1.335 204.508 1.25 205.842 1.136 207.119 1.08 207.347 1.08 207.575 1.08 211.662 1.108 216.43 1.137 224.548 1.165 234.454 1.392 240.955 1.705 242.516 1.79 244.162 1.847 244.645 1.875 247.597 2.017 249.645 2.275 249.896 2.556 250.123 2.783 250.464 2.756 251.117 2.442 251.924 2.00011 252.903 2.01072 253.7 2.47 253.842 2.612 254.324 2.527 254.835 2.3 255.459 1.988 255.828 1.959 256.169 2.186 256.422 2.35215 256.74 2.3839 257.021 2.271 258.139 2.10043 259.283 2.25815 260.314 2.725 260.572 2.89697 260.908 2.89697 261.166 2.725 262.727 1.959 263.181 1.959 264.766 2.839 265.901 3.463 266.611 3.439 266.639 2.754 266.667 1.902 268.768 2.271 269.339 3.237 269.651 3.805 270.361 3.549 270.191 2.925 270.901 2.84 271.553 2.897 272.036 2.84 272.636 2.726 272.916 2.812 272.916 3.04 272.916 3.295 273.257 3.352 274.25 3.21 275.05 3.11321 275.858 3.08478 276.663 3.125 277.22 3.17542 277.781 3.10725 278.309 2.925 278.735 2.698 279.246 2.755 280.324 3.095 281.8 3.578 282.224 3.521 283.532 2.527 283.932 2.215 284.242 2.215 284.951 2.442 287.088 2.82216 289.269 2.87947 291.423 2.612 291.647 2.49805 291.92 2.55742 292.076 2.754 292.218 2.981 292.842 3.038 294.063 2.954 295.255 2.86867 295.908 2.92533 296.022 3.124 296.164 3.351 296.363 3.351 296.788 3.152 297.069 2.94319 297.457 2.95478 297.725 3.18 297.98 3.407 298.52 3.407 299.625 3.208 302.021 2.95985 304.437 2.95047 306.835 3.18 307.147 3.208 308.226 3.152 309.248 3.095 310.27 3.038 311.548 3.01 312.087 3.038 312.626 3.066 313.787 3.123 314.642 3.18 316.004 3.265 323.442 3.237 327.614 3.123 328.227 3.08072 328.842 3.14845 329.431 3.323 329.722 3.45547 330.057 3.44512 330.339 3.295 330.63 3.09017 331.027 3.12614 331.276 3.38 331.56 3.635 331.9 3.664 332.695 3.408 333.419 3.21335 334.18 3.20373 334.909 3.38 335.914 3.56529 336.927 3.69879 337.946 3.78 338.968 3.837 340.983 4.007 342.488 4.121 344.475 4.263 345.412 4.235 346.088 3.921 346.911 3.58 347.252 3.58 349.295 4.063 350.141 4.31632 351.023 4.43147 351.906 4.404 352.31 4.149 356.908 4.263 357.306 4.6ZM37.066 5.256C36.101 5.228 35.789 5.625 36.073 6.448 36.385 7.356 37.066 7.47 37.521 6.648 37.946 5.937 37.719 5.256 37.066 5.256ZM70.163 6.7C69.851 6.5 68.715 7.069 68.687 7.41 69.879 7.669 70.589 6.959 70.163 6.7ZM147.909 6.955C147.654 6.501 147.057 6.755 147.029 7.355 147.001 7.809 147.256 7.866 147.795 7.555 147.989 7.43646 148.049 7.18344 147.931 6.98986 147.924 6.97927 147.917 6.96897 147.91 6.959ZM150.095 6.728C149.857 6.72141 149.621 6.70238 149.385 6.671 148.932 7.328 149.584 7.357 150.1 6.732ZM151.571 7.211C151.404 7.40388 151.393 7.6861 151.543 7.892 152.253 7.243 151.969 6.846 151.571 7.215ZM163.748 7.892C163.508 7.76017 163.25 7.66447 162.982 7.608 162.521 7.51272 162.066 7.38949 161.62 7.239 161.109 7.069 160.996 7.154 160.854 7.977 160.769 8.488 160.712 8.942 160.712 8.942 161.336 9.485 163.72 8.691 163.749 7.9ZM172.604 8.375C172.49 7.722 172.377 7.665 171.724 7.807 169.311 8.346 168.318 8.318 167.75 7.75 166.7 6.643 166.217 7.296 167.012 8.8 167.722 10.162 168.403 10.475 169.141 9.765 169.675 9.49134 170.273 9.36403 170.872 9.396 172.576 9.4 172.747 9.287 172.6 8.378ZM174.648 9.454C174.818 9.028 174.563 8.886 174.307 8.886 174.166 9.315 174.421 9.429 174.648 9.457ZM181.262 8.854C181.404 8.454 181.035 8.428 180.098 8.74 179.53 8.94 179.36 8.882 179.218 8.513 178.594 8.713 178.452 8.74 178.168 8.485 177.221 8.13666 176.187 8.09676 175.216 8.371 175.131 8.456 175.159 8.825 175.33 9.137 175.547 9.64927 176.137 9.88904 176.65 9.67252 176.76 9.62593 176.861 9.56006 176.948 9.478 177.175 9.251 177.431 9.278 177.828 9.506 178.707 10.025 180.978 9.571 181.262 8.861ZM183.162 8.454C182.992 8.709 183.162 8.854 183.332 8.854 183.732 8.861 183.646 8.662 183.164 8.464ZM187.846 8.284C187.193 8.057 186.711 8.256 186.682 8.795 186.682 9.195 187.448 9.533 188.016 9.363 188.584 9.193 188.472 8.52 187.847 8.293ZM206.012 8.256C206.04 7.433 205.331 7.291 204.451 7.915 203.741 8.426 203.174 8.426 203.202 7.915 203.202 7.603 203.002 7.546 202.294 7.715 201.783 7.829 200.875 7.999 200.307 8.056 199.143 8.226 199.001 8.456 199.654 9.277 200.023 9.76 200.254 9.788 201.13 9.589 201.868 9.419 202.18 9.419 202.265 9.646 202.407 10.157 203.315 10.046 203.883 9.446 204.246 9.10861 204.721 8.91676 205.217 8.907 205.872 8.974 206.014 8.861 206.014 8.265ZM220.512 7.348C219.5 7.15102 218.453 7.25963 217.503 7.66 217.219 6.95 216.595 6.78 215.003 6.894 213.981 6.979 213.584 7.149 213.47 7.518 213.3 8.118 212.249 8.199 212.249 7.603 212.277 7.12 211.397 6.723 211.142 7.092 210.801 7.603 209.411 7.745 209.242 7.262 209.1 6.893 208.987 6.893 208.39 7.376 206.999 8.511 208.958 9.817 210.434 8.71 210.744 8.53358 211.127 8.54438 211.427 8.738 212.003 9.00622 212.601 9.22468 213.215 9.391 214.691 9.845 215.003 9.817 215.826 9.306 216.28 8.94591 216.913 8.91534 217.4 9.23 218.494 9.54314 219.655 9.54314 220.749 9.23 221.285 8.974 221.086 7.527 220.518 7.357ZM221.931 7.291C222.584 7.491 222.981 7.036 222.555 6.581 222.355 6.354 222.129 6.411 221.817 6.695 221.455 7.073 221.455 7.158 221.938 7.3ZM240.324 7.433C240.239 7.149 239.586 7.007 237.769 6.922 236.852 6.92243 235.937 6.81775 235.044 6.61 234.874 6.496 234.618 6.724 234.444 7.121 234.103 7.944 233.706 8.029 233.451 7.348 233.338 7.036 233.082 6.92233 232.685 7.007 231.952 7.06071 231.215 7.0034 230.499 6.837 229.477 6.637 228.799 6.637 228.626 6.809 228.307 7.01859 227.928 7.1183 227.547 7.093 227.023 7.1121 226.511 7.24881 226.047 7.493 225.423 7.893 225.281 7.862 224.656 7.436 223.861 6.868 223.35 7.036 223.322 7.862 223.322 8.262 223.18 8.373 222.896 8.262 222.272 8.007 222.357 8.574 223.01 8.943 223.57 9.17482 224.196 9.19508 224.77 9 225.444 8.86637 226.127 8.79043 226.814 8.773 227.268 8.78461 227.714 8.65573 228.091 8.404 229.173 7.81124 230.462 7.72812 231.611 8.177 231.923 8.432 232.011 8.631 231.811 8.745 231.272 9.057 231.47 9.455 232.123 9.455 232.537 9.46372 232.948 9.53105 233.344 9.655 233.754 9.79466 234.207 9.64372 234.451 9.286 234.89 8.86678 235.495 8.66864 236.097 8.747 236.977 8.775 237.204 8.69 237.204 8.236 237.232 7.526 237.857 7.328 239.276 7.612 240.218 7.811 240.416 7.782 240.331 7.442ZM265.104 6.241C264.828 6.22214 264.558 6.32608 264.366 6.525 262.805 5.588 259.313 6.866 259.881 7.944 260.307 8.767 261.953 8.71 263.23 7.859 263.704 7.50056 264.244 7.24015 264.82 7.093 265.509 7.1 265.793 6.278 265.111 6.249ZM274.726 6.841C274.754 6.075 271.717 5.45 270.726 6.018 270.243 6.302 270.981 6.87 271.947 6.955 272.458 7.012 273.082 7.097 273.309 7.155 273.854 7.328 274.734 7.129 274.734 6.846ZM279.807 5.904C279.547 5.65312 279.133 5.66039 278.882 5.92024 278.755 6.05228 278.689 6.23181 278.7 6.415 278.662 6.67287 278.84 6.91284 279.098 6.95098 279.135 6.95652 279.173 6.95754 279.211 6.954 279.558 7.01892 279.893 6.78988 279.958 6.44243 279.993 6.2522 279.941 6.0561 279.815 5.909ZM281.255 6.304C281.283 5.793 280.655 5.878 280.46 6.389 281.064 6.732 281.262 6.533 281.262 6.306ZM283.384 6.531C283.498 6.32734 283.463 6.07272 283.299 5.907 282.93 5.507 282.022 5.822 282.164 6.307 282.341 6.76 283.136 6.931 283.391 6.533ZM292.212 5.367C291.981 5.36254 291.79 5.54603 291.786 5.77684 291.786 5.78223 291.786 5.78762 291.786 5.793 292.162 6.221 292.361 6.051 292.219 5.37ZM295.192 4.941C294.88 4.969 294.592 5.141 294.592 5.31 294.564 5.651 295.273 5.849 295.557 5.594 295.966 5.2 295.8 4.887 295.2 4.944ZM315.771 5.793C316.055 5.367 315.487 4.856 314.948 5.027 314.688 5.11465 314.508 5.35269 314.494 5.627 314.473 6.108 315.495 6.249 315.778 5.8Z" id="PINCELADA" fill="#F8C801" transform="translate(-0.002 0.003)"/></svg>