<svg width="135" height="96" viewBox="0 0 135 96" xmlns="http://www.w3.org/2000/svg" xmlns:xlink="http://www.w3.org/1999/xlink" id="Grupo_2002" overflow="hidden"><g id="Grupo_1709"><g id="Grupo_1706"><g id="Grupo_1696"><path d="M361.675 38.218C357.809 42.505 354.166 47.018 350.485 51.441 343.673 59.627 336.859 67.962 332.31 77.741 324.43 94.683 320 114.677 319.331 134.215L454.331 134.215 454.331 133.21Z" id="Trazado_8461" fill="#FFE4B8" transform="translate(-319.331 -38.218)"/></g><g id="Grupo_1697" transform="translate(8.638 2.899)"><path d="M361.767 40.1C353.199 50.2115 345.54 61.0592 338.879 72.517 335.91 78.7177 333.38 85.1195 331.309 91.675 326.88 105.063 324.734 119.1 324.96 133.2L451.312 133.2 451.312 132.2Z" id="Trazado_8462" fill="#FFAE6C" transform="translate(-324.95 -40.104)"/></g><g id="Grupo_1699" transform="translate(4.605 2.472)"><g id="Grupo_1698"><path d="M365.538 39.826C356.452 48.4276 348.377 58.0366 341.467 68.467 328.609 87.6326 321.934 110.278 322.34 133.354L330.351 133.354C330.33 132.679 330.302 132.004 330.29 131.328 331.676 98.2 345.024 67.01 369.88 43.979Z" id="Trazado_8463" fill="#FFCB92" transform="translate(-322.327 -39.826)"/></g></g><g id="Grupo_1702" transform="translate(5.648 3.694)"><g id="Grupo_1701"><g id="Grupo_1700"><path d="M323.005 119.043 323.174 119.043C323.884 102.671 329.346 88.654 332.326 74.423 326.315 88.5388 323.148 103.701 323.005 119.043Z" id="Trazado_8464" fill="#FFE4B8" transform="translate(-323.005 -26.737)"/><path d="M363.139 40.621C353.29 49.7917 344.563 60.0968 337.139 71.321 334.385 76.2389 332.043 81.3768 330.139 86.682 329.839 88.659 329.472 90.624 329.061 92.582 337.219 73.4538 349.565 56.3994 365.188 42.675Z" id="Trazado_8465" fill="#FFE4B8" transform="translate(-319.747 -40.621)"/></g></g></g><g id="Grupo_1705" transform="translate(14.973 9.604)"><g id="Grupo_1703"><path d="M369.045 44.465C351.311 60.328 337.95 80.531 332.276 103.79 330.762 111.224 329.766 118.753 329.294 126.325 329.186 127.843 329.116 129.354 329.071 130.861L330.594 130.861C331.687 99.215 345.47 67.782 369.363 44.766Z" id="Trazado_8466" fill="#FFDDA6" transform="translate(-329.071 -44.465)"/></g><g id="Grupo_1704" transform="translate(2.251 0.158)"><path d="M365.572 44.568C361.476 48.7458 357.761 53.2808 354.472 58.119 350.922 63.0787 347.676 68.2485 344.75 73.6 335.318 90.811 330.699 110.859 330.535 130.8L448.311 130.8 448.311 129.8Z" id="Trazado_8467" fill="#FFDCA9" transform="translate(-330.535 -44.568)"/></g></g></g><g id="Grupo_1707" opacity="0.15" transform="translate(35.258 15.893)"><path d="M429.573 111.733 429.035 112.861C428.737 113.649 428.142 114.289 427.378 114.643 426.594 114.973 425.715 114.998 424.914 114.712 423.358 114.162 422.058 112.189 422.789 110.655L424.026 108.055C424.212 107.642 424.462 107.261 424.765 106.924L390.4 72.561C390.328 72.633 390.26 72.707 390.188 72.778 389.146 73.82 387.43 73.522 386.225 72.87 384.98 72.197 383.738 70.718 382.954 70.247 380.602 68.834 381.248 66.239 382.972 65.132L369.172 51.338C365.506 58.911 363.533 67.269 362.044 75.83 363.029 76.007 363.862 76.6596 364.27 77.573 364.57 78.373 364.854 79.181 365.131 79.988 365.214 80.2307 365.297 80.4727 365.382 80.714 365.365 80.659 365.582 81.26 365.593 81.275 365.678 81.4857 365.765 81.6963 365.854 81.907 366.56 82.0518 367.199 82.4259 367.671 82.971 368.762 84.207 368.839 86.471 367.384 87.405 364.809 89.051 362.025 88.074 360.509 85.465 359.516 93.0593 358.065 100.587 356.165 108.006 356.416 108.1 356.655 108.222 356.878 108.37 358.278 109.311 358.936 111.47 357.831 112.77 356.95 113.803 356.068 114.838 355.107 115.802 354.485 116.489 353.741 117.056 352.913 117.473 351.14 122.033 349.333 126.56 348.486 131.442L448.227 131.442 448.227 130.389ZM392.166 127.9C390.706 129.073 388.875 128.609 387.537 127.41 387.99 127.817 387.194 127.184 387.165 127.166 387.074 127.109 387.016 127.066 386.976 127.04L386.933 127.025C386.845 126.994 386.795 126.973 386.755 126.954L386.721 126.954C386.601 126.988 386.463 127.035 386.404 127.054L386.35 127.079C386.273 127.148 385.916 127.391 385.883 127.423 385.715 127.564 385.556 127.712 385.4 127.867 384.166 129.052 381.88 128.629 380.773 127.377 379.626 126.106 379.727 124.146 380.998 122.999 381.018 122.98 381.04 122.961 381.061 122.943 382.574 121.4 384.67 120.571 386.829 120.662 388.968 120.934 390.952 121.925 392.454 123.472 393.602 124.703 393.535 126.631 392.304 127.779 392.26 127.82 392.213 127.861 392.166 127.9ZM413.255 124.887C414.403 126.143 414.316 128.092 413.06 129.24 413.03 129.268 412.999 129.295 412.968 129.321 411.534 130.389 409.52 130.175 408.341 128.831 408.089 128.531 407.832 128.231 407.555 127.956 407.474 127.902 407.045 127.541 406.955 127.481 406.677 127.304 406.392 127.143 406.1 126.989L405.611 126.752C403.981 125.973 402.896 124.437 403.485 122.694 404.099 121.051 405.928 120.217 407.57 120.831 407.583 120.835 407.595 120.84 407.608 120.845 409.771 121.751 411.701 123.134 413.254 124.891ZM390.955 99.854C391.678 101.281 391.176 103.516 389.487 104.011 388.401 104.411 387.229 104.521 386.087 104.331 384.991 104.078 383.928 103.694 382.923 103.189 381.293 102.413 380.208 100.874 380.798 99.132 381.409 97.4902 383.235 96.6545 384.877 97.2655 384.891 97.2706 384.904 97.2757 384.918 97.281 385.507 97.5818 386.113 97.8472 386.734 98.076 386.862 98.058 387.025 98.059 386.872 98.131L386.872 98.131C386.912 98.131 386.95 98.139 386.989 98.14 388.551 97.7065 390.204 98.4222 390.956 99.858Z" id="Trazado_8468" fill="#EFA765" transform="translate(-348.491 -51.339)"/></g><g id="Grupo_1708" transform="translate(31.002 12.969)"><path d="M449.405 131.1C448.672 131.161 447.936 131.192 447.199 131.191 445.416 131.043 444.054 129.535 444.088 127.746 444.112 127.219 444.285 126.711 444.588 126.279L427.75 109.442C427.839 109.9 427.782 110.374 427.589 110.799L426.351 113.399C426.053 114.187 425.458 114.827 424.694 115.181 423.91 115.511 423.031 115.536 422.23 115.25 420.674 114.7 419.374 112.727 420.105 111.193L421.343 108.593C421.641 107.805 422.236 107.165 423 106.809 423.603 106.555 424.267 106.483 424.911 106.601L389.516 71.201C388.875 71.911 388.203 72.609 387.505 73.307 386.463 74.349 384.749 74.051 383.543 73.399 382.298 72.726 381.056 71.247 380.272 70.776 376.606 68.576 380.209 63.476 383.855 65.669 384.003 65.758 384.138 65.86 384.273 65.96L367.744 49.437C363.254 57.637 361.014 66.876 359.363 76.364 360.347 76.5411 361.18 77.1932 361.589 78.106 361.889 78.906 362.173 79.714 362.45 80.523 362.531 80.764 362.616 81.007 362.699 81.249 362.684 81.192 362.905 81.795 362.911 81.81 362.996 82.021 363.083 82.231 363.172 82.442 363.878 82.5872 364.517 82.9612 364.989 83.506 366.079 84.742 366.157 87.006 364.701 87.94 362.126 89.586 359.342 88.609 357.825 85.998 356.833 93.593 355.382 101.121 353.481 108.541 353.732 108.635 353.972 108.757 354.196 108.905 355.596 109.846 356.254 112.005 355.148 113.305 354.269 114.34 353.385 115.373 352.425 116.338 351.802 117.025 351.058 117.591 350.231 118.009 348.425 122.653 346.577 127.262 345.751 132.251 345.739 132.323 345.734 132.396 345.722 132.468L449.722 132.468 449.722 131.415ZM389.476 128.439C388.017 129.612 386.186 129.146 384.849 127.949 385.302 128.355 384.506 127.723 384.477 127.705 384.386 127.648 384.328 127.605 384.288 127.579L384.243 127.564C384.157 127.533 384.106 127.51 384.066 127.492L384.032 127.492C383.912 127.524 383.774 127.573 383.715 127.592L383.661 127.617C383.584 127.686 383.227 127.929 383.192 127.961 383.026 128.101 382.865 128.25 382.711 128.404 381.477 129.589 379.189 129.166 378.084 127.914 376.937 126.643 377.038 124.682 378.31 123.536 378.33 123.518 378.35 123.5 378.371 123.482 379.884 121.939 381.98 121.11 384.139 121.201 386.278 121.472 388.261 122.463 389.762 124.011 390.91 125.241 390.844 127.168 389.614 128.316 389.57 128.358 389.524 128.398 389.477 128.437ZM410.566 125.426C411.714 126.681 411.627 128.628 410.372 129.776 410.342 129.804 410.311 129.831 410.279 129.858 408.844 130.926 406.829 130.713 405.65 129.368 405.399 129.068 405.143 128.773 404.864 128.495 404.784 128.441 404.355 128.08 404.264 128.02 403.986 127.843 403.7 127.68 403.409 127.528L402.92 127.29C401.29 126.512 400.204 124.976 400.794 123.233 401.407 121.59 403.235 120.755 404.878 121.368 404.891 121.372 404.904 121.377 404.916 121.382 407.08 122.287 409.011 123.669 410.567 125.424ZM388.266 100.393C388.989 101.82 388.487 104.055 386.798 104.55 385.711 104.948 384.54 105.058 383.398 104.868 382.301 104.616 381.239 104.233 380.234 103.727 378.604 102.951 377.519 101.41 378.108 99.669 378.722 98.0264 380.551 97.1924 382.193 97.8061 382.206 97.8106 382.218 97.8153 382.23 97.82 382.819 98.1204 383.426 98.3859 384.046 98.615 384.172 98.595 384.337 98.598 384.184 98.669L384.184 98.669 384.302 98.68C385.862 98.2458 387.513 98.9583 388.268 100.391Z" id="Trazado_8469" fill="#FFE1B0" transform="translate(-345.722 -49.437)"/></g></g><g id="Grupo_1788" transform="translate(18.658 11.713)"><g id="Grupo_1724"><g id="Grupo_1711"><g id="Grupo_1710"><path d="M366.948 45.837C364.401 48.394 361.948 51.047 359.623 53.806 353.537 60.997 348.275 68.8457 343.933 77.206L343.92 77.231C341.421 82.0196 339.263 86.979 337.464 92.072 337.137 93.029 336.813 93.984 336.498 94.913L336.475 94.966C332.897 106.334 331.212 118.213 331.486 130.127L447.81 130.127 447.81 129.127Z" id="Trazado_8470" fill="#E84B1A" transform="translate(-331.468 -45.837)"/></g></g><g id="Grupo_1713" transform="translate(17.62 9.352)"><g id="Grupo_1712"><path d="M374.3 54.7C372.594 56.582 370.914 58.562 369.187 60.685 364.038 67.019 358.553 72.155 355.13 80.49 351.723 88.79 350.666 97.144 349.045 105.828 347.509 114.042 343.288 121.622 342.932 129.636L441.653 129.636 441.653 128.583Z" id="Trazado_8471" fill="#E5461C" transform="translate(-342.93 -54.703)"/></g></g><g id="Grupo_1715" opacity="0.15" transform="translate(10.102 12.128)"><g id="Grupo_1714"><path d="M379.4 56.509C377.1 58.749 374.86 61.139 372.548 63.73 366.9 70.065 360.883 75.2 357.129 83.535 353.393 91.835 352.229 100.189 350.452 108.873 349.052 115.706 345.611 122.1 344.266 128.673L450.5 128.673 450.5 127.62Z" id="Trazado_8472" fill="#FC8332" transform="translate(-344.264 -56.509)"/></g></g><g id="Grupo_1716" transform="translate(36.69 30.044)"><path d="M388.022 68.163C384.475 71.419 381.299 75.336 378.048 78.627 373.319 83.414 373.802 91.351 370.963 97.656 368.141 103.927 364.27 109.296 363.223 116.194 362.857 118.311 362.301 120.39 361.56 122.406L441.212 122.406 441.212 121.353Z" id="Trazado_8473" fill="#E5461C" transform="translate(-361.559 -68.163)"/></g><g id="Grupo_1717" transform="translate(31.726 23.933)"><path d="M383.645 64.188C381.745 66.248 379.896 68.348 378.026 70.24 373.297 75.027 373.78 82.963 370.941 89.269 368.117 95.54 364.248 100.909 363.201 107.807 362.357 113.366 359.201 118.999 358.331 124.542L442.947 124.542 442.947 123.489Z" id="Trazado_8474" fill="#E84B1A" transform="translate(-358.33 -64.188)"/></g><g id="Grupo_1719" transform="translate(68.423 47.657)"><g id="Grupo_1718"><path d="M394.542 79.62C391.132 83.52 388.717 88.289 386.384 93.47 383.119 100.721 381.569 107.27 382.442 114.491 382.511 115.074 382.579 115.662 382.642 116.251L430.12 116.251 430.12 115.2Z" id="Trazado_8475" fill="#E5461C" transform="translate(-382.202 -79.62)"/></g></g><g id="Grupo_1721" opacity="0.15" transform="translate(68.735 51.232)"><g id="Grupo_1720"><path d="M398.009 81.946C392.735 86.272 389.582 92.292 386.564 98.995 384.127 104.001 382.712 109.441 382.4 115L430.007 115 430.007 113.947Z" id="Trazado_8476" fill="#FC8332" transform="translate(-382.404 -81.946)"/></g></g><g id="Grupo_1722" transform="translate(83.709 60.507)"><path d="M402.05 87.979C398.684 91.2183 395.989 95.0885 394.118 99.369 392.408 103.26 391.782 107.542 392.306 111.76L424.778 111.76 424.778 110.707Z" id="Trazado_8477" fill="#E5461C" transform="translate(-392.145 -87.979)"/></g><g id="Grupo_1723" transform="translate(82.175 57.73)"><path d="M399.81 86.173C397.029 89.1606 394.768 92.5927 393.121 96.327 390.709 101.686 390.73 107.265 391.99 112.727L425.314 112.727 425.314 111.674Z" id="Trazado_8478" fill="#E84B1A" transform="translate(-391.147 -86.173)"/></g></g><g id="Grupo_1725" opacity="0.572" transform="translate(55.261 29.525)"><path d="M371.713 70.129C370.637 69.66 370.145 68.4077 370.614 67.3319 371.083 66.2561 372.335 65.7641 373.411 66.2331 374.487 66.702 374.979 67.9543 374.51 69.0302 374.507 69.0378 374.503 69.0454 374.5 69.053 374.027 70.1195 372.78 70.6012 371.713 70.129Z" id="Trazado_8479" fill="#F96430" transform="translate(-370.483 -66.069)"/></g><g id="Grupo_1726" opacity="0.572" transform="translate(56.41 30.921)"><path d="M371.342 67.676C371.609 67.1301 372.267 66.9036 372.813 67.1701 373.359 67.4366 373.586 68.0952 373.319 68.6412 373.059 69.1739 372.423 69.4047 371.882 69.163 371.322 68.902 371.08 68.2367 371.341 67.6772 371.342 67.6768 371.342 67.6764 371.342 67.676Z" id="Trazado_8480" fill="#FFBB71" transform="translate(-371.239 -67)"/></g><g id="Grupo_1727" opacity="0.355" transform="translate(68.883 37.242)"><path d="M381.2 75.083C380.203 74.6663 379.732 73.52 380.149 72.5228 380.566 71.5255 381.712 71.0549 382.709 71.4716 383.706 71.8883 384.177 73.0346 383.76 74.0319 383.753 74.049 383.746 74.0661 383.738 74.083 383.312 75.0591 382.177 75.5065 381.2 75.083Z" id="Trazado_8481" fill="#F96430" transform="translate(-380.087 -71.352)"/></g><g id="Grupo_1728" opacity="0.355" transform="translate(70.051 38.647)"><path d="M380.933 72.865C381.168 72.4218 381.717 72.2528 382.16 72.4874 382.604 72.7221 382.773 73.2716 382.538 73.7148 382.314 74.138 381.8 74.3144 381.363 74.118 380.899 73.8898 380.707 73.3298 380.933 72.865Z" id="Trazado_8482" fill="#FFBB71" transform="translate(-380.843 -72.282)"/></g><g id="Grupo_1729" opacity="0.914" transform="translate(94.532 79.581)"><path d="M400.324 104.129C399.333 103.695 398.882 102.539 399.317 101.548 399.751 100.557 400.906 100.106 401.897 100.541 402.888 100.975 403.339 102.131 402.905 103.122 402.902 103.127 402.9 103.133 402.897 103.139 402.46 104.123 401.308 104.566 400.324 104.129Z" id="Trazado_8483" fill="#F96430" transform="translate(-399.185 -100.386)"/></g><g id="Grupo_1730" opacity="0.914" transform="translate(95.695 81.011)"><path d="M400.028 101.892C400.254 101.422 400.818 101.224 401.288 101.45 401.758 101.676 401.956 102.24 401.73 102.71 401.508 103.171 400.959 103.372 400.492 103.162 400.014 102.939 399.806 102.371 400.028 101.892Z" id="Trazado_8484" fill="#FFBB71" transform="translate(-399.941 -101.317)"/></g><g id="Grupo_1731" opacity="0.685" transform="translate(87.893 63.455)"><path d="M394.905 93.767C393.736 93.2419 393.213 91.8682 393.738 90.6989 394.264 89.5295 395.637 89.0073 396.807 89.5324 397.976 90.0575 398.498 91.4311 397.973 92.6005 397.973 92.6013 397.972 92.6022 397.972 92.603 397.447 93.7712 396.074 94.2925 394.906 93.7675 394.906 93.7673 394.905 93.7672 394.905 93.767Z" id="Trazado_8485" fill="#F96430" transform="translate(-393.54 -89.331)"/></g><g id="Grupo_1732" opacity="0.685" transform="translate(89.088 64.894)"><path d="M394.414 91.048C394.717 90.3837 395.501 90.0908 396.165 90.3938 396.83 90.6967 397.123 91.4809 396.82 92.1452 396.518 92.8072 395.737 93.1008 395.074 92.802 394.409 92.4987 394.114 91.7147 394.414 91.048Z" id="Trazado_8486" fill="#FFBB71" transform="translate(-394.296 -90.262)"/></g><g id="Grupo_1733" opacity="0.548" transform="translate(77.498 47.868)"><path d="M387.371 82.576C386.325 82.1234 385.845 80.9089 386.297 79.8633 386.75 78.8176 387.964 78.3369 389.01 78.7895 390.056 79.242 390.536 80.4566 390.084 81.5022 390.08 81.5118 390.075 81.5214 390.071 81.531 389.613 82.5644 388.405 83.0319 387.371 82.576Z" id="Trazado_8487" fill="#F96430" transform="translate(-386.177 -78.636)"/></g><g id="Grupo_1734" opacity="0.548" transform="translate(78.678 49.287)"><path d="M387.031 80.207C387.281 79.6899 387.903 79.4734 388.42 79.7234 388.937 79.9735 389.154 80.5954 388.904 81.1125 388.658 81.6205 388.052 81.8399 387.538 81.607 387.013 81.3588 386.787 80.7337 387.031 80.207Z" id="Trazado_8488" fill="#FFBB71" transform="translate(-386.934 -79.567)"/></g><g id="Grupo_1735" opacity="0.749" transform="translate(77.785 79.484)"><path d="M387.407 103.854C386.463 103.461 386.015 102.377 386.408 101.433 386.801 100.488 387.885 100.041 388.829 100.434 389.774 100.827 390.221 101.911 389.828 102.855 389.821 102.871 389.814 102.888 389.807 102.904 389.406 103.829 388.332 104.254 387.407 103.854Z" id="Trazado_8489" fill="#F96430" transform="translate(-386.362 -100.323)"/></g><g id="Grupo_1736" opacity="0.749" transform="translate(78.964 80.914)"><path d="M387.2 101.775C387.411 101.387 387.897 101.243 388.285 101.455 388.673 101.666 388.817 102.152 388.605 102.54 388.406 102.906 387.958 103.058 387.577 102.888 387.166 102.684 386.997 102.186 387.2 101.775Z" id="Trazado_8490" fill="#FFBB71" transform="translate(-387.118 -101.254)"/></g><g id="Grupo_1737" opacity="0.331" transform="translate(69.217 65.654)"><path d="M381.771 95.4C380.573 94.8543 380.044 93.4405 380.59 92.2423 381.135 91.0441 382.549 90.5151 383.747 91.0608 384.942 91.6049 385.472 93.0121 384.933 94.209 384.389 95.411 382.973 95.9443 381.771 95.4002 381.771 95.4001 381.771 95.4001 381.771 95.4Z" id="Trazado_8491" fill="#F96430" transform="translate(-380.355 -90.842)"/></g><g id="Grupo_1738" opacity="0.331" transform="translate(70.386 67.095)"><path d="M381.235 92.593C381.55 91.8868 382.378 91.5696 383.084 91.8845 383.79 92.1994 384.107 93.0272 383.792 93.7334 383.477 94.4395 382.65 94.7567 381.943 94.4418 381.941 94.4406 381.938 94.4393 381.935 94.438 381.234 94.1199 380.922 93.2959 381.235 92.593Z" id="Trazado_8492" fill="#FFBB71" transform="translate(-381.112 -91.772)"/></g><g id="Grupo_1739" opacity="0.959" transform="translate(90.268 65.47)"><path d="M396.519 94.984C395.39 94.4831 394.88 93.1615 395.381 92.0321 395.882 90.9028 397.204 90.3933 398.333 90.8942 399.462 91.3951 399.972 92.7167 399.471 93.8461 399.469 93.8497 399.468 93.8534 399.466 93.857 398.963 94.9816 397.644 95.486 396.519 94.984Z" id="Trazado_8493" fill="#F96430" transform="translate(-395.209 -90.707)"/></g><g id="Grupo_1740" opacity="0.959" transform="translate(91.466 66.91)"><path d="M396.077 92.376C396.364 91.7609 397.095 91.4948 397.71 91.7816 398.325 92.0685 398.592 92.7998 398.305 93.4149 398.02 94.0244 397.299 94.2922 396.686 94.016 396.065 93.7309 395.793 92.9971 396.077 92.376Z" id="Trazado_8494" fill="#FFBB71" transform="translate(-395.965 -91.637)"/></g><g id="Grupo_1741" opacity="0.858" transform="translate(32.505 9.718)"><path d="M355.8 56.633C354.619 56.1071 354.088 54.7233 354.614 53.5422 355.139 52.3611 356.523 51.8299 357.704 52.3558 358.885 52.8816 359.417 54.2654 358.891 55.4466 358.89 55.4494 358.888 55.4522 358.887 55.455 358.359 56.632 356.978 57.1592 355.8 56.633Z" id="Trazado_8495" fill="#F96430" transform="translate(-354.424 -52.158)"/></g><g id="Grupo_1742" opacity="0.858" transform="translate(33.623 11.148)"><path d="M355.3 53.887C355.611 53.2183 356.405 52.9282 357.073 53.2388 357.742 53.5495 358.032 54.3434 357.721 55.012 357.413 55.6749 356.63 55.9669 355.963 55.667 355.289 55.3578 354.993 54.5617 355.3 53.887Z" id="Trazado_8496" fill="#FFBB71" transform="translate(-355.181 -53.089)"/></g><g id="Grupo_1743" opacity="0.772" transform="translate(46.136 37.422)"><path d="M365.329 75.713C364.207 75.2266 363.691 73.9223 364.177 72.7999 364.664 71.6774 365.968 71.1618 367.09 71.6483 368.213 72.1347 368.729 73.4389 368.242 74.5614 368.238 74.5713 368.233 74.5811 368.229 74.591 367.738 75.7011 366.44 76.2032 365.329 75.713Z" id="Trazado_8497" fill="#F96430" transform="translate(-364.045 -71.483)"/></g><g id="Grupo_1744" opacity="0.772" transform="translate(47.273 38.827)"><path d="M364.911 73.143C365.195 72.549 365.907 72.2977 366.501 72.5816 367.094 72.8655 367.346 73.5771 367.062 74.1711 366.782 74.7563 366.086 75.0104 365.495 74.743 364.894 74.4602 364.634 73.7462 364.911 73.143Z" id="Trazado_8498" fill="#FFBB71" transform="translate(-364.801 -72.413)"/></g><g id="Grupo_1745" opacity="0.484" transform="translate(83.453 78.123)"><path d="M391.46 103.058C390.496 102.644 390.049 101.527 390.463 100.563 390.877 99.5984 391.994 99.1522 392.959 99.566 393.923 99.9798 394.369 101.097 393.955 102.061 393.95 102.073 393.945 102.084 393.94 102.096 393.52 103.046 392.41 103.477 391.46 103.058Z" id="Trazado_8499" fill="#F96430" transform="translate(-390.367 -99.438)"/></g><g id="Grupo_1746" opacity="0.484" transform="translate(84.639 79.552)"><path d="M391.206 100.911C391.421 100.481 391.945 100.307 392.375 100.522 392.805 100.737 392.979 101.261 392.764 101.691 392.555 102.109 392.053 102.287 391.627 102.095 391.184 101.884 390.996 101.354 391.206 100.911Z" id="Trazado_8500" fill="#FFBB71" transform="translate(-391.123 -100.368)"/></g><g id="Grupo_1747" opacity="0.967" transform="translate(64.76 80.44)"><path d="M377.354 102.109C376.906 103.093 377.34 104.254 378.324 104.702 378.413 104.74 378.505 104.77 378.599 104.793L379.634 104.793C380.679 104.521 381.305 103.453 381.033 102.408 380.761 101.364 379.694 100.737 378.649 101.009 378.072 101.159 377.595 101.564 377.354 102.109Z" id="Trazado_8501" fill="#F96430" transform="translate(-377.179 -100.945)"/></g><g id="Grupo_1748" opacity="0.967" transform="translate(65.921 81.87)"><path d="M378.023 102.456C378.25 101.981 378.82 101.779 379.295 102.006 379.77 102.233 379.972 102.803 379.745 103.278 379.521 103.746 378.965 103.95 378.492 103.737 378.009 103.512 377.8 102.939 378.023 102.456Z" id="Trazado_8502" fill="#FFBB71" transform="translate(-377.935 -101.876)"/></g><g id="Grupo_1749" opacity="0.467" transform="translate(25.935 30.094)"><path d="M351.188 71.009C349.992 70.4691 349.46 69.0619 350 67.8659 350.54 66.6698 351.947 66.1379 353.143 66.6778 354.338 67.2173 354.87 68.6233 354.332 69.819 353.792 71.0158 352.385 71.5486 351.188 71.009 351.188 71.009 351.188 71.009 351.188 71.009Z" id="Trazado_8503" fill="#F96430" transform="translate(-349.786 -66.466)"/></g><g id="Grupo_1750" opacity="0.467" transform="translate(27.044 31.49)"><path d="M350.665 68.214C350.979 67.5184 351.798 67.2092 352.493 67.5234 353.189 67.8376 353.498 68.6562 353.184 69.3518 352.87 70.0468 352.052 70.3562 351.357 70.043 350.662 69.7281 350.352 68.9102 350.665 68.214Z" id="Trazado_8504" fill="#FFBB71" transform="translate(-350.542 -67.396)"/></g><g id="Grupo_1751" opacity="0.589" transform="translate(19.347 48)"><path d="M345.586 83.69C344.288 83.0977 343.716 81.5655 344.309 80.2677 344.901 78.9699 346.433 78.398 347.731 78.9903 349.024 79.5804 349.597 81.104 349.014 82.4 348.424 83.7026 346.89 84.2805 345.588 83.6908 345.587 83.6905 345.587 83.6903 345.586 83.69Z" id="Trazado_8505" fill="#F96430" transform="translate(-344.053 -78.749)"/></g><g id="Grupo_1752" opacity="0.589" transform="translate(20.51 49.419)"><path d="M344.949 80.615C345.308 79.8075 346.253 79.4437 347.061 79.8026 347.868 80.1614 348.232 81.1069 347.873 81.9145 347.514 82.722 346.569 83.0857 345.761 82.7269 345.759 82.7259 345.757 82.725 345.755 82.724 344.952 82.3627 344.591 81.42 344.949 80.615Z" id="Trazado_8506" fill="#FFBB71" transform="translate(-344.809 -79.679)"/></g><g id="Grupo_1753" opacity="0.453" transform="translate(53.209 62.597)"><path d="M370.357 93C369.236 92.4929 368.739 91.1735 369.246 90.0529 369.753 88.9324 371.073 88.4351 372.193 88.9422 373.312 89.4485 373.81 90.7651 373.306 91.885 372.801 93.0069 371.481 93.5066 370.359 93.0011 370.359 93.0007 370.358 93.0004 370.357 93Z" id="Trazado_8507" fill="#F96430" transform="translate(-369.041 -88.738)"/></g><g id="Grupo_1754" opacity="0.453" transform="translate(54.355 64.033)"><path d="M369.906 90.4C370.187 89.7783 370.918 89.5019 371.54 89.7825 372.161 90.0632 372.438 90.7946 372.157 91.4163 371.877 92.0377 371.146 92.3143 370.524 92.034 369.904 91.7515 369.628 91.022 369.906 90.4Z" id="Trazado_8508" fill="#FFBB71" transform="translate(-369.797 -89.668)"/></g><g id="Grupo_1755" opacity="0.716" transform="translate(66.309 54.184)"><path d="M379.551 87.094C378.463 86.6073 377.976 85.3308 378.462 84.2429 378.949 83.155 380.225 82.6676 381.313 83.1542 382.401 83.6409 382.889 84.9174 382.402 86.0053 382.401 86.0069 382.401 86.0084 382.4 86.01 381.913 87.0959 380.638 87.5814 379.552 87.0944 379.552 87.0942 379.551 87.0941 379.551 87.094Z" id="Trazado_8509" fill="#F96430" transform="translate(-378.286 -82.969)"/></g><g id="Grupo_1756" opacity="0.716" transform="translate(67.473 55.611)"><path d="M379.145 84.589C379.413 84.0102 380.1 83.7582 380.678 84.0262 381.257 84.2943 381.509 84.9808 381.241 85.5597 380.975 86.1337 380.297 86.3871 379.72 86.128 379.137 85.8613 378.88 85.1728 379.145 84.589Z" id="Trazado_8510" fill="#FFBB71" transform="translate(-379.042 -83.899)"/></g><g id="Grupo_1757" opacity="0.47" transform="translate(30.511 80.932)"><path d="M353.185 102.461C352.858 103.182 352.984 104.027 353.508 104.621L356.424 104.621C356.574 104.462 356.698 104.281 356.79 104.083 357.29 103.112 356.909 101.92 355.939 101.42 354.968 100.92 353.776 101.301 353.275 102.271 353.244 102.333 353.215 102.396 353.19 102.461Z" id="Trazado_8511" fill="#F96430" transform="translate(-353.005 -101.265)"/></g><g id="Grupo_1758" opacity="0.307" transform="translate(19.809 61.841)"><path d="M346.536 91.847C345.563 91.4382 345.106 90.318 345.514 89.345 345.923 88.372 347.043 87.9145 348.016 88.3233 348.989 88.7321 349.447 89.8523 349.038 90.8253 349.032 90.84 349.026 90.8545 349.019 90.869 348.603 91.8243 347.492 92.262 346.536 91.847Z" id="Trazado_8512" fill="#F96430" transform="translate(-345.449 -88.202)"/></g><g id="Grupo_1759" opacity="0.307" transform="translate(22.656 63.275)"><path d="M346.291 89.687C346.514 89.2631 347.038 89.1 347.462 89.3227 347.886 89.5454 348.049 90.0696 347.826 90.4935 347.613 90.8991 347.121 91.0689 346.703 90.881 346.263 90.6624 346.079 90.1307 346.291 89.687Z" id="Trazado_8513" fill="#FFBB71" transform="translate(-346.206 -89.132)"/></g><g id="Grupo_1760" opacity="0.736" transform="translate(44.786 39.492)"><path d="M364.29 76.9C363.227 76.4441 362.735 75.2129 363.191 74.1501 363.647 73.0873 364.878 72.5952 365.941 73.0512 367.004 73.5071 367.496 74.7382 367.04 75.8011 367.035 75.8124 367.03 75.8237 367.025 75.835 366.564 76.8842 365.34 77.3612 364.291 76.9003 364.29 76.9002 364.29 76.9001 364.29 76.9Z" id="Trazado_8514" fill="#F96430" transform="translate(-363.086 -72.898)"/></g><g id="Grupo_1761" opacity="0.736" transform="translate(45.921 40.9)"><path d="M363.943 74.487C364.204 73.9625 364.841 73.7491 365.366 74.0103 365.89 74.2716 366.104 74.9086 365.842 75.4331 365.588 75.9436 364.976 76.1617 364.456 75.927 363.918 75.6702 363.688 75.0264 363.943 74.487Z" id="Trazado_8515" fill="#FFBB71" transform="translate(-363.842 -73.828)"/></g><g id="Grupo_1762" opacity="0.402" transform="translate(55.75 74.921)"><path d="M371.909 101.043C370.921 100.636 370.451 99.5055 370.858 98.5179 371.265 97.5304 372.395 97.0598 373.383 97.4669 374.37 97.8739 374.841 99.0044 374.434 99.9919 374.426 100.011 374.418 100.031 374.409 100.05 373.991 101.013 372.874 101.457 371.909 101.043Z" id="Trazado_8516" fill="#F96430" transform="translate(-370.816 -97.355)"/></g><g id="Grupo_1763" opacity="0.402" transform="translate(56.899 76.351)"><path d="M371.661 98.857C371.89 98.4272 372.425 98.2648 372.854 98.4941 373.284 98.7234 373.447 99.2577 373.217 99.6875 372.999 100.097 372.499 100.267 372.076 100.076 371.625 99.8538 371.439 99.3082 371.661 98.857Z" id="Trazado_8517" fill="#FFBB71" transform="translate(-371.572 -98.285)"/></g><g id="Grupo_1764" opacity="0.591" transform="translate(36.424 57.185)"><path d="M358.686 89.838C357.426 89.2643 356.869 87.7777 357.443 86.5176 358.017 85.2574 359.503 84.701 360.764 85.2747 362.02 85.8465 362.577 87.3263 362.011 88.585 361.438 89.8481 359.95 90.4087 358.686 89.838Z" id="Trazado_8518" fill="#F96430" transform="translate(-357.199 -85.043)"/></g><g id="Grupo_1765" opacity="0.591" transform="translate(37.548 58.616)"><path d="M358.088 86.864C358.429 86.0959 359.329 85.7499 360.097 86.0913 360.865 86.4327 361.211 87.3322 360.87 88.1003 360.528 88.8684 359.629 89.2144 358.861 88.873 358.858 88.872 358.856 88.871 358.854 88.87 358.089 88.5269 357.747 87.6295 358.088 86.864Z" id="Trazado_8519" fill="#FFBB71" transform="translate(-357.955 -85.973)"/></g><g id="Grupo_1766" opacity="0.793" transform="translate(33.008 46.874)"><path d="M356.017 82.09C354.919 81.6185 354.411 80.3459 354.882 79.2478 355.354 78.1496 356.626 77.6416 357.725 78.1131 358.823 78.5846 359.331 79.8571 358.859 80.9553 358.854 80.9669 358.849 80.9785 358.844 80.99 358.369 82.0738 357.105 82.567 356.021 82.0916 356.019 82.0911 356.018 82.0905 356.017 82.09Z" id="Trazado_8520" fill="#F96430" transform="translate(-354.773 -77.959)"/></g><g id="Grupo_1767" opacity="0.793" transform="translate(34.126 48.29)"><path d="M355.636 79.592C355.914 79.0332 356.592 78.8054 357.151 79.0832 357.71 79.361 357.938 80.0393 357.66 80.5981 357.389 81.1422 356.737 81.375 356.183 81.125 355.61 80.8515 355.366 80.1665 355.636 79.592Z" id="Trazado_8521" fill="#FFBB71" transform="translate(-355.529 -78.889)"/></g><g id="Grupo_1768" opacity="0.549" transform="translate(47.598 41.172)"><path d="M366.167 77.755C365.175 77.3417 364.706 76.2024 365.119 75.2103 365.532 74.2182 366.672 73.749 367.664 74.1623 368.656 74.5757 369.125 75.715 368.712 76.7071 368.705 76.7231 368.698 76.7391 368.691 76.755 368.27 77.728 367.14 78.1757 366.167 77.755Z" id="Trazado_8522" fill="#F96430" transform="translate(-365.063 -74.044)"/></g><g id="Grupo_1769" opacity="0.549" transform="translate(48.737 42.581)"><path d="M365.909 75.551C366.141 75.1113 366.685 74.9426 367.125 75.1744 367.565 75.4061 367.733 75.9504 367.501 76.3902 367.279 76.8118 366.767 76.9871 366.333 76.79 365.875 76.5642 365.685 76.0103 365.909 75.551Z" id="Trazado_8523" fill="#FFBB71" transform="translate(-365.82 -74.974)"/></g><g id="Grupo_1770" opacity="0.337" transform="translate(62.438 42.818)"><path d="M377 79.839C375.776 79.2882 375.229 77.8491 375.78 76.6247 376.331 75.4003 377.77 74.8542 378.995 75.405 380.219 75.9558 380.765 77.3949 380.214 78.6193 380.214 78.6195 380.214 78.6198 380.214 78.62 379.663 79.844 378.224 80.3897 377 79.839Z" id="Trazado_8524" fill="#F96430" transform="translate(-375.57 -75.19)"/></g><g id="Grupo_1771" opacity="0.337" transform="translate(63.597 44.23)"><path d="M376.453 76.97C376.78 76.248 377.63 75.9275 378.352 76.2542 379.074 76.581 379.394 77.4312 379.068 78.1532 378.741 78.8744 377.893 79.1951 377.171 78.87 376.45 78.5421 376.129 77.693 376.453 76.97Z" id="Trazado_8525" fill="#FFBB71" transform="translate(-376.326 -76.12)"/></g><g id="Grupo_1772" opacity="0.462" transform="translate(64.594 65.777)"><path d="M378.349 95.127C377.231 94.6432 376.718 93.345 377.202 92.2274 377.685 91.1099 378.984 90.5962 380.101 91.08 381.219 91.5638 381.732 92.862 381.249 93.9796 381.244 93.9891 381.24 93.9986 381.236 94.008 380.748 95.1141 379.456 95.6153 378.35 95.1273 378.35 95.1272 378.349 95.1271 378.349 95.127Z" id="Trazado_8526" fill="#F96430" transform="translate(-377.077 -90.916)"/></g><g id="Grupo_1773" opacity="0.462" transform="translate(65.756 67.218)"><path d="M377.944 92.571C378.23 91.9871 378.935 91.7453 379.518 92.031 380.102 92.3166 380.344 93.0216 380.059 93.6055 379.779 94.1766 379.097 94.4226 378.517 94.161 377.922 93.8782 377.666 93.1684 377.944 92.571Z" id="Trazado_8527" fill="#FFBB71" transform="translate(-377.833 -91.847)"/></g><g id="Grupo_1774" opacity="0.907" transform="translate(55.245 27.47)"><path d="M371.622 68.471C370.609 68.0314 370.144 66.8536 370.583 65.8402 371.023 64.8269 372.201 64.3618 373.214 64.8014 374.227 65.2411 374.692 66.4189 374.253 67.4322 374.249 67.4418 374.244 67.4514 374.24 67.461 373.795 68.4621 372.624 68.914 371.622 68.471Z" id="Trazado_8528" fill="#F96430" transform="translate(-370.464 -64.658)"/></g><g id="Grupo_1775" opacity="0.907" transform="translate(56.393 28.862)"><path d="M371.312 66.188C371.548 65.7033 372.132 65.5016 372.617 65.7374 373.101 65.9732 373.303 66.5573 373.067 67.042 372.836 67.5165 372.27 67.7216 371.789 67.505 371.295 67.2716 371.082 66.6835 371.312 66.188Z" id="Trazado_8529" fill="#FFBB71" transform="translate(-371.22 -65.588)"/></g><g id="Grupo_1776" opacity="0.477" transform="translate(47.608 43.574)"><path d="M366.2 79.43C365.207 79.0007 364.75 77.8477 365.179 76.8545 365.608 75.8614 366.761 75.4043 367.754 75.8336 368.748 76.2628 369.205 77.4159 368.775 78.409 368.772 78.4177 368.768 78.4264 368.764 78.435 368.331 79.4176 367.184 79.8633 366.201 79.4306 366.201 79.4304 366.2 79.4302 366.2 79.43Z" id="Trazado_8530" fill="#F96430" transform="translate(-365.072 -75.69)"/></g><g id="Grupo_1777" opacity="0.477" transform="translate(48.746 44.986)"><path d="M365.916 77.2C366.145 76.7372 366.706 76.5479 367.169 76.777 367.632 77.0061 367.821 77.567 367.592 78.0298 367.368 78.481 366.828 78.6743 366.369 78.467 365.894 78.242 365.692 77.675 365.916 77.2Z" id="Trazado_8531" fill="#FFBB71" transform="translate(-365.828 -76.62)"/></g><g id="Grupo_1778" opacity="0.71" transform="translate(44.197 11.879)"><path d="M364.976 53.564C363.685 53.5953 362.664 54.6671 362.695 55.958 362.727 57.2489 363.799 58.2699 365.089 58.2386 366.336 58.2084 367.34 57.2048 367.37 55.958Z" id="Trazado_8532" fill="#F96430" transform="translate(-362.682 -53.564)"/></g><g id="Grupo_1779" opacity="0.71" transform="translate(45.332 13.301)"><path d="M363.561 55.3C363.877 54.628 364.679 54.3397 365.351 54.6561 366.023 54.9726 366.311 55.7739 365.995 56.4459 365.682 57.1094 364.896 57.4003 364.227 57.1 363.546 56.7877 363.248 55.9827 363.56 55.302 363.56 55.3014 363.561 55.3007 363.561 55.3Z" id="Trazado_8533" fill="#FFBB71" transform="translate(-363.439 -54.489)"/></g><g id="Grupo_1780" opacity="0.447" transform="translate(54.284 33.694)"><path d="M370.965 72.831C369.926 72.3861 369.444 71.1828 369.889 70.1436 370.334 69.1043 371.537 68.6225 372.576 69.0674 373.616 69.5124 374.097 70.7156 373.652 71.7549 373.647 71.7666 373.642 71.7783 373.637 71.79 373.186 72.8152 371.99 73.2812 370.965 72.831Z" id="Trazado_8534" fill="#F96430" transform="translate(-369.788 -68.924)"/></g><g id="Grupo_1781" opacity="0.447" transform="translate(55.432 35.094)"><path d="M370.642 70.486C370.893 69.9854 371.502 69.783 372.003 70.034 372.504 70.285 372.706 70.8943 372.455 71.3949 372.211 71.8809 371.628 72.0883 371.132 71.865 370.616 71.6194 370.397 71.0021 370.642 70.486Z" id="Trazado_8535" fill="#FFBB71" transform="translate(-370.545 -69.854)"/></g><g id="Grupo_1782" opacity="0.693" transform="translate(105.968 74.21)"><path d="M407.975 96.893C406.786 97.4672 406.288 98.8961 406.863 100.085 407.437 101.273 408.866 101.771 410.054 101.197 410.539 100.963 410.931 100.571 411.166 100.086Z" id="Trazado_8536" fill="#F96430" transform="translate(-406.624 -96.893)"/></g><g id="Grupo_1783" opacity="0.863" transform="translate(89.432 83.146)"><path d="M394.59 103.77C394.579 103.795 394.575 103.822 394.564 103.847L397.792 103.847C397.642 103.406 397.316 103.047 396.892 102.854 396.003 102.472 394.973 102.882 394.59 103.77Z" id="Trazado_8537" fill="#F96430" transform="translate(-394.564 -102.706)"/></g><g id="Grupo_1784" opacity="0.495" transform="translate(14.582 68.135)"><path d="M342.167 96.955C341.103 96.4929 340.615 95.256 341.078 94.1922 341.54 93.1284 342.777 92.6407 343.84 93.1027 344.904 93.5648 345.392 94.8018 344.93 95.8656 344.926 95.8737 344.923 95.8819 344.919 95.89 344.453 96.9439 343.221 97.4206 342.167 96.955Z" id="Trazado_8538" fill="#F96430" transform="translate(-340.954 -92.941)"/></g><g id="Grupo_1785" opacity="0.495" transform="translate(15.745 69.565)"><path d="M341.811 94.535C342.073 94.002 342.717 93.782 343.25 94.0436 343.783 94.3052 344.003 94.9493 343.741 95.4823 343.486 96.0027 342.864 96.2268 342.335 95.989 341.792 95.7294 341.558 95.0814 341.811 94.535Z" id="Trazado_8539" fill="#FFBB71" transform="translate(-341.71 -93.871)"/></g><g id="Grupo_1786" opacity="0.587" transform="translate(8.88 58.202)"><path d="M338.321 89.343C337.349 88.9393 336.888 87.824 337.292 86.8518 337.695 85.8796 338.811 85.4188 339.783 85.8224 340.755 86.2261 341.216 87.3415 340.812 88.3137 340.805 88.3309 340.798 88.348 340.79 88.365 340.378 89.3168 339.273 89.7546 338.321 89.343Z" id="Trazado_8540" fill="#F96430" transform="translate(-337.244 -85.709)"/></g><g id="Grupo_1787" opacity="0.587" transform="translate(10.043 59.632)"><path d="M338.087 87.194C338.311 86.7782 338.829 86.6225 339.245 86.8463 339.661 87.0701 339.817 87.5886 339.593 88.0044 339.38 88.4003 338.896 88.5635 338.487 88.378 338.05 88.1614 337.871 87.6314 338.087 87.194Z" id="Trazado_8541" fill="#FFBB71" transform="translate(-338.001 -86.639)"/></g></g><g id="Grupo_1836" transform="translate(35.589 38.603)"><g id="Grupo_1794" transform="translate(79.193 48.637)"><g id="Grupo_1789"><path d="M412.734 97.75C407.776 99.3436 403.414 102.397 400.22 106.51L420.439 106.51 420.439 105.457Z" id="Trazado_8542" fill="#E52C00" transform="translate(-400.22 -97.75)"/></g><g id="Grupo_1790" transform="translate(1.934 1.204)"><path d="M413.26 98.533C408.68 99.8492 404.585 102.476 401.478 106.089L419.763 106.089 419.763 105.036Z" id="Trazado_8543" fill="#F84628" transform="translate(-401.478 -98.533)"/></g><g id="Grupo_1791" transform="translate(3.96 2.424)"><path d="M413.772 99.327C409.592 100.369 405.789 102.564 402.796 105.662L419.054 105.662 419.054 104.609Z" id="Trazado_8544" fill="#F84628" transform="translate(-402.796 -99.327)"/></g><g id="Grupo_1792" transform="translate(4.489 3.009)"><path d="M414.187 99.722C413.274 99.6579 412.357 99.7839 411.495 100.092 408.345 101.235 405.49 103.068 403.14 105.457L418.87 105.457 418.87 104.4Z" id="Trazado_8545" fill="#F2300A" transform="translate(-403.14 -99.707)"/></g><g id="Grupo_1793" transform="translate(6.73 4.999)"><path d="M404.6 104.762 417.2 104.762C416.811 103.398 415.998 102.192 414.879 101.32 413.577 100.415 408.978 101.406 404.6 104.762Z" id="Trazado_8546" fill="#DB3400" transform="translate(-404.598 -101.002)"/></g></g><g id="Grupo_1835"><g id="Grupo_1795"><path d="M351.24 80.905C357.411 67.9636 372.904 62.4749 385.846 68.6457 398.787 74.8165 404.276 90.31 398.105 103.251 391.934 116.193 376.441 121.681 363.5 115.511 350.558 109.341 345.069 93.8473 351.24 80.9057 351.24 80.9055 351.24 80.9052 351.24 80.905Z" id="Trazado_8547" fill="#E52C00" transform="translate(-348.706 -66.112)"/></g><g id="Grupo_1796" transform="translate(1.507 1.506)"><path d="M384.675 69.472C396.869 75.287 402.041 89.8866 396.226 102.081 390.411 114.276 375.812 119.447 363.617 113.632 351.423 107.817 346.251 93.2176 352.066 81.0231 357.892 68.8407 372.48 63.6732 384.675 69.4721Z" id="Trazado_8548" fill="#F84628" transform="translate(-349.686 -67.092)"/></g><g id="Grupo_1797" transform="translate(3.005 3.005)"><path d="M383.506 70.3C394.954 75.7583 399.81 89.4636 394.351 100.912 388.893 112.36 375.188 117.215 363.74 111.757 352.292 106.299 347.436 92.5933 352.894 81.1453 352.895 81.1449 352.895 81.1444 352.895 81.144 358.364 69.7079 372.058 64.8568 383.506 70.3Z" id="Trazado_8549" fill="#F84628" transform="translate(-350.661 -68.067)"/></g><g id="Grupo_1798" transform="translate(23.974 14.072)"><path d="M375.709 77.927C378.029 74.9279 382.34 74.3772 385.339 76.6968 386.374 77.4967 387.158 78.5754 387.6 79.806 391.698 91.5231 385.522 104.344 373.805 108.442 373.649 108.496 373.493 108.549 373.337 108.6 369.724 109.786 365.834 107.818 364.649 104.205 364.256 103.008 364.199 101.727 364.484 100.5L366.833 90.343C367.059 89.3658 367.495 88.4498 368.112 87.659Z" id="Trazado_8550" fill="#F2300A" transform="translate(-364.301 -75.266)"/></g><g id="Grupo_1799" transform="translate(3.397 4.286)"><path d="M370.664 92.161 364.257 100.376C361.92 103.375 357.593 103.912 354.594 101.575 353.602 100.801 352.84 99.7701 352.392 98.594 347.947 86.9389 353.792 73.8873 365.447 69.4424 365.57 69.3955 365.693 69.3497 365.817 69.305 369.403 68.0674 373.313 69.9711 374.551 73.5572 374.975 74.7853 375.042 76.1084 374.744 77.373L371.944 89.479C371.717 90.4554 371.28 91.3706 370.664 92.161Z" id="Trazado_8551" fill="#F2300A" transform="translate(-350.915 -68.9)"/></g><g id="Grupo_1801" opacity="0.7" transform="translate(24.399 21.479)"><g id="Grupo_1800"><path d="M364.577 87.86C364.577 87.86 367.101 88.095 367.007 92.06 366.913 96.025 367.719 97.241 367.719 97.241 368.369 95.7354 368.882 94.1744 369.252 92.577 369.552 90.785 370.165 90.662 372.731 90.502 375.297 90.342 377.363 90.359 377.363 90.359 377.363 90.359 372.943 88.895 372.463 87.583 371.983 86.271 371.315 86.508 371.837 84.544 372.432 82.9274 373.291 81.4203 374.378 80.084 374.378 80.084 370.558 84.076 368.762 84.049 367.935 83.9916 367.103 84.059 366.296 84.249Z" id="Trazado_8552" fill="#FFA750" transform="translate(-364.577 -80.084)"/></g></g><g id="Grupo_1803" opacity="0.7" transform="translate(14.408 16.744)"><g id="Grupo_1802"><path d="M368.069 89.515C368.069 89.515 366.298 87.703 363.274 90.271 360.25 92.839 358.8 92.98 358.8 92.98 359.56 91.5275 360.45 90.1466 361.458 88.854 362.658 87.49 362.373 86.937 360.882 84.843 359.391 82.749 358.076 81.154 358.076 81.154 358.076 81.154 361.996 83.666 363.317 83.214 364.638 82.762 364.876 83.429 366.073 81.787 366.955 80.3052 367.586 78.6877 367.94 77 367.94 77 367.24 82.482 368.395 83.858 368.96 84.4663 369.43 85.156 369.789 85.904Z" id="Trazado_8553" fill="#FFA750" transform="translate(-358.078 -77.004)"/></g></g><g id="Grupo_1806" opacity="0.7" transform="translate(15.119 27.226)"><g id="Grupo_1804" transform="translate(4.658 0.541)"><path d="M366.9 84.174 362.466 93.474C362.766 93.551 361.459 100.141 361.576 99.855 365.953 89.079 364.108 100.155 364.72 100.8 365.007 97.324 366.463 88.216 368.039 84.72Z" id="Trazado_8554" fill="#FE924A" transform="translate(-361.571 -84.174)"/></g><g id="Grupo_1805"><path d="M367.393 83.822C365.863 86.892 360.775 93.216 358.541 95.466 359.128 95.992 365.193 88.333 359.865 99.066 360.245 99.129 363.725 93.566 364.097 93.656L368.531 84.356Z" id="Trazado_8555" fill="#FE924A" transform="translate(-358.541 -83.822)"/></g></g><g id="Grupo_1809" opacity="0.7" transform="translate(23.968 11.142)"><g id="Grupo_1807"><path d="M365.438 89.984 369.87 80.684C369.57 80.609 370.877 74.017 370.762 74.304 366.384 85.08 368.228 74.004 367.617 73.357 367.328 76.834 365.875 85.943 364.298 89.439Z" id="Trazado_8556" fill="#FE924A" transform="translate(-364.297 -73.36)"/></g><g id="Grupo_1808" transform="translate(1.141 1.917)"><path d="M366.175 89.857C367.705 86.785 372.793 80.463 375.027 78.212 374.44 77.686 368.375 85.345 373.703 74.612 373.322 74.551 369.843 80.112 369.471 80.022L365.039 89.322Z" id="Trazado_8557" fill="#FE924A" transform="translate(-365.039 -74.607)"/></g></g><g id="Grupo_1810" transform="translate(25.767 16.63)"><path d="M365.907 101.342C365.746 101.68 364.182 104.669 368.131 106.83 372.08 108.991 383.157 104.035 386.173 95.099 389.189 86.163 385.736 77.74 383.546 77.111 381.356 76.482 377.298 77.451 376.519 80.538 375.74 83.625 379.489 89.25 377.355 93.505 375.221 97.76 366.532 99.859 366.067 101.005Z" id="Trazado_8558" fill="#DB3400" transform="translate(-365.467 -76.93)"/></g><g id="Grupo_1811" transform="translate(4.225 6.296)"><path d="M361.967 99.486C361.806 99.824 360.467 102.92 356.302 101.212 352.137 99.504 349.015 87.778 354.059 79.812 359.103 71.846 367.822 69.225 369.689 70.53 371.556 71.835 373.358 75.598 371.452 78.147 369.546 80.696 362.812 81.323 360.852 85.661 358.892 89.999 362.727 98.069 362.131 99.151Z" id="Trazado_8559" fill="#DB3400" transform="translate(-351.454 -70.207)"/></g><g id="Grupo_1817" transform="translate(28.252 17.755)"><g id="Grupo_1812" transform="matrix(1 0 0 1 0 23.239)"><path d="M367.117 92.919C367.117 92.919 366.823 96.584 367.986 97.483 369.149 98.382 369.895 98.116 370.323 97.076 370.751 96.036 367.255 92.776 367.255 92.776Z" id="Trazado_8560" fill="#E24500" transform="translate(-367.083 -92.778)"/></g><g id="Grupo_1813" transform="translate(5.87 20.819)"><path d="M370.9 91.392C370.9 91.392 372.228 94.819 373.666 95.125 375.104 95.431 375.666 94.865 375.594 93.741 375.522 92.617 370.964 91.204 370.964 91.204Z" id="Trazado_8561" fill="#E24500" transform="translate(-370.902 -91.204)"/></g><g id="Grupo_1814" transform="translate(10.069 15.887)"><path d="M373.659 88.441C373.659 88.441 376.345 90.95 377.771 90.599 379.197 90.248 379.457 89.499 378.907 88.516 378.357 87.533 373.633 88.244 373.633 88.244Z" id="Trazado_8562" fill="#E24500" transform="translate(-373.633 -87.996)"/></g><g id="Grupo_1815" transform="translate(11.758 7.971)"><path d="M374.841 85.159C374.841 85.159 378.351 86.25 379.484 85.316 380.617 84.382 380.522 83.591 379.601 82.945 378.68 82.299 374.732 85 374.732 85Z" id="Trazado_8563" fill="#E24500" transform="translate(-374.732 -82.846)"/></g><g id="Grupo_1816" transform="translate(10.665 0)"><path d="M374.19 81.729C374.19 81.729 377.824 81.188 378.439 79.852 379.054 78.516 378.624 77.852 377.514 77.668 376.404 77.484 374.021 81.63 374.021 81.63Z" id="Trazado_8564" fill="#E24500" transform="translate(-374.021 -77.661)"/></g></g><g id="Grupo_1823" transform="translate(5.084 7.398)"><g id="Grupo_1818" transform="translate(1.805 25.746)"><path d="M358.693 88.087C358.693 88.087 356.032 90.622 354.602 90.287 353.172 89.952 352.902 89.202 353.446 88.215 353.99 87.228 358.717 87.892 358.717 87.892Z" id="Trazado_8565" fill="#E24500" transform="translate(-353.187 -87.672)"/></g><g id="Grupo_1819" transform="matrix(1 0 0 1 0 17.86)"><path d="M357.495 84.812C357.495 84.812 353.995 85.939 352.854 85.012 351.713 84.085 351.799 83.298 352.716 82.645 353.633 81.992 357.602 84.645 357.602 84.645Z" id="Trazado_8566" fill="#E24500" transform="translate(-352.013 -82.542)"/></g><g id="Grupo_1820" transform="translate(1.897 9.869)"><path d="M357.8 81.381C357.8 81.381 354.16 80.874 353.534 79.544 352.908 78.214 353.334 77.544 354.434 77.35 355.534 77.156 357.965 81.278 357.965 81.278Z" id="Trazado_8567" fill="#E24500" transform="translate(-353.247 -77.344)"/></g><g id="Grupo_1821" transform="translate(6.994 3.536)"><path d="M359.607 78.411C359.607 78.411 356.549 76.373 356.563 74.903 356.577 73.433 357.249 73.011 358.331 73.32 359.413 73.629 359.804 78.392 359.804 78.392Z" id="Trazado_8568" fill="#E24500" transform="translate(-356.563 -73.224)"/></g><g id="Grupo_1822" transform="translate(14.165 0)"><path d="M362.581 76.536C362.581 76.536 360.713 73.371 361.365 72.053 362.017 70.735 362.805 70.646 363.645 71.395 364.485 72.144 362.766 76.603 362.766 76.603Z" id="Trazado_8569" fill="#E24500" transform="translate(-361.227 -70.924)"/></g></g><g id="Grupo_1825" opacity="0.7" transform="translate(18.063 17.973)"><g id="Grupo_1824"><path d="M366.183 86.373C366.695 85.3 363.499 78.182 364.538 77.815 365.577 77.448 367.284 85.598 368.357 86.115 369.43 86.632 368.32 85.838 368.689 86.877 369.058 87.916 377.982 90.686 377.47 91.759 376.958 92.832 369.29 87.931 368.251 88.299 367.212 88.667 364.508 96.949 363.435 96.437 362.362 95.925 360.843 90.826 360.474 89.787 360.105 88.748 365.671 87.448 366.183 86.373Z" id="Trazado_8570" fill="#FFD252" transform="translate(-360.456 -77.803)"/></g></g><g id="Grupo_1826" transform="translate(11.727 44.71)"><path d="M376.2 99.908C376.2 99.908 369.251 100.986 365.453 100.108 361.655 99.23 356.331 96.034 356.331 96.034 356.874 95.8291 357.394 95.567 357.881 95.252 358.238 94.938 357.67 95.981 358.854 96.546 360.038 97.111 360.311 96.826 360.771 96.006 361.231 95.186 361.046 97.314 361.95 97.883 362.854 98.452 363.802 96.899 363.99 96.504 364.178 96.109 363.981 98.991 364.92 99.196 365.859 99.401 366.61 97.685 366.32 96.996 366.03 96.307 366.99 98.496 367.808 98.95 368.626 99.404 369.388 98.39 369.038 97.531 368.688 96.672 369.759 98.775 370.967 99.144 372.696 99.4947 374.443 99.7497 376.2 99.908Z" id="Trazado_8571" fill="#F6A995" transform="translate(-356.334 -95.196)"/></g><g id="Grupo_1827" transform="translate(29.189 44.645)"><path d="M367.741 95.451C367.847 95.1005 368.217 94.9021 368.567 95.008 368.918 95.1139 369.116 95.4839 369.01 95.8344 368.904 96.1849 368.534 96.3833 368.184 96.2774 368.152 96.2677 368.12 96.2555 368.09 96.241 367.777 96.1178 367.621 95.7655 367.741 95.451Z" id="Trazado_8572" fill="#FFD3CA" transform="translate(-367.693 -95.153)"/></g><g id="Grupo_1828" transform="translate(36.434 41.198)"><path d="M372.454 93.209C372.561 92.8582 372.932 92.6603 373.283 92.7671 373.633 92.8738 373.831 93.2448 373.724 93.5956 373.618 93.9464 373.247 94.1443 372.896 94.0375 372.863 94.0275 372.831 94.015 372.8 94 372.488 93.8752 372.334 93.5229 372.454 93.209Z" id="Trazado_8573" fill="#F6A995" transform="translate(-372.406 -92.911)"/></g><g id="Grupo_1829" transform="translate(7.948 33.998)"><path d="M353.924 88.527C354.029 88.1763 354.399 87.9775 354.75 88.0829 355.1 88.1883 355.299 88.558 355.194 88.9087 355.089 89.2593 354.719 89.4582 354.368 89.3528 354.336 89.343 354.304 89.3307 354.273 89.316 353.96 89.1928 353.805 88.8412 353.924 88.527Z" id="Trazado_8574" fill="#FFD3CA" transform="translate(-353.876 -88.227)"/></g><g id="Grupo_1830" transform="translate(7.434 17.847)"><path d="M353.59 78.019C353.695 77.6677 354.065 77.4681 354.416 77.5732 354.768 77.6783 354.967 78.0483 354.862 78.3997 354.757 78.751 354.387 78.9506 354.036 78.8455 354.003 78.8357 353.972 78.8236 353.941 78.809 353.628 78.6857 353.472 78.334 353.59 78.019Z" id="Trazado_8575" fill="#F6A995" transform="translate(-353.542 -77.721)"/></g><g id="Grupo_1831" transform="translate(21.767 25.303)"><path d="M362.913 82.871C363.018 82.5203 363.388 82.3215 363.739 82.4269 364.089 82.5323 364.288 82.902 364.183 83.2527 364.077 83.6033 363.708 83.8022 363.357 83.6968 363.325 83.687 363.293 83.6747 363.262 83.66 362.949 83.5372 362.793 83.1852 362.913 82.871Z" id="Trazado_8576" fill="#F6A995" transform="translate(-362.865 -82.571)"/></g><g id="Grupo_1832" transform="translate(23.421 2.682)"><path d="M363.988 68.156C364.093 67.8045 364.462 67.6044 364.814 67.7091 365.165 67.8137 365.365 68.1835 365.261 68.5349 365.156 68.8864 364.786 69.0865 364.435 68.9819 364.402 68.9721 364.37 68.9597 364.339 68.945 364.026 68.8222 363.87 68.4707 363.988 68.156Z" id="Trazado_8577" fill="#F6A995" transform="translate(-363.941 -67.856)"/></g><g id="Grupo_1833" transform="translate(45.143 13.144)"><path d="M378.119 74.96C378.224 74.6086 378.594 74.4087 378.945 74.5136 379.297 74.6185 379.496 74.9884 379.392 75.3398 379.287 75.6912 378.917 75.891 378.565 75.7861 378.532 75.7763 378.5 75.7639 378.469 75.749 378.156 75.6258 378 75.2744 378.119 74.96Z" id="Trazado_8578" fill="#F6A995" transform="translate(-378.071 -74.662)"/></g><g id="Grupo_1834" transform="translate(41.815 19.129)"><path d="M375.954 78.853C376.06 78.5031 376.43 78.3056 376.78 78.4118 377.13 78.5179 377.327 78.8876 377.221 79.2375 377.115 79.5873 376.745 79.7849 376.395 79.6787 376.364 79.6691 376.333 79.6572 376.303 79.643 375.989 79.5207 375.833 79.1675 375.954 78.853Z" id="Trazado_8579" fill="#F6A995" transform="translate(-375.906 -78.555)"/></g></g></g><g id="Grupo_1856" transform="translate(31.659 32.755)"><g id="Grupo_1837" opacity="0.779" transform="translate(59.981 51.715)"><path d="M382.656 96.068C382.708 95.9815 382.821 95.9538 382.907 96.0062 382.994 96.0585 383.021 96.171 382.969 96.2575 382.921 96.3379 382.819 96.3684 382.734 96.328 382.641 96.2774 382.606 96.1614 382.656 96.068Z" id="Trazado_8580" fill="#FFFFFF" transform="translate(-382.635 -95.948)"/></g><g id="Grupo_1838" opacity="0.422" transform="translate(34.143 58.926)"><path d="M365.91 101.093C366.109 100.766 366.536 100.663 366.863 100.863 367.189 101.062 367.292 101.489 367.093 101.815 366.908 102.118 366.524 102.232 366.204 102.08 365.851 101.888 365.72 101.447 365.91 101.093Z" id="Trazado_8581" fill="#FFFFFF" transform="translate(-365.828 -100.638)"/></g><g id="Grupo_1839" opacity="0.618" transform="matrix(1 0 0 1 0 40.194)"><path d="M343.65 88.634C343.729 88.5042 343.898 88.4627 344.028 88.5415 344.158 88.6203 344.199 88.7894 344.12 88.9193 344.047 89.0406 343.893 89.086 343.765 89.024 343.627 88.9471 343.576 88.7736 343.65 88.634Z" id="Trazado_8582" fill="#FFFFFF" transform="translate(-343.618 -88.453)"/></g><g id="Grupo_1840" opacity="0.465" transform="translate(14.187 7.444)"><path d="M352.935 67.639C353.15 67.2879 353.608 67.1773 353.959 67.3919 354.31 67.6065 354.421 68.065 354.206 68.4161 354.007 68.7417 353.594 68.8643 353.25 68.7 352.87 68.4939 352.729 68.019 352.935 67.639Z" id="Trazado_8583" fill="#FFFFFF" transform="translate(-352.846 -67.15)"/></g><g id="Grupo_1841" opacity="0.398" transform="translate(16.944 22.543)"><path d="M354.691 77.254C354.815 77.0516 355.08 76.9883 355.282 77.1126 355.485 77.2369 355.548 77.5017 355.424 77.7041 355.309 77.8916 355.071 77.9619 354.872 77.867 354.653 77.7473 354.572 77.4733 354.691 77.254Z" id="Trazado_8584" fill="#FFFFFF" transform="translate(-354.64 -76.971)"/></g><g id="Grupo_1842" opacity="0.67" transform="translate(33.694 13.542)"><path d="M365.579 71.357C365.685 71.1843 365.911 71.1303 366.084 71.2364 366.257 71.3425 366.311 71.5685 366.204 71.7412 366.106 71.9014 365.902 71.9613 365.733 71.88 365.546 71.7792 365.477 71.5463 365.578 71.3597 365.578 71.3588 365.578 71.3579 365.579 71.357Z" id="Trazado_8585" fill="#FFFFFF" transform="translate(-365.535 -71.117)"/></g><g id="Grupo_1843" opacity="0.759" transform="translate(17.501 35.399)"><path d="M355.054 85.628C355.182 85.4172 355.458 85.3505 355.668 85.479 355.879 85.6075 355.946 85.8825 355.817 86.0933 355.698 86.2891 355.45 86.3628 355.243 86.264 355.016 86.1403 354.931 85.8559 355.054 85.628Z" id="Trazado_8586" fill="#FFFFFF" transform="translate(-355.002 -85.334)"/></g><g id="Grupo_1844" opacity="0.439" transform="translate(29.549 0)"><path d="M362.865 62.453C362.928 62.3465 363.065 62.3113 363.172 62.3743 363.278 62.4374 363.314 62.5748 363.25 62.6812 363.192 62.7797 363.069 62.8184 362.965 62.771 362.851 62.7099 362.806 62.5685 362.865 62.453Z" id="Trazado_8587" fill="#FFFFFF" transform="translate(-362.839 -62.307)"/></g><g id="Grupo_1845" opacity="0.343" transform="translate(45.266 50.323)"><path d="M373.142 95.48C373.334 95.1653 373.744 95.0655 374.059 95.257 374.373 95.4486 374.473 95.8589 374.281 96.1736 374.104 96.4657 373.734 96.576 373.425 96.429 373.085 96.2453 372.958 95.8206 373.142 95.4804 373.142 95.4803 373.142 95.4801 373.142 95.48Z" id="Trazado_8588" fill="#FFFFFF" transform="translate(-373.063 -95.042)"/></g><g id="Grupo_1846" opacity="0.974" transform="translate(24.786 56.575)"><path d="M359.752 99.171C359.774 99.1246 359.83 99.1049 359.876 99.127 359.922 99.1491 359.942 99.2046 359.92 99.251 359.899 99.3005 359.842 99.3244 359.792 99.305 359.744 99.2786 359.727 99.2191 359.752 99.171Z" id="Trazado_8589" fill="#FFFFFF" transform="translate(-359.741 -99.109)"/></g><g id="Grupo_1847" opacity="0.373" transform="translate(10.033 49.184)"><path d="M350.228 94.773C350.436 94.4347 350.879 94.329 351.217 94.5369 351.555 94.7449 351.661 95.1877 351.453 95.526 351.26 95.8403 350.86 95.9574 350.528 95.797 350.165 95.5947 350.032 95.139 350.228 94.773Z" id="Trazado_8590" fill="#FFFFFF" transform="translate(-350.144 -94.301)"/></g><g id="Grupo_1848" opacity="0.516" transform="translate(26.888 45.164)"><path d="M361.143 91.881C361.227 91.7383 361.411 91.6907 361.554 91.7749 361.697 91.859 361.744 92.0429 361.66 92.1856 361.58 92.3212 361.409 92.372 361.268 92.302 361.119 92.219 361.063 92.032 361.143 91.881Z" id="Trazado_8591" fill="#FFFFFF" transform="translate(-361.108 -91.686)"/></g><g id="Grupo_1849" opacity="0.708" transform="translate(45.689 19.343)"><path d="M373.345 74.927C373.359 74.8965 373.394 74.8824 373.425 74.895 373.453 74.9115 373.463 74.9472 373.448 74.976 373.437 75.0066 373.403 75.0222 373.372 75.0109 373.371 75.0106 373.371 75.0103 373.37 75.01 373.34 74.9942 373.329 74.9573 373.345 74.9275 373.345 74.9273 373.345 74.9272 373.345 74.927Z" id="Trazado_8592" fill="#FFFFFF" transform="translate(-373.338 -74.89)"/></g><g id="Grupo_1850" opacity="0.7" transform="translate(47.281 33.197)"><path d="M374.479 84.486C374.736 84.0664 375.285 83.9346 375.704 84.1916 376.124 84.4487 376.256 84.9972 375.999 85.4168 375.76 85.8055 375.268 85.9518 374.856 85.756 374.401 85.5093 374.233 84.9408 374.479 84.486Z" id="Trazado_8593" fill="#FFFFFF" transform="translate(-374.373 -83.902)"/></g><g id="Grupo_1851" opacity="0.918" transform="translate(64.505 24.703)"><path d="M385.62 78.613C385.724 78.4427 385.946 78.3886 386.116 78.4922 386.286 78.5959 386.34 78.8179 386.237 78.9883 386.14 79.1469 385.939 79.2064 385.772 79.126 385.59 79.0253 385.522 78.7968 385.62 78.613Z" id="Trazado_8594" fill="#FFFFFF" transform="translate(-385.578 -78.376)"/></g><g id="Grupo_1852" opacity="0.374" transform="translate(34.706 27.424)"><path d="M366.214 80.257C366.24 80.1673 366.334 80.1157 366.423 80.1416 366.513 80.1675 366.565 80.2613 366.539 80.3509 366.533 80.3692 366.525 80.3865 366.514 80.402 366.488 80.4917 366.394 80.5433 366.305 80.5174 366.215 80.4915 366.163 80.3977 366.189 80.3081 366.195 80.2898 366.203 80.2725 366.214 80.257Z" id="Trazado_8595" fill="#FFFFFF" transform="translate(-366.194 -80.146)"/></g><g id="Grupo_1853" opacity="0.409" transform="translate(42.33 1.411)"><path d="M371.253 63.783C371.497 63.383 372.018 63.2563 372.418 63.5 372.818 63.7437 372.945 64.2654 372.701 64.6654 372.475 65.0364 372.005 65.1766 371.613 64.99 371.182 64.7545 371.022 64.216 371.253 63.783Z" id="Trazado_8596" fill="#FFFFFF" transform="translate(-371.153 -63.225)"/></g><g id="Grupo_1854" opacity="0.803" transform="translate(81.056 53.843)"><path d="M396.378 97.521C396.461 97.3853 396.638 97.3427 396.774 97.4257 396.91 97.5088 396.952 97.6861 396.869 97.8217 396.792 97.9477 396.632 97.9949 396.499 97.931 396.353 97.8529 396.298 97.6712 396.376 97.525 396.377 97.5237 396.377 97.5223 396.378 97.521Z" id="Trazado_8597" fill="#FFFFFF" transform="translate(-396.344 -97.332)"/></g><g id="Grupo_1855" opacity="0.433" transform="translate(76.311 34.375)"><path d="M393.266 84.714C393.28 84.6786 393.32 84.6614 393.356 84.6756 393.391 84.6897 393.408 84.7299 393.394 84.7653 393.393 84.7676 393.392 84.7698 393.391 84.772 393.377 84.8097 393.335 84.8288 393.297 84.8145 393.295 84.8138 393.293 84.8129 393.291 84.812 393.257 84.7922 393.246 84.7488 393.265 84.7149 393.266 84.7146 393.266 84.7143 393.266 84.714Z" id="Trazado_8598" fill="#FFFFFF" transform="translate(-393.257 -84.668)"/></g></g><g id="Grupo_1873" transform="translate(42.469 35.694)"><g id="Grupo_1857" opacity="0.861" transform="translate(55.654 27.489)"><path d="M390.262 83.6C390.66 83.4667 390.897 83.0589 390.817 82.647 390.751 82.2862 390.406 82.0468 390.045 82.1124 390.015 82.1179 389.985 82.1254 389.956 82.135 389.557 82.2668 389.319 82.6757 389.401 83.088 389.466 83.4484 389.81 83.688 390.171 83.6232 390.202 83.6176 390.232 83.6099 390.262 83.6Z" id="Trazado_8599" fill="#FFFFFF" transform="translate(-389.384 -82.101)"/></g><g id="Grupo_1858" opacity="0.38" transform="translate(49.546 53.95)"><path d="M386.2 100.669C386.559 100.548 386.773 100.18 386.7 99.808 386.642 99.4818 386.33 99.2647 386.004 99.323 385.976 99.328 385.948 99.3351 385.921 99.344 385.561 99.4649 385.347 99.8339 385.421 100.206 385.48 100.532 385.792 100.749 386.118 100.69 386.146 100.685 386.173 100.678 386.2 100.669Z" id="Trazado_8600" fill="#FFFFFF" transform="translate(-385.411 -99.314)"/></g><g id="Grupo_1859" opacity="0.525" transform="translate(12.465 55.437)"><path d="M361.542 100.713C361.657 100.674 361.725 100.557 361.702 100.438 361.684 100.334 361.584 100.265 361.481 100.283 361.472 100.285 361.463 100.287 361.454 100.29 361.339 100.328 361.27 100.446 361.294 100.565 361.312 100.668 361.41 100.738 361.513 100.72 361.523 100.719 361.533 100.716 361.542 100.713Z" id="Trazado_8601" fill="#FFFFFF" transform="translate(-361.29 -100.281)"/></g><g id="Grupo_1860" opacity="0.326" transform="translate(22.626 40.811)"><path d="M368.423 91.662C368.661 91.5824 368.803 91.3391 368.755 91.093 368.714 90.876 368.504 90.7334 368.287 90.7746 368.272 90.7775 368.257 90.7813 368.242 90.786 368.004 90.8657 367.862 91.1089 367.91 91.355 367.951 91.572 368.161 91.7146 368.378 91.6734 368.393 91.6705 368.408 91.6667 368.423 91.662Z" id="Trazado_8602" fill="#FFFFFF" transform="translate(-367.9 -90.766)"/></g><g id="Grupo_1861" opacity="0.348" transform="translate(65.295 45.227)"><path d="M395.824 93.925C395.9 93.9003 395.946 93.8229 395.932 93.744 395.92 93.6743 395.854 93.6275 395.784 93.6395 395.778 93.6405 395.772 93.6421 395.766 93.644 395.69 93.6688 395.644 93.7465 395.66 93.825 395.67 93.8933 395.734 93.9405 395.802 93.9303 395.81 93.9292 395.817 93.9274 395.824 93.925Z" id="Trazado_8603" fill="#FFFFFF" transform="translate(-395.656 -93.639)"/></g><g id="Grupo_1862" opacity="0.929" transform="translate(75.848 48.328)"><path d="M403.332 97.042C403.7 96.9187 403.919 96.5418 403.845 96.161 403.786 95.8271 403.467 95.6043 403.133 95.6635 403.103 95.6688 403.074 95.6763 403.045 95.686 402.677 95.8093 402.458 96.1862 402.532 96.567 402.593 96.9018 402.913 97.124 403.248 97.0634 403.276 97.0583 403.304 97.0511 403.332 97.042Z" id="Trazado_8604" fill="#FFFFFF" transform="translate(-402.52 -95.656)"/></g><g id="Grupo_1863" opacity="0.867" transform="translate(53.481 41.644)"><path d="M389.462 93.857C390.139 93.631 390.543 92.9375 390.406 92.237 390.296 91.6233 389.709 91.2151 389.095 91.3252 389.043 91.3346 388.992 91.3475 388.942 91.364 388.266 91.5915 387.863 92.2849 388 92.985 388.11 93.5977 388.695 94.0056 389.308 93.896 389.36 93.8866 389.412 93.8736 389.462 93.857Z" id="Trazado_8605" fill="#FFFFFF" transform="translate(-387.971 -91.308)"/></g><g id="Grupo_1864" opacity="0.935" transform="translate(37.441 51.923)"><path d="M378.232 99.182C378.547 99.0767 378.735 98.7548 378.672 98.429 378.62 98.1426 378.346 97.9523 378.06 98.0041 378.036 98.0084 378.012 98.0144 377.989 98.022 377.674 98.1277 377.486 98.4506 377.549 98.777 377.6 99.0624 377.873 99.2521 378.159 99.2007 378.184 99.1963 378.208 99.19 378.232 99.182Z" id="Trazado_8606" fill="#FFFFFF" transform="translate(-377.537 -97.995)"/></g><g id="Grupo_1865" opacity="0.963" transform="translate(40.019 36.454)"><path d="M379.651 88.682C379.85 88.6148 379.969 88.4111 379.929 88.205 379.895 88.0237 379.721 87.904 379.54 87.9378 379.526 87.9404 379.512 87.9438 379.499 87.948 379.3 88.0145 379.181 88.2189 379.222 88.425 379.255 88.6059 379.429 88.7256 379.61 88.6924 379.624 88.6898 379.637 88.6863 379.651 88.682Z" id="Trazado_8607" fill="#FFFFFF" transform="translate(-379.213 -87.933)"/></g><g id="Grupo_1866" opacity="0.584" transform="translate(14.393 7.961)"><path d="M363.2 70.512C363.496 70.4129 363.673 70.1097 363.614 69.803 363.565 69.5345 363.308 69.3564 363.04 69.405 363.017 69.4091 362.995 69.4148 362.973 69.422 362.676 69.52 362.498 69.8241 362.559 70.131 362.608 70.3995 362.865 70.5777 363.133 70.529 363.156 70.5249 363.178 70.5192 363.2 70.512Z" id="Trazado_8608" fill="#FFFFFF" transform="translate(-362.544 -69.398)"/></g><g id="Grupo_1867" opacity="0.416" transform="translate(20.68 0)"><path d="M366.912 64.7C367.036 64.6568 367.111 64.5295 367.087 64.4 367.066 64.2853 366.957 64.209 366.842 64.2296 366.832 64.2314 366.822 64.2338 366.813 64.237 366.689 64.2802 366.614 64.4075 366.638 64.537 366.659 64.6521 366.77 64.7282 366.885 64.7068 366.894 64.7051 366.903 64.7029 366.912 64.7Z" id="Trazado_8609" fill="#FFFFFF" transform="translate(-366.634 -64.219)"/></g><g id="Grupo_1868" opacity="0.878" transform="translate(27.608 12.218)"><path d="M371.352 72.527C371.448 72.4955 371.506 72.3972 371.486 72.298 371.47 72.2111 371.387 72.1535 371.3 72.1694 371.292 72.1708 371.285 72.1726 371.278 72.175 371.182 72.2065 371.124 72.3048 371.144 72.404 371.161 72.4914 371.245 72.5487 371.332 72.5321 371.339 72.5308 371.346 72.5291 371.352 72.527Z" id="Trazado_8610" fill="#FFFFFF" transform="translate(-371.141 -72.167)"/></g><g id="Grupo_1869" opacity="0.488" transform="translate(1.258 19.58)"><path d="M354.938 78.558C355.363 78.416 355.617 77.9802 355.531 77.54 355.462 77.154 355.093 76.8973 354.707 76.9665 354.674 76.9724 354.642 76.9806 354.61 76.991 354.186 77.1359 353.934 77.5701 354.017 78.01 354.087 78.3959 354.456 78.6521 354.842 78.5824 354.875 78.5765 354.907 78.5684 354.938 78.558Z" id="Trazado_8611" fill="#FFFFFF" transform="translate(-354 -76.956)"/></g><g id="Grupo_1870" opacity="0.329" transform="translate(16.636 27.825)"><path d="M364.9 83.848C365.306 83.7115 365.548 83.2954 365.466 82.875 365.4 82.507 365.048 82.2625 364.68 82.3288 364.649 82.3344 364.618 82.3421 364.588 82.352 364.182 82.4881 363.939 82.9043 364.021 83.325 364.088 83.6934 364.441 83.9379 364.809 83.8711 364.84 83.8655 364.87 83.8578 364.9 83.848Z" id="Trazado_8612" fill="#FFFFFF" transform="translate(-364.003 -82.319)"/></g><g id="Grupo_1871" opacity="0.83" transform="translate(37.56 21.329)"><path d="M378.509 79.621C378.915 79.4849 379.157 79.0691 379.075 78.649 379.008 78.2806 378.655 78.0363 378.287 78.1033 378.256 78.1088 378.226 78.1164 378.197 78.126 377.792 78.2625 377.55 78.678 377.631 79.098 377.698 79.4664 378.051 79.7107 378.419 79.6437 378.45 79.6382 378.48 79.6306 378.509 79.621Z" id="Trazado_8613" fill="#FFFFFF" transform="translate(-377.614 -78.094)"/></g><g id="Grupo_1872" opacity="0.364" transform="matrix(1 0 0 1 0 41.802)"><path d="M353.445 91.863C353.564 91.8223 353.635 91.6997 353.611 91.576 353.591 91.4674 353.487 91.3956 353.378 91.4157 353.37 91.4173 353.361 91.4194 353.353 91.422 353.234 91.4623 353.163 91.5845 353.187 91.708 353.207 91.8167 353.311 91.889 353.419 91.8694 353.428 91.8679 353.437 91.8657 353.445 91.863Z" id="Trazado_8614" fill="#FFFFFF" transform="translate(-353.182 -91.412)"/></g></g><g id="Grupo_1902" transform="translate(41.833 43.994)"><g id="Grupo_1887" transform="translate(48.481 29.174)"><g id="Grupo_1876"><g id="Grupo_1874"><path d="M387.523 95.658C388.108 93.4576 388.34 91.1782 388.21 88.905 387.88 88.8061 387.543 88.7296 387.202 88.676 386.669 88.5722 386.121 88.5722 385.588 88.676 384.32 88.967 381.41 90.342 381.534 95.72 381.551 96.287 381.6 96.831 381.663 97.336 382.055 100.2 383.285 101.936 384.879 102.381 385.621 101.416 386.61 99.5 387.523 95.658Z" id="Trazado_8615" fill="#B7B029" transform="translate(-381.53 -88.596)"/></g><g id="Grupo_1875" transform="translate(3.349 0.309)"><path d="M386.478 101.858C389.266 100.319 391.107 97.4956 391.391 94.324 391.471 93.1741 391.217 92.0255 390.661 91.016L390.65 90.988C389.875 89.601 388.608 88.688 387.379 88.906 387.379 88.906 387.248 88.858 387.039 88.797 387.169 91.0702 386.937 93.3496 386.352 95.55 385.439 99.392 384.452 101.307 383.708 102.27 384.535 102.479 385.409 102.387 386.174 102.01 386.279 101.966 386.38 101.916 386.478 101.858Z" id="Trazado_8616" fill="#B1B52A" transform="translate(-383.708 -88.797)"/></g></g><g id="Grupo_1886" transform="translate(0.003 0.001)"><g id="Grupo_1885"><g id="Grupo_1878" opacity="0.4" transform="translate(1.327 4.116)"><g id="Grupo_1877"><path d="M382.466 96.931C382.466 96.931 382.082 93.368 383.093 91.695 384.104 90.022 384.244 93.852 384.055 94.267 383.866 94.682 382.682 97.282 382.947 97.528 383.212 97.774 382.537 98.311 382.466 96.931Z" id="Trazado_8617" fill="#918424" transform="translate(-382.394 -91.274)"/></g></g><g id="Grupo_1879" transform="translate(6.684 2.421)"><path d="M387.438 90.172C387.438 90.172 389.023 90.295 389.164 92.387 389.305 94.479 387.764 96.908 386.425 96.269 385.086 95.63 386.634 90.294 386.634 90.294Z" id="Trazado_8618" fill="#C9C93A" transform="translate(-385.879 -90.172)"/></g><g id="Grupo_1881" opacity="0.4"><g id="Grupo_1880"><path d="M387.2 88.675C385.718 89.375 383.938 89.475 382.943 92.114 382.314 93.7966 381.886 95.5473 381.667 97.33 381.593 96.7943 381.55 96.2547 381.538 95.714 381.407 90.34 384.322 88.965 385.587 88.673 386.12 88.5706 386.667 88.5713 387.2 88.675Z" id="Trazado_8619" fill="#918424" transform="translate(-381.531 -88.597)"/></g></g><g id="Grupo_1883" opacity="0.57" transform="translate(7.912 3.028)"><g id="Grupo_1882"><path d="M387.719 93.445C387.279 93.436 386.549 93.268 386.719 92.667 386.899 92.023 386.479 91.548 386.811 90.996 387.143 90.444 387.749 90.32 388.125 91.259 388.451 92.075 388.343 93.218 387.719 93.445Z" id="Trazado_8620" fill="#FFFBA9" transform="translate(-386.678 -90.567)"/></g></g><g id="Grupo_1884" transform="translate(6.092 2.526)"><path d="M385.519 101.083C385.509 101.069 385.501 101.053 385.494 101.037 385.494 101.037 389.536 96.808 390.069 93.331 390.251 92.2873 390.124 91.2131 389.702 90.241 390.258 91.2505 390.512 92.3991 390.432 93.549 390.148 96.7206 388.307 99.5439 385.519 101.083Z" id="Trazado_8621" fill="#C9C93A" transform="translate(-385.494 -90.24)"/></g></g></g></g><g id="Grupo_1901"><g id="Grupo_1890"><g id="Grupo_1888" transform="translate(0.175 0)"><path d="M356.641 75.608C358.799 76.334 361.059 76.7133 363.336 76.732 363.458 76.4085 363.559 76.0771 363.636 75.74 363.774 75.2151 363.811 74.6687 363.744 74.13 363.536 72.845 362.351 69.852 356.977 69.63 356.41 69.61 355.864 69.624 355.357 69.655 352.473 69.861 350.657 70.974 350.113 72.536 351.02 73.338 352.866 74.449 356.641 75.608Z" id="Trazado_8622" fill="#B7B029" transform="translate(-350.107 -69.619)"/></g><g id="Grupo_1889" transform="matrix(1 0 0 1 0 2.915)"><path d="M350.4 74.307C351.756 77.1882 354.454 79.2082 357.6 79.698 358.742 79.8521 359.904 79.674 360.948 79.185L360.976 79.176C362.41 78.493 363.402 77.288 363.267 76.046 363.267 76.046 363.322 75.918 363.398 75.714 361.12 75.6956 358.859 75.3163 356.7 74.59 352.926 73.431 351.08 72.319 350.166 71.515 349.905 72.3268 349.94 73.2049 350.266 73.993 350.304 74.1004 350.349 74.2053 350.4 74.307Z" id="Trazado_8623" fill="#B1B52A" transform="translate(-349.993 -71.515)"/></g></g><g id="Grupo_1900" transform="translate(0.406 0)"><g id="Grupo_1899"><g id="Grupo_1892" opacity="0.4" transform="translate(2.965 1.225)"><g id="Grupo_1891"><path d="M353.116 70.422C353.116 70.422 356.696 70.27 358.3 71.387 359.904 72.504 356.074 72.397 355.671 72.182 355.268 71.967 352.752 70.615 352.489 70.863 352.226 71.111 351.734 70.4 353.116 70.422Z" id="Trazado_8624" fill="#918424" transform="translate(-352.185 -70.415)"/></g></g><g id="Grupo_1893" transform="translate(4.633 6.679)"><path d="M359.425 75.823C359.425 75.823 359.2 77.4 357.1 77.4 355 77.4 352.679 75.711 353.4 74.415 354.121 73.119 359.349 75.01 359.349 75.01Z" id="Trazado_8625" fill="#C9C93A" transform="translate(-353.271 -73.963)"/></g><g id="Grupo_1895" opacity="0.4" transform="translate(5.013 0)"><g id="Grupo_1894"><path d="M361.8 75.738C361.2 74.215 361.216 72.431 358.644 71.268 357.005 70.5312 355.285 69.9904 353.52 69.657 354.06 69.6174 354.601 69.6091 355.142 69.632 360.515 69.85 361.696 72.848 361.906 74.132 361.973 74.6692 361.937 75.2143 361.8 75.738Z" id="Trazado_8626" fill="#918424" transform="translate(-353.518 -69.619)"/></g></g><g id="Grupo_1897" opacity="0.57" transform="translate(7.264 8.036)"><g id="Grupo_1896"><path d="M354.982 75.831C355.019 75.391 355.233 74.675 355.823 74.882 356.453 75.102 356.954 74.716 357.485 75.082 358.016 75.448 358.098 76.063 357.138 76.376 356.3 76.651 355.166 76.469 354.982 75.831Z" id="Trazado_8627" fill="#FFFBA9" transform="translate(-354.982 -74.846)"/></g></g><g id="Grupo_1898" transform="matrix(1 0 0 1 0 5.684)"><path d="M350.257 73.339C350.273 73.33 350.289 73.3223 350.306 73.316 350.306 73.316 354.265 77.625 357.699 78.383 358.729 78.6325 359.809 78.5747 360.806 78.217 359.762 78.706 358.6 78.8841 357.458 78.73 354.311 78.2405 351.613 76.2205 350.257 73.339Z" id="Trazado_8628" fill="#C9C93A" transform="translate(-350.257 -73.316)"/></g></g></g></g></g><g id="Grupo_2001" transform="translate(47.718 28.709)"><g id="Grupo_1925" transform="translate(70.359 57.909)"><g id="Grupo_1909"><g id="Grupo_1904"><g id="Grupo_1903"><path d="M410.959 97.345C407.971 99.045 405.048 101.954 402.41 106.645 402.393 106.674 402.381 106.702 402.364 106.73L403.064 106.73C405.464 102.561 408.264 99.585 411.418 97.811Z" id="Trazado_8629" fill="#BA1A5B" transform="translate(-402.364 -97.345)"/></g></g><g id="Grupo_1906" transform="translate(0.703 0.463)"><g id="Grupo_1905"><path d="M411.175 97.646C408.02 99.42 405.226 102.396 402.821 106.565L403.763 106.565C405.638 103.124 408.4 100.249 411.763 98.237Z" id="Trazado_8630" fill="#C890AB" transform="translate(-402.821 -97.646)"/></g></g><g id="Grupo_1908" transform="translate(5.499 3.436)"><g id="Grupo_1907"><path d="M412.471 99.58C409.812 100.957 407.56 103.007 405.941 105.526L407.191 105.526C408.714 103.298 410.792 101.506 413.219 100.326Z" id="Trazado_8631" fill="#EDE2E8" transform="translate(-405.941 -99.58)"/></g></g></g><g id="Grupo_1924" transform="translate(3.039 1.055)"><g id="Grupo_1911" transform="translate(5.17 0)"><g id="Grupo_1910"><path d="M409.144 98.031C408.649 98.3005 408.168 98.5955 407.704 98.915 408.287 99.796 408.897 100.724 409.486 101.615 409.845 101.354 410.216 101.112 410.599 100.888 410.216 100.039 409.824 99.172 409.446 98.333Z" id="Trazado_8632" fill="#E0BBCD" transform="translate(-407.704 -98.031)"/></g></g><g id="Grupo_1913" transform="translate(3.211 1.308)"><g id="Grupo_1912"><path d="M407.806 98.882C408.341 99.812 408.906 100.782 409.443 101.718 409.12 101.982 408.803 102.265 408.488 102.564 407.815 101.743 407.111 100.876 406.43 100.043 406.869 99.6328 407.328 99.2453 407.806 98.882Z" id="Trazado_8633" fill="#E0BBCD" transform="translate(-406.43 -98.882)"/></g></g><g id="Grupo_1915" transform="matrix(1 0 0 1 0 4.793)"><g id="Grupo_1914"><path d="M405.388 101.149C406.137 101.962 406.904 102.795 407.617 103.575 407.38 103.875 407.145 104.198 406.917 104.525 406.095 103.89 405.217 103.204 404.344 102.533 404.684 102.05 405.033 101.587 405.388 101.149Z" id="Trazado_8634" fill="#E0BBCD" transform="translate(-404.341 -101.149)"/></g></g><g id="Grupo_1917" transform="translate(1.499 2.965)"><g id="Grupo_1916"><path d="M406.512 99.96C407.155 100.845 407.823 101.76 408.451 102.626 408.177 102.917 407.905 103.219 407.638 103.539 406.889 102.803 406.093 102.014 405.317 101.248 405.706 100.793 406.104 100.364 406.512 99.96Z" id="Trazado_8635" fill="#E0BBCD" transform="translate(-405.316 -99.96)"/></g></g><g id="Grupo_1919" transform="translate(1.047 4.254)"><g id="Grupo_1918"><path d="M405.474 100.8C406.25 101.566 407.047 102.354 407.795 103.091 407.612 103.308 407.429 103.534 407.251 103.766 406.538 102.987 405.771 102.153 405.022 101.34 405.171 101.155 405.322 100.975 405.474 100.8Z" id="Trazado_8636" fill="#EACADA" transform="translate(-405.022 -100.798)"/></g></g><g id="Grupo_1921" transform="translate(2.695 2.469)"><g id="Grupo_1920"><path d="M406.611 99.637C407.292 100.47 407.996 101.337 408.669 102.158 408.454 102.364 408.243 102.578 408.033 102.799 407.406 101.933 406.733 101.019 406.094 100.133 406.265 99.963 406.437 99.8 406.611 99.637Z" id="Trazado_8637" fill="#EACADA" transform="translate(-406.094 -99.637)"/></g></g><g id="Grupo_1923" transform="translate(4.587 0.884)"><g id="Grupo_1922"><path d="M407.908 98.606C408.491 99.487 409.101 100.415 409.69 101.306 409.444 101.481 409.203 101.669 408.963 101.866 408.426 100.933 407.863 99.96 407.326 99.03 407.519 98.883 407.712 98.744 407.908 98.606Z" id="Trazado_8638" fill="#EACADA" transform="translate(-407.325 -98.606)"/></g></g></g></g><g id="Grupo_1980" transform="translate(19.386 0)"><g id="Grupo_1932"><g id="Grupo_1927"><g id="Grupo_1926"><path d="M399.936 88.748C393.785 92.055 388.136 92.441 383.13 89.848 378.409 87.398 375.201 82.855 373.076 79.84 372.447 78.945 371.905 78.174 371.445 77.64 370.257 76.24 369.353 71.993 369.931 66.575 370.163 64.3857 370.628 62.2275 371.318 60.137L370.865 59.683C368.329 67.083 368.95 75.548 371.065 78.031 374.359 81.887 382.681 98.946 400.392 89.206Z" id="Trazado_8639" fill="#BA1A5B" transform="translate(-369.206 -59.676)"/></g></g><g id="Grupo_1929" transform="translate(0.546 0.454)"><g id="Grupo_1928"><path d="M399.151 87.993C393.288 91.081 387.933 91.421 383.203 88.971 378.662 86.611 375.526 82.171 373.452 79.226 372.809 78.313 372.252 77.526 371.769 76.954 370.942 75.984 369.858 72.31 370.469 66.58 370.685 64.5397 371.108 62.5267 371.731 60.572L371.131 59.972C370.441 62.0625 369.976 64.2207 369.744 66.41 369.166 71.829 370.07 76.078 371.258 77.475 371.718 78.013 372.258 78.785 372.889 79.675 375.014 82.69 378.222 87.232 382.943 89.683 387.952 92.278 393.598 91.892 399.749 88.583Z" id="Trazado_8640" fill="#C890AB" transform="translate(-369.561 -59.971)"/></g></g><g id="Grupo_1931" transform="translate(4.205 3.5)"><g id="Grupo_1930"><path d="M394.683 83.741C390.394 85.695 386.577 85.841 383.307 84.141 379.707 82.261 377.061 78.519 375.133 75.781 374.507 74.891 373.962 74.115 373.41 73.435 373.236 72.949 372.554 70.691 373.01 66.413 373.143 65.1697 373.364 63.9374 373.67 62.725L372.897 61.953C372.52 63.3456 372.254 64.7656 372.1 66.2 371.616 70.741 372.366 73.347 372.646 73.936 373.207 74.611 373.776 75.419 374.428 76.348 376.422 79.177 379.151 83.043 382.978 85.037 386.592 86.917 390.778 86.731 395.452 84.511Z" id="Trazado_8641" fill="#EDE2E8" transform="translate(-371.942 -61.953)"/></g></g></g><g id="Grupo_1977" transform="translate(1.276 1.731)"><g id="Grupo_1934" transform="translate(19.634 25.996)"><g id="Grupo_1933"><path d="M382.808 81.051C382.873 80.009 382.937 78.906 383 77.838 383.442 77.8183 383.882 77.7762 384.32 77.712 384.428 78.774 384.537 79.877 384.643 80.927 384.034 81.003 383.422 81.0444 382.808 81.051Z" id="Trazado_8642" fill="#E0BBCD" transform="translate(-382.808 -77.712)"/></g></g><g id="Grupo_1936" transform="translate(22.049 25.533)"><g id="Grupo_1935"><path d="M384.513 80.984C384.47 79.913 384.422 78.784 384.379 77.716 384.786 77.6313 385.199 77.5313 385.617 77.416 385.831 78.454 386.052 79.548 386.267 80.6 385.689 80.7579 385.104 80.8861 384.513 80.984Z" id="Trazado_8643" fill="#E0BBCD" transform="translate(-384.379 -77.411)"/></g></g><g id="Grupo_1938" transform="translate(26.083 24.317)"><g id="Grupo_1937"><path d="M387.35 76.62C387.235 76.675 387.118 76.735 387.003 76.788 387.272 77.809 387.564 78.902 387.849 79.969 388.367 79.7443 388.89 79.498 389.417 79.23 389.265 78.898 389.111 78.563 388.959 78.23Z" id="Trazado_8644" fill="#E0BBCD" transform="translate(-387.003 -76.62)"/></g></g><g id="Grupo_1940" transform="translate(24.146 24.83)"><g id="Grupo_1939"><path d="M386.221 80.64C386.063 79.559 385.897 78.44 385.743 77.384 386.12 77.253 386.501 77.112 386.885 76.954 387.205 77.954 387.545 79.019 387.877 80.054 387.32 80.276 386.77 80.471 386.221 80.64Z" id="Trazado_8645" fill="#E0BBCD" transform="translate(-385.743 -76.954)"/></g></g><g id="Grupo_1942" transform="matrix(1 0 0 1 0 7.191)"><g id="Grupo_1941"><path d="M370.251 70.116C370.046 68.5797 369.985 67.0276 370.07 65.48 371.026 65.617 372.032 65.755 372.999 65.892 372.938 67.0021 372.959 68.1152 373.064 69.222 372.122 69.523 371.152 69.826 370.251 70.116Z" id="Trazado_8646" fill="#E0BBCD" transform="translate(-370.036 -65.48)"/></g></g><g id="Grupo_1944" transform="translate(0.141 1.476)"><g id="Grupo_1943"><path d="M370.128 65.977C370.14 65.859 370.151 65.74 370.163 65.617 370.301 64.3191 370.52 63.0311 370.821 61.761 371.742 62.199 372.701 62.65 373.61 63.08 373.387 64.058 373.218 65.0475 373.104 66.044 372.126 66.026 371.106 66 370.128 65.977Z" id="Trazado_8647" fill="#E0BBCD" transform="translate(-370.128 -61.762)"/></g></g><g id="Grupo_1946" transform="translate(7.391 21.258)"><g id="Grupo_1945"><path d="M378.2 79.754C376.986 78.8625 375.86 77.8562 374.839 76.749 375.495 76.06 376.183 75.332 376.85 74.631 377.59 75.4271 378.393 76.1627 379.25 76.831 378.9 77.806 378.54 78.808 378.2 79.754Z" id="Trazado_8648" fill="#E0BBCD" transform="translate(-374.844 -74.63)"/></g></g><g id="Grupo_1948" transform="translate(0.484 12.757)"><g id="Grupo_1947"><path d="M372.634 73.764C372.156 73.086 371.729 72.497 371.344 72.048 370.846 71.3155 370.507 70.4861 370.351 69.614 371.258 69.456 372.23 69.274 373.187 69.099 373.259 69.4395 373.364 69.7721 373.501 70.092 373.97 70.656 374.445 71.317 374.969 72.058 374.194 72.627 373.392 73.206 372.634 73.764Z" id="Trazado_8649" fill="#E0BBCD" transform="translate(-370.351 -69.1)"/></g></g><g id="Grupo_1950" transform="translate(11.932 24.461)"><g id="Grupo_1949"><path d="M381.9 81.164C380.817 80.891 379.769 80.4916 378.779 79.974 378.442 79.8 378.116 79.614 377.798 79.421 378.231 78.551 378.685 77.621 379.132 76.714 379.361 76.852 379.593 76.983 379.832 77.104 380.558 77.4832 381.324 77.7823 382.115 77.996 382.042 79.058 381.963 80.147 381.9 81.164Z" id="Trazado_8650" fill="#E0BBCD" transform="translate(-377.798 -76.714)"/></g></g><g id="Grupo_1952" transform="translate(3.66 17.292)"><g id="Grupo_1951"><path d="M375.132 76.991C374.088 75.76 373.187 74.531 372.417 73.444 373.252 72.992 374.128 72.508 374.974 72.05 375.558 72.866 376.201 73.73 376.906 74.588 376.319 75.38 375.708 76.2 375.132 76.991Z" id="Trazado_8651" fill="#E0BBCD" transform="translate(-372.417 -72.05)"/></g></g><g id="Grupo_1954" transform="translate(17.05 26.011)"><g id="Grupo_1953"><path d="M381.127 80.838C381.285 79.838 381.45 78.766 381.611 77.722 382.063 77.7877 382.518 77.8278 382.975 77.842 382.981 78.907 382.986 80.002 382.993 81.033 382.367 81.0091 381.744 80.944 381.127 80.838Z" id="Trazado_8652" fill="#E0BBCD" transform="translate(-381.127 -77.722)"/></g></g><g id="Grupo_1956" transform="translate(2.767 15.716)"><g id="Grupo_1955"><path d="M372.729 74C372.555 73.756 372.389 73.519 372.229 73.29 372.095 73.099 371.963 72.915 371.837 72.735 372.595 72.177 373.397 71.597 374.172 71.035 374.272 71.183 374.378 71.329 374.487 71.482 374.739 71.843 375.007 72.221 375.287 72.61 374.44 73.059 373.564 73.543 372.729 74Z" id="Trazado_8653" fill="#EACADA" transform="translate(-371.836 -71.025)"/></g></g><g id="Grupo_1958" transform="translate(6.375 19.83)"><g id="Grupo_1957"><path d="M375.2 77.248C374.846 76.87 374.508 76.487 374.184 76.104 374.76 75.317 375.371 74.493 375.958 73.704 376.358 74.184 376.773 74.663 377.211 75.132 376.543 75.83 375.856 76.559 375.2 77.248Z" id="Trazado_8654" fill="#EACADA" transform="translate(-374.183 -73.701)"/></g></g><g id="Grupo_1960" transform="translate(10.752 23.459)"><g id="Grupo_1959"><path d="M378.211 79.771C377.805 79.524 377.411 79.259 377.03 78.984 377.365 78.039 377.73 77.036 378.082 76.062 378.55 76.4237 379.039 76.7576 379.546 77.062 379.1 77.97 378.644 78.9 378.211 79.771Z" id="Trazado_8655" fill="#EACADA" transform="translate(-377.03 -76.062)"/></g></g><g id="Grupo_1962" transform="translate(0.215 10.933)"><g id="Grupo_1961"><path d="M370.445 70.252C370.345 69.82 370.251 69.337 370.176 68.808 371.076 68.517 372.047 68.215 372.988 67.913 373.045 68.5266 373.143 69.1357 373.282 69.736 372.324 69.912 371.352 70.094 370.445 70.252Z" id="Trazado_8656" fill="#EACADA" transform="translate(-370.176 -67.914)"/></g></g><g id="Grupo_1964" transform="translate(0.835 0)"><g id="Grupo_1963"><path d="M372.318 61.262 370.971 60.802C370.823 61.302 370.691 61.797 370.579 62.278 371.5 62.716 372.459 63.167 373.368 63.597 373.442 63.27 373.546 62.922 373.639 62.582Z" id="Trazado_8657" fill="#EACADA" transform="translate(-370.579 -60.802)"/></g></g><g id="Grupo_1966" transform="translate(0.034 5.691)"><g id="Grupo_1965"><path d="M370.058 66C370.081 65.519 370.115 65.019 370.166 64.5 371.144 64.522 372.166 64.549 373.142 64.568 373.131 64.653 373.122 64.742 373.113 64.825 373.053 65.385 373.013 65.912 372.987 66.413 372.02 66.28 371.014 66.141 370.058 66Z" id="Trazado_8658" fill="#EACADA" transform="translate(-370.058 -64.504)"/></g></g><g id="Grupo_1968" transform="translate(25.288 24.485)"><g id="Grupo_1967"><path d="M387.478 80.177C387.146 79.139 386.806 78.077 386.486 77.077 386.749 76.969 387.015 76.854 387.281 76.731 387.55 77.752 387.842 78.845 388.127 79.912 387.91 80 387.694 80.09 387.478 80.177Z" id="Trazado_8659" fill="#EACADA" transform="translate(-386.486 -76.729)"/></g></g><g id="Grupo_1970" transform="translate(23.287 25.261)"><g id="Grupo_1969"><path d="M385.834 80.69C385.619 79.638 385.397 78.544 385.184 77.506 385.469 77.4227 385.755 77.332 386.043 77.234 386.197 78.29 386.363 79.409 386.521 80.49 386.292 80.562 386.062 80.63 385.834 80.69Z" id="Trazado_8660" fill="#EACADA" transform="translate(-385.184 -77.234)"/></g></g><g id="Grupo_1972" transform="translate(16.034 25.744)"><g id="Grupo_1971"><path d="M380.466 80.716C380.529 79.698 380.609 78.61 380.681 77.548 381.104 77.6626 381.533 77.7517 381.966 77.815 381.805 78.859 381.64 79.929 381.482 80.931 381.142 80.872 380.8 80.8 380.466 80.716Z" id="Trazado_8661" fill="#EACADA" transform="translate(-380.466 -77.548)"/></g></g><g id="Grupo_1974" transform="translate(21.147 25.837)"><g id="Grupo_1973"><path d="M384.115 80.982C384.009 79.932 383.9 78.83 383.792 77.767 384.092 77.725 384.392 77.667 384.692 77.609 384.735 78.682 384.783 79.809 384.826 80.877 384.588 80.917 384.352 80.95 384.115 80.982Z" id="Trazado_8662" fill="#EACADA" transform="translate(-383.792 -77.609)"/></g></g><g id="Grupo_1976" transform="translate(18.898 26.122)"><g id="Grupo_1975"><path d="M382.347 80.995C382.339 79.963 382.335 78.869 382.329 77.804 382.636 77.813 382.944 77.81 383.258 77.795 383.195 78.863 383.13 79.966 383.066 81.008 382.826 81.008 382.586 81 382.347 80.995Z" id="Trazado_8663" fill="#EACADA" transform="translate(-382.329 -77.794)"/></g></g></g><g id="Grupo_1978" transform="translate(7.214 18.551)"><path d="M381.166 79.371C380.881 78.7469 380.41 78.2261 379.818 77.88 378.808 77.2205 377.864 76.4646 377 75.623 376.542 75.116 373.9 71.743 373.9 71.743 375.327 73.8452 376.875 75.862 378.538 77.783 379.316 78.46 380.205 78.9973 381.166 79.371Z" id="Trazado_8664" fill="#FFF3FA" transform="translate(-373.899 -71.743)"/></g><g id="Grupo_1979" transform="translate(10.368 26.723)"><path d="M387.947 81.32C387.947 81.32 388.376 80.77 387.138 81.008 386.228 81.1854 385.288 81.1346 384.402 80.86 383.583 80.677 382.124 80.803 380.942 80.084 379.76 79.365 375.727 76.614 375.961 77.12 377.859 79.1263 380.286 80.554 382.961 81.238 386.731 82.2 387.947 81.32 387.947 81.32Z" id="Trazado_8665" fill="#FFF3FA" transform="translate(-375.951 -77.059)"/></g></g><g id="Grupo_2000" transform="matrix(1 0 0 1 0 62.661)"><g id="Grupo_1987"><g id="Grupo_1982"><g id="Grupo_1981"><path d="M356.6 105.066 357.645 105.066C358.713 104.338 359.843 103.705 361.021 103.174 365.859 101.106 371.191 100.48 376.376 101.374 379.13 102.252 381.755 103.493 384.182 105.062L385.215 105.062C382.528 103.218 379.578 101.788 376.466 100.821 369.509 99.736 362.309 100.871 356.6 105.066Z" id="Trazado_8666" fill="#BA1A5B" transform="translate(-356.596 -100.436)"/></g></g><g id="Grupo_1984" transform="translate(1.045 0.57)"><g id="Grupo_1983"><path d="M360.652 102.974C359.474 103.505 358.344 104.138 357.276 104.866L358.824 104.866C359.554 104.422 360.31 104.021 361.087 103.666 365.748 101.674 370.885 101.068 375.882 101.92 378.152 102.656 380.333 103.645 382.382 104.869L383.809 104.869C381.382 103.3 378.757 102.059 376.003 101.181 370.82 100.286 365.489 100.909 360.652 102.974Z" id="Trazado_8667" fill="#C890AB" transform="translate(-357.276 -100.807)"/></g></g><g id="Grupo_1986" transform="translate(12.063 4.382)"><g id="Grupo_1985"><path d="M364.443 103.534 371.452 103.534C369.127 103.204 366.768 103.204 364.443 103.534Z" id="Trazado_8668" fill="#EDE2E8" transform="translate(-364.443 -103.287)"/></g></g></g><g id="Grupo_1998" transform="translate(4.355 1.334)"><g id="Grupo_1989" transform="translate(15.59 0.673)"><g id="Grupo_1988"><path d="M369.57 104.365 372.236 104.365C372.52 103.884 372.803 103.401 373.082 102.931 371.927 102.384 370.934 101.993 370.243 101.743 370.02 102.6 369.79 103.493 369.57 104.365Z" id="Trazado_8669" fill="#E0BBCD" transform="translate(-369.57 -101.742)"/></g></g><g id="Grupo_1991" transform="matrix(1 0 0 1 0 1.019)"><g id="Grupo_1990"><path d="M363.6 104.244C363.354 103.482 363.105 102.713 362.865 101.967 361.865 102.258 360.887 102.617 359.936 103.042 359.767 103.117 359.6 103.196 359.436 103.277 359.668 103.594 359.906 103.92 360.142 104.244Z" id="Trazado_8670" fill="#E0BBCD" transform="translate(-359.429 -101.967)"/></g></g><g id="Grupo_1993" transform="translate(5.025 0.072)"><g id="Grupo_1992"><path d="M362.7 101.889C363.137 102.767 363.587 103.683 364.025 104.575L365.355 104.575C365.85 104.503 366.35 104.443 366.855 104.403 366.734 103.396 366.6 102.349 366.477 101.351 365.206 101.437 363.944 101.617 362.7 101.889Z" id="Trazado_8671" fill="#E0BBCD" transform="translate(-362.698 -101.351)"/></g></g><g id="Grupo_1995" transform="translate(10.394 0)"><g id="Grupo_1994"><path d="M366.977 104.351C368.157 104.355 369.336 104.438 370.505 104.6L370.725 104.6C370.988 103.671 371.251 102.7 371.503 101.784 371.312 101.719 371.171 101.675 371.093 101.652 369.472 101.403 367.833 101.288 366.193 101.308 366.453 102.3 366.719 103.35 366.977 104.351Z" id="Trazado_8672" fill="#E0BBCD" transform="translate(-366.19 -101.304)"/></g></g><g id="Grupo_1997" transform="translate(8.803 0.003)"><g id="Grupo_1996"><path d="M367.535 104.35C366.859 104.35 366.193 104.373 365.535 104.427 365.401 103.327 365.257 102.209 365.157 101.375 365.683 101.337 366.213 101.312 366.748 101.306 367.009 102.3 367.275 103.349 367.535 104.35Z" id="Trazado_8673" fill="#EACADA" transform="translate(-365.155 -101.306)"/></g></g></g><g id="Grupo_1999" transform="translate(20.317 1.801)"><path d="M370.181 102.014C370.064 102.067 369.925 102.029 369.852 101.923 369.787 101.839 369.802 101.718 369.886 101.652 369.896 101.644 369.907 101.638 369.918 101.632 370.035 101.578 370.174 101.616 370.249 101.721 370.315 101.806 370.299 101.928 370.214 101.993 370.204 102.001 370.193 102.008 370.181 102.014Z" id="Trazado_8674" fill="#FFF3FA" transform="translate(-369.812 -101.608)"/></g></g></g></svg>