<svg width="135" height="95" viewBox="0 0 135 95" xmlns="http://www.w3.org/2000/svg" xmlns:xlink="http://www.w3.org/1999/xlink" overflow="hidden"><g id="HONGOS" transform="translate(-178.409 -176.126)"><g id="Grupo_2205" transform="translate(178.409 176.126)"><g id="Grupo_2173"><path d="M200.724 182.956C200.803 182.864 200.878 182.773 200.957 182.683 200.482 183.234 200.01 183.787 199.543 184.341 199.591 184.284 199.643 184.228 199.688 184.172 200.029 183.767 200.376 183.361 200.724 182.956Z" id="Trazado_9010" fill="#F7993C" transform="translate(-168.803 -173.146)"/><path d="M199.082 184.887C199.133 184.824 199.182 184.762 199.235 184.699 198.784 185.246 198.339 185.794 197.9 186.344 197.949 186.283 198 186.223 198.048 186.162 198.389 185.736 198.734 185.311 199.082 184.887Z" id="Trazado_9011" fill="#F7993C" transform="translate(-169.55 -172.229)"/><path d="M197.5 186.851C197.535 186.806 197.568 186.761 197.6 186.716 197.165 187.271 196.736 187.829 196.313 188.389L196.47 188.189C196.809 187.74 197.149 187.295 197.5 186.851Z" id="Trazado_9012" fill="#F7993C" transform="translate(-170.271 -171.313)"/><path d="M202.41 181.075C202.535 180.937 202.659 180.797 202.784 180.659 202.268 181.231 201.751 181.802 201.247 182.377L201.388 182.22C201.723 181.837 202.068 181.458 202.41 181.075Z" id="Trazado_9013" fill="#F7993C" transform="translate(-168.029 -174.066)"/><path d="M189.457 261.863C190.83 240.941 197.796 220.772 209.627 203.463 214.291 196.538 219.562 190.043 225.378 184.053L224.184 182.853C201.954 203.6 190.465 232.437 189.457 261.863Z" id="Trazado_9014" fill="#F7993C" transform="translate(-173.387 -173.068)"/><path d="M195.976 188.84 196.044 188.748C195.613 189.327 195.195 189.909 194.774 190.49 194.829 190.414 194.886 190.339 194.94 190.263 195.284 189.788 195.626 189.312 195.976 188.84Z" id="Trazado_9015" fill="#F7993C" transform="translate(-170.97 -170.365)"/><path d="M204.082 179.323C204.313 179.074 204.545 178.823 204.782 178.578 204.19 179.205 203.597 179.832 203.018 180.462 203.063 180.413 203.111 180.362 203.156 180.315 203.458 179.983 203.772 179.653 204.082 179.323Z" id="Trazado_9016" fill="#F7993C" transform="translate(-167.225 -175.012)"/><path d="M205.308 178.267C205.999 177.551 206.694 176.837 207.403 176.127L207.403 176.127C206.536 176.994 205.684 177.865 204.846 178.741L204.978 178.606C205.085 178.491 205.2 178.379 205.308 178.267Z" id="Trazado_9017" fill="#F7993C" transform="translate(-166.393 -176.126)"/><path d="M194.55 190.853 194.591 190.792C194.133 191.445 193.691 192.101 193.24 192.759L193.432 192.481C193.8 191.937 194.17 191.393 194.55 190.853Z" id="Trazado_9018" fill="#F7993C" transform="translate(-171.668 -169.432)"/><path d="M193.345 192.887 193.367 192.852C192.7 193.852 192.05 194.858 191.416 195.87L191.425 195.857C192.049 194.861 192.689 193.871 193.345 192.887Z" id="Trazado_9019" fill="#F7993C" transform="translate(-172.497 -168.491)"/><path d="M191.534 195.185C191.234 195.664 190.946 196.145 190.655 196.626 190.918 196.191 191.182 195.755 191.455 195.326Z" id="Trazado_9020" fill="#F7993C" transform="translate(-172.843 -167.427)"/><path d="M182.743 214.917C182.16 216.824 181.621 218.753 181.127 220.706L181.127 220.706C181.62 218.753 182.159 216.824 182.743 214.917Z" id="Trazado_9021" fill="#FCBD72" transform="translate(-177.174 -158.417)"/><path d="M179.034 238.261 179.034 238.248C179.134 237.205 179.246 236.168 179.369 235.138 179.41 234.792 179.452 234.449 179.494 234.105 179.616 233.141 179.743 232.179 179.885 231.226 179.918 230.992 179.958 230.762 179.994 230.526 180.533 227.015 181.208 223.575 182.019 220.206 182.103 219.796 182.191 219.386 182.298 218.986 180.064 228.002 178.783 237.227 178.474 246.51 178.58 243.715 178.776 240.97 179.034 238.261Z" id="Trazado_9022" fill="#FCBD72" transform="translate(-178.379 -156.522)"/><path d="M178.421 241.846C178.436 240.533 178.456 239.221 178.504 237.928 178.456 239.224 178.424 240.53 178.409 241.846Z" id="Trazado_9023" fill="#FCBD72" transform="translate(-178.409 -147.915)"/><path d="M195.925 188.811C195.574 189.284 195.233 189.759 194.889 190.235 195.232 189.759 195.574 189.284 195.925 188.811Z" id="Trazado_9024" fill="#FCBD72" transform="translate(-170.919 -170.336)"/><path d="M204.038 179.09C203.728 179.42 203.414 179.75 203.109 180.082 203.414 179.75 203.729 179.42 204.038 179.09Z" id="Trazado_9025" fill="#FCBD72" transform="translate(-167.182 -174.779)"/><path d="M190.175 197.664C189.742 198.416 189.311 199.164 188.894 199.926 189.311 199.168 189.742 198.416 190.175 197.664Z" id="Trazado_9026" fill="#FCBD72" transform="translate(-173.643 -166.295)"/><path d="M197.446 186.809C197.1 187.253 196.759 187.698 196.421 188.143 196.76 187.7 197.1 187.253 197.446 186.809Z" id="Trazado_9027" fill="#FCBD72" transform="translate(-170.222 -171.27)"/><path d="M199.035 184.828C198.688 185.253 198.343 185.678 198.001 186.104 198.343 185.677 198.688 185.252 199.035 184.828Z" id="Trazado_9028" fill="#FCBD72" transform="translate(-169.504 -172.171)"/><path d="M202.366 180.945C202.024 181.328 201.679 181.707 201.343 182.09 201.679 181.707 202.024 181.328 202.366 180.945Z" id="Trazado_9029" fill="#FCBD72" transform="translate(-167.985 -173.936)"/><path d="M184.128 213.124C184.945 210.857 185.831 208.622 186.785 206.417 185.042 210.45 183.524 214.577 182.238 218.778 182.822 216.871 183.452 214.986 184.128 213.124Z" id="Trazado_9030" fill="#FCBD72" transform="translate(-176.668 -162.293)"/><path d="M188.93 199.858C188.517 200.621 188.112 201.388 187.715 202.158 188.109 201.387 188.516 200.622 188.93 199.858Z" id="Trazado_9031" fill="#FCBD72" transform="translate(-174.179 -165.294)"/><path d="M200.679 182.871C200.331 183.271 199.979 183.681 199.643 184.087 199.983 183.681 200.331 183.275 200.679 182.871Z" id="Trazado_9032" fill="#FCBD72" transform="translate(-168.758 -173.06)"/><path d="M193.342 192.876C192.687 193.861 192.047 194.851 191.422 195.846 192.046 194.85 192.686 193.86 193.342 192.876Z" id="Trazado_9033" fill="#FCBD72" transform="translate(-172.494 -168.48)"/><path d="M186.742 204.216C186.317 205.122 185.905 206.033 185.506 206.949 185.906 206.033 186.318 205.122 186.742 204.216Z" id="Trazado_9034" fill="#FCBD72" transform="translate(-175.183 -163.304)"/><path d="M191.69 195.279C191.421 195.712 191.158 196.149 190.89 196.579 190.622 197.009 190.374 197.424 190.123 197.85 190.636 196.991 191.159 196.134 191.69 195.279Z" id="Trazado_9035" fill="#FCBD72" transform="translate(-173.082 -167.384)"/><path d="M187.791 202.03C187.381 202.846 186.981 203.665 186.591 204.487 186.98 203.663 187.383 202.846 187.791 202.03Z" id="Trazado_9036" fill="#FCBD72" transform="translate(-174.691 -164.302)"/><path d="M227.027 183.517 224.916 181.404C221.657 183.874 218.536 186.52 215.566 189.331 193.066 208.261 182.828 237.931 183.212 267.436 183.426 266.689 183.745 265.977 184.159 265.32 186.504 261.928 185.401 265.12 185.401 265.12 185.308 265.962 185.271 266.81 185.289 267.657L192.099 267.657C192.13 265.941 192.191 264.227 192.299 262.514 193.308 233.093 204.8 204.257 227.027 183.517Z" id="Trazado_9037" fill="#FCBD72" transform="translate(-176.231 -173.727)"/><path d="M205.266 177.6C205.157 177.712 205.043 177.824 204.936 177.937 205.044 177.822 205.157 177.71 205.266 177.6Z" id="Trazado_9038" fill="#FCBD72" transform="translate(-166.352 -175.457)"/><path d="M194.49 190.834C194.11 191.374 193.742 191.918 193.371 192.462 193.742 191.918 194.11 191.374 194.49 190.834Z" id="Trazado_9039" fill="#FCBD72" transform="translate(-171.608 -169.413)"/><path d="M243.029 223.8C243.586 225.147 245.342 226.175 246.683 225.583 246.852 225.503 247.025 225.432 247.201 225.366 247.239 225.351 247.601 225.266 247.681 225.228L247.73 225.228C247.782 225.228 247.91 225.228 248.018 225.243L248.046 225.255C248.086 225.294 248.127 225.331 248.171 225.366L248.203 225.392C248.228 225.428 248.264 225.478 248.321 225.551 248.341 225.576 248.821 226.326 248.558 225.861 248.775 226.252 249.051 226.607 249.374 226.916 250.09 226.174 250.26 225.061 249.799 224.139 248.998 222.431 247.653 221.037 245.975 220.174 245.793 220.094 245.608 220.024 245.419 219.963 245.105 220.054 244.798 220.165 244.498 220.295 243.145 220.809 242.464 222.322 242.978 223.676 242.994 223.718 243.011 223.759 243.029 223.8Z" id="Trazado_9040" fill="#FFDCA9" transform="translate(-149.141 -156.113)"/><path d="M231.9 230.167C232.703 229.027 232.614 227.484 231.686 226.443 230.883 227.583 230.972 229.126 231.9 230.167Z" id="Trazado_9041" fill="#FFDCA9" transform="translate(-154.442 -153.158)"/><path d="M238.568 235.3C238.126 235.86 237.944 236.582 238.068 237.284 238.179 237.982 238.526 238.621 239.05 239.095 239.097 239.05 239.15 239.012 239.193 238.964L239.772 238.385C240.214 237.825 240.396 237.103 240.272 236.401 240.161 235.703 239.815 235.064 239.292 234.59 239.244 234.635 239.192 234.673 239.148 234.721Z" id="Trazado_9042" fill="#FFDCA9" transform="translate(-151.307 -149.43)"/><path d="M257.744 228.416C257.944 228.628 258.128 228.845 258.307 229.072 258.367 229.148 258.618 229.572 258.669 229.638 258.819 229.946 258.947 230.265 259.069 230.582 259.24 231.009 259.511 231.389 259.859 231.69 260.267 231.232 260.497 230.643 260.508 230.03L256.287 225.81C256.378 226.676 256.776 227.48 257.41 228.076 257.427 228.095 257.627 228.3 257.744 228.416Z" id="Trazado_9043" fill="#FFDCA9" transform="translate(-143.012 -153.444)"/><path d="M234.973 234.027C237.143 230.356 239.7 226.927 242.6 223.8 243.39 223.71 244.157 223.472 244.86 223.1 245.916 222.6 246.927 222.029 247.935 221.453 249.202 220.729 249.26 218.774 248.379 217.591 248.237 217.404 248.075 217.232 247.896 217.08 249.303 215.06 250.622 212.947 251.896 210.78L225.249 184.094C205.718 203.275 194.47 229.768 191.529 256.273 191.218 259.69 191.074 263.08 191.075 266.44L235.784 266.44C234.884 262.297 234.037 258.152 233.284 254.006 232.008 247.007 231.643 240.171 234.973 234.027Z" id="Trazado_9044" fill="#FFDCA9" transform="translate(-172.653 -172.506)"/><path d="M178.417 244.432 178.442 244.432C178.449 244.093 178.449 243.744 178.459 243.407 178.517 239.596 178.717 235.874 179.059 232.239 178.802 234.949 178.605 237.693 178.5 240.493L178.5 240.513C178.452 241.807 178.432 243.119 178.417 244.432Z" id="Trazado_9045" fill="#F9AB55" transform="translate(-178.405 -150.501)"/><path d="M178.86 233.2C178.96 232.156 179.072 231.121 179.195 230.09 179.072 231.122 178.959 232.159 178.86 233.2Z" id="Trazado_9046" fill="#F9AB55" transform="translate(-178.204 -151.476)"/><path d="M179.176 230.282C179.298 229.318 179.425 228.356 179.567 227.403 179.425 228.356 179.3 229.317 179.176 230.282Z" id="Trazado_9047" fill="#F9AB55" transform="translate(-178.06 -152.72)"/><path d="M181.545 219.83C180.735 223.2 180.06 226.64 179.52 230.15 180.037 226.805 180.675 223.524 181.436 220.309 181.465 220.147 181.511 219.991 181.545 219.83Z" id="Trazado_9048" fill="#F9AB55" transform="translate(-177.904 -156.17)"/><path d="M181.445 238.419C182.53 238.348 182.974 239.092 182.52 240.926 180.625 250.513 180.02 260.31 180.72 270.058L184.4 270.058C184.422 269.984 184.444 269.908 184.467 269.835 184.083 240.335 194.324 210.666 216.821 191.735 219.791 188.925 222.912 186.279 226.171 183.809L218.494 176.124C217.786 176.835 217.094 177.55 216.399 178.266 216.29 178.378 216.176 178.49 216.069 178.604L215.937 178.739C215.637 179.057 215.337 179.375 215.037 179.693 214.803 179.941 214.572 180.193 214.337 180.439 214.027 180.77 213.713 181.1 213.408 181.432 213.363 181.481 213.315 181.532 213.27 181.579 212.921 181.959 212.581 182.342 212.236 182.724 212.111 182.862 211.987 183.002 211.862 183.141 211.52 183.524 211.175 183.904 210.839 184.287L210.698 184.444C210.34 184.852 209.988 185.262 209.635 185.672 209.556 185.762 209.481 185.854 209.402 185.946 209.054 186.346 208.702 186.757 208.366 187.164 208.318 187.219 208.266 187.276 208.221 187.333 207.866 187.757 207.514 188.182 207.165 188.609 207.113 188.672 207.065 188.734 207.012 188.797 206.665 189.222 206.32 189.648 205.978 190.074 205.93 190.135 205.878 190.195 205.83 190.256 205.488 190.686 205.146 191.115 204.81 191.546 204.774 191.591 204.74 191.636 204.71 191.681 204.364 192.125 204.023 192.571 203.685 193.016L203.528 193.216C203.204 193.643 202.879 194.071 202.561 194.501L202.493 194.593C202.142 195.066 201.801 195.543 201.457 196.019 201.403 196.095 201.346 196.17 201.291 196.246 200.997 196.657 200.698 197.066 200.408 197.478L200.367 197.539C199.987 198.079 199.619 198.624 199.248 199.169L199.056 199.447C198.823 199.791 198.585 200.133 198.356 200.478L198.334 200.513C197.679 201.499 197.039 202.49 196.414 203.487L196.405 203.5C196.326 203.625 196.254 203.75 196.177 203.876L196.094 204.013C195.563 204.869 195.039 205.727 194.532 206.592 194.357 206.892 194.192 207.192 194.019 207.486 193.586 208.239 193.155 208.992 192.738 209.751 192.568 210.06 192.403 210.371 192.238 210.682 191.825 211.447 191.418 212.213 191.023 212.982 190.876 213.269 190.734 213.557 190.588 213.844 190.179 214.661 189.776 215.48 189.388 216.304 189.273 216.545 189.16 216.786 189.048 217.028 188.625 217.935 188.213 218.848 187.812 219.765L187.607 220.234C186.656 222.443 185.77 224.682 184.95 226.949 184.274 228.816 183.644 230.703 183.061 232.61L183.061 232.61C182.474 234.527 181.936 236.463 181.445 238.419Z" id="Trazado_9049" fill="#F9AB55" transform="translate(-177.487 -176.126)"/><path d="M181.135 218.9C181.123 218.945 181.116 218.992 181.104 219.037L181.137 218.9Z" id="Trazado_9050" fill="#FFE6C5" opacity="0.76" transform="translate(-177.184 -156.605)"/><path d="M179.445 227.62C179.478 227.386 179.518 227.156 179.554 226.92 179.518 227.156 179.478 227.386 179.445 227.62Z" id="Trazado_9051" fill="#FCBD72" transform="translate(-177.938 -152.941)"/><path d="M179.445 227.62C179.478 227.386 179.518 227.156 179.554 226.92 179.518 227.156 179.478 227.386 179.445 227.62Z" id="Trazado_9052" fill="#FFE6C5" opacity="0.76" transform="translate(-177.938 -152.941)"/><path d="M179.09 230.415C179.131 230.069 179.173 229.726 179.215 229.382 179.173 229.725 179.131 230.069 179.09 230.415Z" id="Trazado_9053" fill="#FCBD72" transform="translate(-178.099 -151.799)"/><path d="M179.09 230.415C179.131 230.069 179.173 229.726 179.215 229.382 179.173 229.725 179.131 230.069 179.09 230.415Z" id="Trazado_9054" fill="#FFE6C5" opacity="0.76" transform="translate(-178.099 -151.799)"/><path d="M178.859 232.243 178.859 232.243Z" id="Trazado_9055" fill="#FCBD72" transform="translate(-178.204 -150.505)"/><path d="M178.859 232.243 178.859 232.243Z" id="Trazado_9056" fill="#FFE6C5" opacity="0.76" transform="translate(-178.204 -150.505)"/><path d="M180.912 220.254C181.021 219.805 181.112 219.346 181.229 218.898L181.229 218.898 181.196 219.035C181.084 219.434 181 219.844 180.912 220.254Z" id="Trazado_9057" fill="#FCBD72" transform="translate(-177.271 -156.604)"/><path d="M180.912 220.254C181.021 219.805 181.112 219.346 181.229 218.898L181.229 218.898 181.196 219.035C181.084 219.434 181 219.844 180.912 220.254Z" id="Trazado_9058" fill="#FFE6C5" opacity="0.76" transform="translate(-177.271 -156.604)"/><path d="M183.43 221.4C183.884 219.569 183.44 218.825 182.355 218.9L182.355 218.9C182.242 219.348 182.147 219.806 182.038 220.256 182.005 220.417 181.958 220.573 181.929 220.735 181.164 223.952 180.525 227.233 180.013 230.576 179.977 230.807 179.937 231.037 179.904 231.276 179.761 232.229 179.635 233.19 179.513 234.155 179.471 234.498 179.429 234.842 179.388 235.188 179.266 236.219 179.151 237.253 179.053 238.298L179.053 238.311C178.711 241.947 178.511 245.67 178.453 249.479 178.443 249.816 178.443 250.166 178.436 250.504L181.63 250.504C180.929 240.766 181.535 230.978 183.43 221.4Z" id="Trazado_9059" fill="#F9AB55" transform="translate(-178.398 -156.566)"/><path d="M183.43 221.4C183.884 219.569 183.44 218.825 182.355 218.9L182.355 218.9C182.242 219.348 182.147 219.806 182.038 220.256 182.005 220.417 181.958 220.573 181.929 220.735 181.164 223.952 180.525 227.233 180.013 230.576 179.977 230.807 179.937 231.037 179.904 231.276 179.761 232.229 179.635 233.19 179.513 234.155 179.471 234.498 179.429 234.842 179.388 235.188 179.266 236.219 179.151 237.253 179.053 238.298L179.053 238.311C178.711 241.947 178.511 245.67 178.453 249.479 178.443 249.816 178.443 250.166 178.436 250.504L181.63 250.504C180.929 240.766 181.535 230.978 183.43 221.4Z" id="Trazado_9060" fill="#FFE6C5" opacity="0.76" transform="translate(-178.398 -156.566)"/><path d="M209.652 197C197.822 214.278 190.856 234.419 189.482 255.313 189.422 257.024 189.392 258.737 189.405 260.449L191.305 260.449C191.151 237.969 197.525 215.928 209.652 197Z" id="Trazado_9061" fill="#F7993C" transform="translate(-173.412 -166.517)"/><path d="M209.652 197C197.822 214.278 190.856 234.419 189.482 255.313 189.422 257.024 189.392 258.737 189.405 260.449L191.305 260.449C191.151 237.969 197.525 215.928 209.652 197Z" id="Trazado_9062" fill="#FFB476" opacity="0.33" transform="translate(-173.412 -166.517)"/><path d="M189.52 237.091C189.411 238.802 189.35 240.513 189.32 242.227L189.444 242.227C189.43 240.515 189.46 238.8 189.52 237.091Z" id="Trazado_9063" fill="#FCBD72" transform="translate(-173.45 -148.295)"/><path d="M189.52 237.091C189.411 238.802 189.35 240.513 189.32 242.227L189.444 242.227C189.43 240.515 189.46 238.8 189.52 237.091Z" id="Trazado_9064" fill="#FFB476" opacity="0.33" transform="translate(-173.45 -148.295)"/><path d="M191.69 256.459C194.631 229.954 205.879 203.459 225.41 184.281L224.81 183.681C218.994 189.67 213.723 196.165 209.059 203.089 196.931 222.051 190.56 244.123 190.716 266.631L191.24 266.631C191.235 263.266 191.379 259.876 191.69 256.459Z" id="Trazado_9065" fill="#FFDCA9" transform="translate(-172.817 -172.694)"/><path d="M191.69 256.459C194.631 229.954 205.879 203.459 225.41 184.281L224.81 183.681C218.994 189.67 213.723 196.165 209.059 203.089 196.931 222.051 190.56 244.123 190.716 266.631L191.24 266.631C191.235 263.266 191.379 259.876 191.69 256.459Z" id="Trazado_9066" fill="#FFB476" opacity="0.33" transform="translate(-172.817 -172.694)"/><path d="M249.542 227.741C249.948 227.591 250.308 227.339 250.586 227.008 250.263 226.699 249.987 226.344 249.77 225.953 250.029 226.418 249.553 225.668 249.533 225.643 249.476 225.57 249.44 225.521 249.415 225.484L249.383 225.458C249.339 225.423 249.298 225.386 249.258 225.347L249.23 225.335C249.122 225.325 248.994 225.323 248.942 225.32L248.893 225.32C248.81 225.353 248.451 225.444 248.413 225.458 248.237 225.523 248.064 225.595 247.895 225.675 246.554 226.267 244.795 225.239 244.241 223.892 243.656 222.568 244.254 221.02 245.578 220.435 245.622 220.416 245.666 220.398 245.71 220.381 246.01 220.251 246.317 220.14 246.631 220.049 245.044 219.567 243.335 219.686 241.831 220.385 240.478 220.897 239.796 222.409 240.308 223.763 240.325 223.807 240.343 223.851 240.362 223.895 240.921 225.243 242.676 226.272 244.016 225.678 244.185 225.599 244.358 225.527 244.534 225.463 244.572 225.448 244.934 225.357 245.014 225.325L245.063 225.325C245.117 225.325 245.243 225.325 245.351 225.338L245.379 225.35C245.418 225.39 245.46 225.427 245.504 225.462L245.536 225.487C245.561 225.523 245.597 225.574 245.655 225.646 245.674 225.671 246.155 226.423 245.892 225.957 246.652 227.329 248.021 228.254 249.542 227.741Z" id="Trazado_9067" fill="#FFDCA9" transform="translate(-150.354 -156.205)"/><path d="M249.542 227.741C249.948 227.591 250.308 227.339 250.586 227.008 250.263 226.699 249.987 226.344 249.77 225.953 250.029 226.418 249.553 225.668 249.533 225.643 249.476 225.57 249.44 225.521 249.415 225.484L249.383 225.458C249.339 225.423 249.298 225.386 249.258 225.347L249.23 225.335C249.122 225.325 248.994 225.323 248.942 225.32L248.893 225.32C248.81 225.353 248.451 225.444 248.413 225.458 248.237 225.523 248.064 225.595 247.895 225.675 246.554 226.267 244.795 225.239 244.241 223.892 243.656 222.568 244.254 221.02 245.578 220.435 245.622 220.416 245.666 220.398 245.71 220.381 246.01 220.251 246.317 220.14 246.631 220.049 245.044 219.567 243.335 219.686 241.831 220.385 240.478 220.897 239.796 222.409 240.308 223.763 240.325 223.807 240.343 223.851 240.362 223.895 240.921 225.243 242.676 226.272 244.016 225.678 244.185 225.599 244.358 225.527 244.534 225.463 244.572 225.448 244.934 225.357 245.014 225.325L245.063 225.325C245.117 225.325 245.243 225.325 245.351 225.338L245.379 225.35C245.418 225.39 245.46 225.427 245.504 225.462L245.536 225.487C245.561 225.523 245.597 225.574 245.655 225.646 245.674 225.671 246.155 226.423 245.892 225.957 246.652 227.329 248.021 228.254 249.542 227.741Z" id="Trazado_9068" fill="#EFA765" opacity="0.13" transform="translate(-150.354 -156.205)"/><path d="M239.277 237.544C239.153 236.842 239.335 236.12 239.777 235.56L240.356 234.981C240.404 234.933 240.456 234.895 240.5 234.85 240.452 234.806 240.413 234.757 240.363 234.716 239.792 234.246 239.066 234.003 238.327 234.035 237.607 234.091 236.94 234.432 236.474 234.983L235.895 235.562C235.453 236.122 235.271 236.844 235.395 237.546 235.513 238.311 235.911 239.004 236.512 239.491 237.084 239.961 237.809 240.204 238.548 240.173 239.202 240.127 239.813 239.834 240.259 239.354 239.735 238.88 239.389 238.242 239.277 237.544Z" id="Trazado_9069" fill="#FFDCA9" transform="translate(-152.52 -149.686)"/><path d="M239.277 237.544C239.153 236.842 239.335 236.12 239.777 235.56L240.356 234.981C240.404 234.933 240.456 234.895 240.5 234.85 240.452 234.806 240.413 234.757 240.363 234.716 239.792 234.246 239.066 234.003 238.327 234.035 237.607 234.091 236.94 234.432 236.474 234.983L235.895 235.562C235.453 236.122 235.271 236.844 235.395 237.546 235.513 238.311 235.911 239.004 236.512 239.491 237.084 239.961 237.809 240.204 238.548 240.173 239.202 240.127 239.813 239.834 240.259 239.354 239.735 238.88 239.389 238.242 239.277 237.544Z" id="Trazado_9070" fill="#EFA765" opacity="0.13" transform="translate(-152.52 -149.686)"/><path d="M229.429 230.739C230.219 231.711 231.646 231.858 232.618 231.068 232.814 230.909 232.983 230.717 233.116 230.502 232.188 229.461 232.099 227.918 232.902 226.778 232.837 226.699 232.783 226.619 232.707 226.544 230.066 223.9 226.808 228.118 229.429 230.739Z" id="Trazado_9071" fill="#FFDCA9" transform="translate(-155.659 -153.492)"/><path d="M229.429 230.739C230.219 231.711 231.646 231.858 232.618 231.068 232.814 230.909 232.983 230.717 233.116 230.502 232.188 229.461 232.099 227.918 232.902 226.778 232.837 226.699 232.783 226.619 232.707 226.544 230.066 223.9 226.808 228.118 229.429 230.739Z" id="Trazado_9072" fill="#EFA765" opacity="0.13" transform="translate(-155.659 -153.492)"/><path d="M254.133 224.9C253.166 226.136 253.633 227.709 254.745 228.827 254.762 228.846 254.962 229.048 255.08 229.167 255.277 229.378 255.464 229.596 255.643 229.822 255.703 229.899 255.954 230.322 256.005 230.389 256.155 230.697 256.283 231.014 256.405 231.333 256.989 232.773 258.564 233.541 260.059 233.116 260.452 232.983 260.803 232.749 261.077 232.437 260.729 232.136 260.458 231.756 260.287 231.329 260.165 231.012 260.037 230.693 259.887 230.385 259.836 230.317 259.587 229.895 259.525 229.819 259.346 229.592 259.158 229.375 258.962 229.163 258.844 229.045 258.645 228.842 258.627 228.824 257.993 228.228 257.595 227.424 257.504 226.558L255.127 224.18C254.74 224.332 254.398 224.58 254.133 224.9Z" id="Trazado_9073" fill="#FFDCA9" transform="translate(-144.23 -154.187)"/><path d="M254.133 224.9C253.166 226.136 253.633 227.709 254.745 228.827 254.762 228.846 254.962 229.048 255.08 229.167 255.277 229.378 255.464 229.596 255.643 229.822 255.703 229.899 255.954 230.322 256.005 230.389 256.155 230.697 256.283 231.014 256.405 231.333 256.989 232.773 258.564 233.541 260.059 233.116 260.452 232.983 260.803 232.749 261.077 232.437 260.729 232.136 260.458 231.756 260.287 231.329 260.165 231.012 260.037 230.693 259.887 230.385 259.836 230.317 259.587 229.895 259.525 229.819 259.346 229.592 259.158 229.375 258.962 229.163 258.844 229.045 258.645 228.842 258.627 228.824 257.993 228.228 257.595 227.424 257.504 226.558L255.127 224.18C254.74 224.332 254.398 224.58 254.133 224.9Z" id="Trazado_9074" fill="#EFA765" opacity="0.13" transform="translate(-144.23 -154.187)"/><path d="M277.246 240.666C277.235 241.279 277.005 241.868 276.597 242.326 276.323 242.638 275.972 242.872 275.579 243.005 274.084 243.43 272.509 242.662 271.925 241.222 271.803 240.903 271.675 240.586 271.525 240.278 271.474 240.21 271.225 239.788 271.163 239.711 270.984 239.486 270.797 239.267 270.6 239.056 270.482 238.937 270.283 238.735 270.265 238.716 269.148 237.597 268.685 236.025 269.653 234.789 269.918 234.469 270.261 234.221 270.648 234.069L238.99 202.411C237.72 204.575 236.401 206.684 234.99 208.702 235.169 208.854 235.331 209.026 235.473 209.213 236.354 210.394 236.296 212.346 235.029 213.069 234.021 213.645 233.01 214.22 231.954 214.714 231.251 215.086 230.484 215.323 229.694 215.414 226.794 218.537 224.236 221.961 222.065 225.628 218.734 231.763 219.099 238.589 220.372 245.575 221.127 249.715 221.978 253.854 222.872 257.991L256.982 257.991C257.265 256.994 258.159 256.295 259.194 256.26 259.996 256.247 260.772 256.539 261.368 257.075 261.665 257.33 261.908 257.642 262.085 257.991L294.57 257.991ZM236.8 237.132C236.876 237.208 236.929 237.288 236.995 237.366 237.923 238.407 238.012 239.95 237.209 241.09 236.55 242.155 235.153 242.484 234.088 241.825 233.873 241.692 233.682 241.523 233.522 241.327 230.9 238.706 234.158 234.49 236.8 237.132ZM255.05 233.532C254.992 233.461 254.955 233.41 254.931 233.373L254.899 233.348C254.855 233.313 254.813 233.276 254.774 233.236L254.746 233.224C254.638 233.215 254.512 233.212 254.458 233.211L254.409 233.211C254.326 233.243 253.967 233.335 253.929 233.349 253.753 233.413 253.58 233.486 253.411 233.564 252.071 234.157 250.311 233.129 249.757 231.781 249.172 230.458 249.77 228.91 251.094 228.325 251.137 228.306 251.181 228.288 251.226 228.271 252.73 227.572 254.439 227.452 256.026 227.935 256.215 227.996 256.4 228.066 256.582 228.146 258.26 229.009 259.605 230.403 260.406 232.111 260.867 233.033 260.697 234.146 259.981 234.888 259.703 235.219 259.343 235.471 258.937 235.621 257.416 236.134 256.047 235.209 255.285 233.838 255.545 234.307 255.068 233.555 255.049 233.53ZM243.743 253.865C243.142 253.378 242.744 252.685 242.626 251.92 242.502 251.218 242.684 250.496 243.126 249.936L243.705 249.357C244.171 248.806 244.838 248.465 245.558 248.409 246.297 248.377 247.023 248.62 247.594 249.09 247.643 249.131 247.683 249.18 247.731 249.224 248.254 249.698 248.6 250.337 248.711 251.035 248.835 251.737 248.653 252.459 248.211 253.019L247.632 253.598C247.585 253.646 247.532 253.684 247.489 253.729 247.043 254.209 246.432 254.502 245.778 254.548 245.038 254.578 244.313 254.334 243.742 253.863Z" id="Trazado_9075" fill="#FFE1B0" transform="translate(-159.75 -164.058)"/><path d="M184.177 239.5C183.763 240.156 183.444 240.867 183.23 241.613 183.207 241.686 183.185 241.761 183.163 241.836L185.307 241.836C185.289 240.99 185.326 240.143 185.419 239.302 185.419 239.302 186.522 236.115 184.177 239.5Z" id="Trazado_9076" fill="#FFE4B8" transform="translate(-176.248 -147.907)"/></g><g id="Grupo_2180" transform="translate(15.231 9.113)"><g id="Grupo_2179"><g id="Grupo_2174"><path d="M223.849 182.391C222.649 183.536 221.449 184.679 220.306 185.872 213.73 192.696 207.979 200.269 203.172 208.436L203.159 208.462C200.411 213.113 198.018 217.964 196 222.975 195.635 223.916 195.27 224.855 194.916 225.775L194.891 225.826C190.12 239.208 188.137 253.424 189.064 267.601L301.485 267.601C303.885 267.423 306.27 267.337 308.65 267.317Z" id="Trazado_9077" fill="#E84B1A" transform="translate(-188.88 -182.391)"/></g><g id="Grupo_2175" transform="translate(17.159 13.583)"><path d="M231.948 191.646C231.417 192.161 230.888 192.669 230.348 193.217 224.686 198.955 218.687 203.531 214.841 211.276 211.013 218.988 209.708 226.889 207.789 235.071 205.809 243.513 200.396 251.046 200.689 259.494 200.733 260.755 200.83 262.013 200.955 263.268L296.123 263.268C298.523 263.091 300.908 263.005 303.288 262.984Z" id="Trazado_9078" fill="#E5461C" transform="translate(-200.677 -191.646)"/></g><g id="Grupo_2176" opacity="0.15" transform="translate(18.584 16.257)"><path d="M234.179 193.485C233.232 194.394 232.287 195.309 231.322 196.285 225.66 202.022 219.661 206.599 215.815 214.344 211.987 222.056 210.682 229.957 208.763 238.139 206.794 246.539 201.431 254.039 201.663 262.431L295.676 262.431C298.076 262.254 300.461 262.168 302.841 262.147Z" id="Trazado_9079" fill="#FC8332" transform="translate(-201.657 -193.485)"/></g><path d="M243.919 205.568C241.752 207.652 239.665 209.818 237.557 211.74 232.828 216.053 233.141 223.64 230.233 229.5 227.34 235.328 223.44 240.242 222.275 246.761 221.666 250.167 220.159 253.554 218.895 256.941L287.842 256.941C290.242 256.764 292.627 256.678 295.007 256.657Z" id="Trazado_9080" fill="#E5461C" transform="translate(-175.238 -171.736)"/><path d="M239.153 201.536C238.484 202.189 237.816 202.836 237.146 203.452 232.416 207.763 232.73 215.352 229.821 221.212 226.929 227.039 223.028 231.952 221.865 238.471 220.702 244.99 216.028 251.44 216.511 257.971 216.531 258.24 216.565 258.505 216.606 258.771L288.942 258.771C291.342 258.594 293.727 258.508 296.107 258.487Z" id="Trazado_9081" fill="#E84B1A" transform="translate(-176.338 -173.568)"/><g id="Grupo_2177" transform="translate(76.484 51.598)"><path d="M251.426 217.782C249.323 220.768 247.478 223.927 245.912 227.226 242.567 233.965 240.917 240.12 241.627 247.051 241.772 248.478 241.915 249.931 242.066 251.388L277.584 251.388C279.984 251.211 282.369 251.125 284.749 251.104Z" id="Trazado_9082" fill="#E5461C" transform="translate(-241.464 -217.782)"/></g><g id="Grupo_2178" opacity="0.15" transform="translate(76.636 54.629)"><path d="M254.41 219.866C250.928 223.421 248.429 227.88 246.01 232.75 243.01 238.789 241.382 244.363 241.584 250.441L277.535 250.441C279.935 250.264 282.32 250.178 284.7 250.157Z" id="Trazado_9083" fill="#FC8332" transform="translate(-241.568 -219.866)"/></g><path d="M259.086 226.258C256.997 228.577 255.236 231.171 253.85 233.967 251.846 238.191 251.22 242.937 252.062 247.536L272.917 247.536C275.317 247.359 277.702 247.273 280.082 247.252Z" id="Trazado_9084" fill="#E5461C" transform="translate(-160.313 -162.332)"/><path d="M256.949 224.48C255.366 226.458 254 228.6 252.875 230.87 250.106 236.45 250.33 242.452 251.899 248.345L273.366 248.345C275.766 248.168 278.15 248.082 280.53 248.061Z" id="Trazado_9085" fill="#E84B1A" transform="translate(-160.76 -163.14)"/></g><path d="M244.974 241.328C244.082 240.853 243.743 239.744 244.219 238.851 244.694 237.959 245.803 237.621 246.696 238.096 247.571 238.562 247.916 239.64 247.474 240.528 247.003 241.438 245.885 241.796 244.974 241.328Z" id="Trazado_9086" fill="#F96430" opacity="0.947" transform="translate(-163.867 -157.064)"/><path d="M244.782 239.284C244.999 238.837 245.538 238.651 245.985 238.868 246.432 239.085 246.618 239.624 246.401 240.071 246.184 240.518 245.645 240.704 245.198 240.487 245.196 240.486 245.194 240.485 245.192 240.484 244.749 240.265 244.566 239.729 244.782 239.284Z" id="Trazado_9087" fill="#FFBB71" opacity="0.947" transform="translate(-163.514 -156.635)"/><path d="M261.457 239.225C260.556 238.738 260.221 237.613 260.708 236.712 261.195 235.812 262.32 235.476 263.221 235.964 264.099 236.439 264.444 237.524 264 238.418 263.521 239.343 262.383 239.704 261.458 239.226 261.458 239.225 261.457 239.225 261.457 239.225Z" id="Trazado_9088" fill="#F96430" opacity="0.914" transform="translate(-156.384 -158.041)"/><path d="M261.247 237.146C261.467 236.68 262.024 236.481 262.489 236.702 262.955 236.922 263.154 237.478 262.934 237.944 262.713 238.41 262.157 238.609 261.691 238.388 261.686 238.386 261.681 238.384 261.676 238.381 261.218 238.157 261.026 237.606 261.247 237.146Z" id="Trazado_9089" fill="#FFBB71" opacity="0.914" transform="translate(-156.031 -157.611)"/><path d="M255.42 224.684C255.241 224.85 255.092 225.046 254.981 225.264 254.454 226.385 254.935 227.722 256.056 228.25 256.905 228.681 257.932 228.539 258.633 227.895Z" id="Trazado_9090" fill="#F96430" opacity="0.685" transform="translate(-158.937 -163.077)"/><path d="M248.091 238.241C247.23 237.799 246.89 236.743 247.332 235.882 247.773 235.022 248.829 234.682 249.69 235.123 250.543 235.561 250.886 236.602 250.46 237.461 250.021 238.33 248.961 238.68 248.091 238.241Z" id="Trazado_9091" fill="#F96430" opacity="0.749" transform="translate(-162.419 -158.396)"/><path d="M247.963 236.317C248.169 235.932 248.648 235.786 249.033 235.992 249.419 236.197 249.564 236.677 249.359 237.062 249.157 237.439 248.692 237.588 248.309 237.398 247.916 237.197 247.76 236.715 247.961 236.322 247.961 236.32 247.962 236.319 247.963 236.317Z" id="Trazado_9092" fill="#FFBB71" opacity="0.749" transform="translate(-162.065 -157.967)"/><path d="M242.417 229.347C241.328 228.74 240.938 227.365 241.546 226.276 242.153 225.188 243.528 224.798 244.616 225.405 245.668 225.992 246.074 227.301 245.538 228.38 244.943 229.508 243.546 229.941 242.417 229.347Z" id="Trazado_9093" fill="#F96430" opacity="0.331" transform="translate(-165.157 -162.91)"/><path d="M241.983 226.71C242.29 226.01 243.106 225.691 243.806 225.998 244.506 226.305 244.825 227.121 244.518 227.821 244.212 228.521 243.395 228.84 242.695 228.533 242.675 228.524 242.655 228.515 242.635 228.505 241.96 228.188 241.669 227.386 241.983 226.71Z" id="Trazado_9094" fill="#FFBB71" opacity="0.331" transform="translate(-164.804 -162.48)"/><path d="M256.944 226.263C256.838 226.382 256.747 226.513 256.673 226.654 256.164 227.732 256.625 229.018 257.703 229.527 257.703 229.527 257.703 229.527 257.703 229.527 258.447 229.905 259.34 229.827 260.008 229.327Z" id="Trazado_9095" fill="#F96430" opacity="0.959" transform="translate(-158.164 -162.356)"/><path d="M215.775 185.016C215.564 185.199 215.391 185.421 215.266 185.671 214.734 186.8 215.217 188.146 216.345 188.679 217.232 189.13 218.308 188.955 219.007 188.248Z" id="Trazado_9096" fill="#F96430" opacity="0.858" transform="translate(-176.989 -181.198)"/><path d="M225.814 208.618C224.791 208.072 224.404 206.8 224.95 205.777 225.496 204.753 226.769 204.367 227.792 204.913 228.795 205.448 229.19 206.685 228.682 207.703 228.142 208.747 226.859 209.157 225.814 208.618Z" id="Trazado_9097" fill="#F96430" opacity="0.772" transform="translate(-172.647 -172.234)"/><path d="M225.492 206.215C225.771 205.627 226.473 205.376 227.061 205.655 227.649 205.933 227.9 206.636 227.621 207.224 227.343 207.811 226.64 208.062 226.052 207.784 226.046 207.781 226.039 207.777 226.032 207.774 225.453 207.492 225.211 206.795 225.492 206.215Z" id="Trazado_9098" fill="#FFBB71" opacity="0.772" transform="translate(-172.294 -171.804)"/><path d="M252.3 237.66C251.425 237.195 251.093 236.108 251.559 235.234 252.024 234.359 253.111 234.027 253.985 234.492 254.843 234.949 255.182 236.005 254.749 236.875 254.289 237.768 253.193 238.119 252.3 237.66Z" id="Trazado_9099" fill="#F96430" opacity="0.484" transform="translate(-160.526 -158.699)"/><path d="M252.131 235.667C252.341 235.241 252.857 235.066 253.283 235.276 253.709 235.486 253.884 236.001 253.674 236.427 253.464 236.853 252.948 237.029 252.522 236.819 252.522 236.818 252.521 236.818 252.521 236.818 252.096 236.607 251.922 236.093 252.131 235.667Z" id="Trazado_9100" fill="#FFBB71" opacity="0.484" transform="translate(-160.172 -158.27)"/><path d="M238.66 238.573C237.756 238.084 237.42 236.955 237.909 236.051 238.398 235.147 239.527 234.81 240.431 235.3 241.313 235.776 241.658 236.865 241.213 237.763 240.732 238.692 239.589 239.054 238.66 238.573Z" id="Trazado_9101" fill="#F96430" opacity="0.967" transform="translate(-166.748 -158.343)"/><path d="M238.447 236.485C238.669 236.015 239.23 235.814 239.7 236.036 240.17 236.258 240.371 236.819 240.149 237.289 239.927 237.759 239.366 237.96 238.896 237.738 238.891 237.735 238.885 237.733 238.88 237.73 238.417 237.505 238.223 236.948 238.447 236.485Z" id="Trazado_9102" fill="#FFBB71" opacity="0.967" transform="translate(-166.394 -157.914)"/><path d="M227.043 240.377C227.319 239.768 228.037 239.498 228.646 239.773 229.255 240.049 229.525 240.767 229.249 241.376 228.973 241.985 228.256 242.256 227.646 241.98 227.633 241.974 227.62 241.967 227.607 241.961 227.014 241.679 226.762 240.97 227.043 240.377Z" id="Trazado_9103" fill="#FFBB71" opacity="0.643" transform="translate(-171.588 -156.204)"/><path d="M211.265 203.07C210.178 202.47 209.782 201.102 210.382 200.014 210.983 198.927 212.351 198.532 213.438 199.132 214.493 199.714 214.902 201.024 214.365 202.103 213.775 203.224 212.388 203.657 211.265 203.07Z" id="Trazado_9104" fill="#F96430" opacity="0.467" transform="translate(-179.311 -174.902)"/><path d="M210.843 200.447C211.15 199.758 211.958 199.449 212.647 199.756 213.336 200.063 213.645 200.871 213.338 201.56 213.031 202.249 212.223 202.558 211.534 202.251 211.517 202.243 211.5 202.235 211.483 202.227 210.815 201.912 210.529 201.115 210.843 200.447Z" id="Trazado_9105" fill="#FFBB71" opacity="0.467" transform="translate(-178.958 -174.472)"/><path d="M205.189 215.505C204.01 214.846 203.587 213.356 204.246 212.177 204.905 210.997 206.395 210.575 207.574 211.234 208.714 211.87 209.153 213.289 208.572 214.458 207.926 215.68 206.412 216.148 205.189 215.505Z" id="Trazado_9106" fill="#F96430" opacity="0.589" transform="translate(-182.129 -169.395)"/><path d="M204.661 212.61C205.011 211.809 205.945 211.444 206.746 211.794 207.547 212.144 207.912 213.078 207.562 213.879 207.211 214.68 206.278 215.045 205.477 214.695 205.453 214.684 205.43 214.673 205.407 214.662 204.636 214.3 204.303 213.383 204.661 212.61Z" id="Trazado_9107" fill="#FFBB71" opacity="0.589" transform="translate(-181.776 -168.965)"/><path d="M230.652 226.306C229.633 225.742 229.264 224.458 229.829 223.439 230.393 222.42 231.676 222.052 232.695 222.616 233.682 223.162 234.064 224.388 233.563 225.398 233.009 226.452 231.707 226.858 230.652 226.306Z" id="Trazado_9108" fill="#F96430" opacity="0.453" transform="translate(-170.462 -164.169)"/><path d="M230.3 223.873C230.574 223.257 231.296 222.98 231.912 223.254 232.528 223.528 232.805 224.249 232.531 224.865 232.257 225.482 231.536 225.759 230.919 225.485 230.904 225.478 230.888 225.471 230.873 225.463 230.278 225.18 230.022 224.47 230.3 223.873Z" id="Trazado_9109" fill="#FFBB71" opacity="0.453" transform="translate(-170.109 -163.74)"/><path d="M240.3 220.881C239.31 220.339 238.947 219.098 239.488 218.108 240.03 217.118 241.271 216.755 242.261 217.296 243.224 217.823 243.598 219.016 243.11 219.998 242.578 221.018 241.32 221.413 240.3 220.881Z" id="Trazado_9110" fill="#F96430" opacity="0.716" transform="translate(-166.054 -166.588)"/><path d="M239.989 218.542C240.252 217.969 240.93 217.717 241.503 217.98 242.076 218.243 242.328 218.921 242.065 219.494 241.802 220.068 241.124 220.319 240.551 220.056 240.541 220.052 240.531 220.047 240.521 220.042 239.96 219.774 239.722 219.103 239.989 218.542Z" id="Trazado_9111" fill="#FFBB71" opacity="0.716" transform="translate(-165.701 -166.159)"/><path d="M213.63 237.625C212.703 237.133 212.351 235.982 212.844 235.056 213.336 234.129 214.487 233.777 215.413 234.269 216.321 234.752 216.68 235.868 216.225 236.789 215.738 237.735 214.578 238.109 213.63 237.625Z" id="Trazado_9112" fill="#F96430" opacity="0.47" transform="translate(-178.13 -158.809)"/><path d="M213.41 235.487C213.646 235.007 214.227 234.81 214.706 235.047 215.186 235.283 215.383 235.863 215.147 236.343 214.91 236.822 214.33 237.02 213.85 236.783 213.85 236.783 213.849 236.782 213.848 236.782 213.37 236.546 213.173 235.967 213.409 235.488 213.41 235.488 213.41 235.487 213.41 235.487Z" id="Trazado_9113" fill="#FFBB71" opacity="0.47" transform="translate(-177.777 -158.38)"/><path d="M206.017 223.857C205.132 223.397 204.787 222.306 205.247 221.42 205.707 220.535 206.798 220.19 207.684 220.65 208.558 221.105 208.907 222.175 208.469 223.057 208.013 223.955 206.916 224.313 206.018 223.858 206.018 223.857 206.017 223.857 206.017 223.857Z" id="Trazado_9114" fill="#F96430" opacity="0.307" transform="translate(-181.56 -165.023)"/><path d="M205.856 221.855C206.073 221.435 206.589 221.27 207.009 221.487 207.429 221.703 207.594 222.22 207.378 222.64 207.163 223.055 206.655 223.222 206.236 223.014 205.812 222.798 205.642 222.28 205.856 221.855Z" id="Trazado_9115" fill="#FFBB71" opacity="0.307" transform="translate(-181.206 -164.593)"/><path d="M224.716 209.766C223.748 209.255 223.377 208.056 223.888 207.088 224.399 206.12 225.598 205.749 226.566 206.26 227.517 206.762 227.895 207.932 227.416 208.895 226.91 209.88 225.702 210.27 224.716 209.766Z" id="Trazado_9116" fill="#F96430" opacity="0.736" transform="translate(-173.111 -171.61)"/><path d="M224.46 207.521C224.715 207.001 225.342 206.786 225.862 207.041 226.382 207.295 226.597 207.923 226.342 208.443 226.088 208.963 225.46 209.178 224.94 208.923 224.939 208.922 224.937 208.922 224.936 208.921 224.418 208.666 224.205 208.039 224.46 207.521Z" id="Trazado_9117" fill="#FFBB71" opacity="0.736" transform="translate(-172.758 -171.179)"/><path d="M232.1 234.533C231.202 234.071 230.848 232.969 231.309 232.07 231.771 231.172 232.874 230.818 233.772 231.279 234.662 231.737 235.019 232.824 234.574 233.72 234.115 234.627 233.008 234.991 232.1 234.533Z" id="Trazado_9118" fill="#F96430" opacity="0.402" transform="translate(-169.708 -160.148)"/><path d="M231.934 232.505C232.158 232.08 232.684 231.916 233.109 232.14 233.534 232.363 233.698 232.889 233.474 233.315 233.254 233.733 232.74 233.899 232.317 233.689 231.885 233.467 231.713 232.938 231.934 232.505Z" id="Trazado_9119" fill="#FFBB71" opacity="0.402" transform="translate(-169.355 -159.72)"/><path d="M218.626 222.438C217.481 221.799 217.071 220.353 217.71 219.208 218.349 218.063 219.795 217.653 220.94 218.292 222.046 218.909 222.473 220.286 221.909 221.421 221.283 222.608 219.814 223.063 218.626 222.438Z" id="Trazado_9120" fill="#F96430" opacity="0.591" transform="translate(-176.002 -166.165)"/><path d="M218.135 219.642C218.468 218.881 219.356 218.534 220.117 218.867 220.879 219.2 221.226 220.088 220.892 220.849 220.559 221.611 219.671 221.958 218.91 221.624 218.888 221.615 218.866 221.605 218.845 221.594 218.111 221.25 217.794 220.377 218.135 219.642Z" id="Trazado_9121" fill="#FFBB71" opacity="0.591" transform="translate(-175.649 -165.736)"/><path d="M216.037 214.528C215.037 214 214.655 212.761 215.183 211.76 215.711 210.76 216.95 210.378 217.95 210.906 218.933 211.425 219.322 212.633 218.828 213.628 218.305 214.647 217.056 215.049 216.037 214.528Z" id="Trazado_9122" fill="#F96430" opacity="0.793" transform="translate(-177.073 -169.492)"/><path d="M215.749 212.2C216.02 211.647 216.689 211.418 217.242 211.689 217.796 211.961 218.024 212.629 217.753 213.183 217.482 213.736 216.813 213.965 216.26 213.693 216.258 213.693 216.257 213.692 216.255 213.691 215.704 213.418 215.478 212.752 215.749 212.2Z" id="Trazado_9123" fill="#FFBB71" opacity="0.793" transform="translate(-176.72 -169.062)"/><path d="M226.646 210.755C225.743 210.288 225.389 209.177 225.857 208.274 226.324 207.371 227.435 207.017 228.338 207.485 229.23 207.946 229.588 209.038 229.141 209.938 228.679 210.852 227.563 211.219 226.649 210.756 226.648 210.756 226.647 210.755 226.646 210.755Z" id="Trazado_9124" fill="#F96430" opacity="0.549" transform="translate(-172.191 -171.034)"/><path d="M226.473 208.709C226.698 208.274 227.233 208.105 227.667 208.33 228.102 208.554 228.272 209.089 228.047 209.524 227.824 209.954 227.297 210.125 226.864 209.909 226.428 209.683 226.254 209.149 226.473 208.709Z" id="Trazado_9125" fill="#FFBB71" opacity="0.549" transform="translate(-171.837 -170.604)"/><path d="M237.81 213.4C236.698 212.785 236.295 211.386 236.91 210.274 237.525 209.163 238.924 208.76 240.036 209.374 241.112 209.969 241.53 211.306 240.984 212.408 240.38 213.557 238.961 214.001 237.81 213.4Z" id="Trazado_9126" fill="#F96430" opacity="0.337" transform="translate(-167.259 -170.231)"/><path d="M237.364 210.705C237.684 209.989 238.523 209.669 239.238 209.988 239.954 210.308 240.275 211.147 239.955 211.863 239.635 212.578 238.796 212.899 238.081 212.579 238.063 212.572 238.046 212.563 238.029 212.555 237.336 212.227 237.039 211.4 237.364 210.705Z" id="Trazado_9127" fill="#FFBB71" opacity="0.337" transform="translate(-166.906 -169.801)"/><path d="M238.885 228.9C237.868 228.358 237.483 227.094 238.025 226.076 238.568 225.059 239.832 224.675 240.849 225.217 241.845 225.748 242.238 226.976 241.736 227.987 241.201 229.026 239.924 229.435 238.885 228.9Z" id="Trazado_9128" fill="#F96430" opacity="0.462" transform="translate(-166.701 -162.963)"/><path d="M238.574 226.512C238.853 225.934 239.547 225.691 240.125 225.97 240.703 226.249 240.946 226.943 240.667 227.521 240.389 228.099 239.694 228.342 239.116 228.063 239.112 228.062 239.109 228.06 239.105 228.058 238.532 227.777 238.295 227.086 238.574 226.512Z" id="Trazado_9129" fill="#FFBB71" opacity="0.462" transform="translate(-166.347 -162.533)"/><path d="M226.646 212.442C225.742 211.961 225.4 210.838 225.881 209.934 226.362 209.03 227.485 208.688 228.389 209.169 229.274 209.641 229.624 210.731 229.178 211.63 228.703 212.553 227.57 212.917 226.646 212.442 226.646 212.442 226.646 212.442 226.646 212.442Z" id="Trazado_9130" fill="#F96430" opacity="0.477" transform="translate(-172.203 -170.277)"/><path d="M226.446 210.369C226.67 209.912 227.222 209.722 227.679 209.946 228.137 210.169 228.326 210.721 228.103 211.179 227.879 211.636 227.327 211.826 226.869 211.602 226.868 211.601 226.866 211.601 226.865 211.6 226.41 211.376 226.222 210.825 226.446 210.369Z" id="Trazado_9131" fill="#FFBB71" opacity="0.477" transform="translate(-171.849 -169.847)"/><path d="M231.717 206.05C230.771 205.55 230.41 204.378 230.91 203.432 231.41 202.487 232.581 202.125 233.527 202.625 234.456 203.116 234.824 204.258 234.357 205.199 233.864 206.163 232.683 206.544 231.719 206.051 231.719 206.051 231.718 206.05 231.717 206.05Z" id="Trazado_9132" fill="#F96430" opacity="0.447" transform="translate(-169.918 -173.268)"/><path d="M231.483 203.867C231.729 203.372 232.329 203.171 232.823 203.416 233.318 203.662 233.52 204.262 233.274 204.757 233.029 205.251 232.43 205.453 231.935 205.208 231.44 204.963 231.237 204.363 231.482 203.868 231.483 203.868 231.483 203.867 231.483 203.867Z" id="Trazado_9133" fill="#FFBB71" opacity="0.447" transform="translate(-169.564 -172.837)"/><path d="M256.4 240.962C255.571 240.54 255.241 239.526 255.663 238.697 256.085 237.869 257.098 237.538 257.927 237.96 258.751 238.379 259.083 239.383 258.672 240.21 258.252 241.045 257.235 241.381 256.4 240.962Z" id="Trazado_9134" fill="#F96430" opacity="0.863" transform="translate(-158.622 -157.101)"/><path d="M256.31 239.131C256.501 238.783 256.937 238.656 257.285 238.846 257.632 239.037 257.76 239.473 257.569 239.821 257.384 240.159 256.965 240.291 256.62 240.119 256.262 239.932 256.123 239.49 256.31 239.131 256.31 239.131 256.31 239.131 256.31 239.131Z" id="Trazado_9135" fill="#FFBB71" opacity="0.863" transform="translate(-158.269 -156.672)"/><path d="M201.38 228.736C200.411 228.219 200.043 227.015 200.56 226.045 201.077 225.076 202.281 224.709 203.251 225.225 204.201 225.731 204.575 226.901 204.097 227.865 203.586 228.854 202.371 229.244 201.38 228.736Z" id="Trazado_9136" fill="#F96430" opacity="0.495" transform="translate(-183.723 -162.954)"/><path d="M201.114 226.478C201.369 225.95 202.005 225.729 202.533 225.985 203.061 226.24 203.281 226.875 203.026 227.403 202.77 227.931 202.135 228.152 201.607 227.897 201.604 227.895 201.601 227.894 201.598 227.892 201.074 227.635 200.857 227.002 201.114 226.478Z" id="Trazado_9137" fill="#FFBB71" opacity="0.495" transform="translate(-183.369 -162.525)"/><path d="M197.566 220.878C196.683 220.422 196.336 219.336 196.792 218.453 197.248 217.57 198.333 217.223 199.217 217.679 200.09 218.129 200.441 219.197 200.004 220.078 199.551 220.972 198.46 221.33 197.566 220.878Z" id="Trazado_9138" fill="#F96430" opacity="0.587" transform="translate(-185.398 -166.379)"/><path d="M197.413 218.885C197.631 218.473 198.142 218.316 198.554 218.534 198.966 218.752 199.123 219.263 198.905 219.675 198.691 220.079 198.194 220.239 197.784 220.036 197.364 219.821 197.198 219.305 197.413 218.885 197.413 218.885 197.413 218.885 197.413 218.885Z" id="Trazado_9139" fill="#FFBB71" opacity="0.587" transform="translate(-185.044 -165.949)"/></g><g id="Grupo_2183" transform="translate(63.301 43.454)"><g id="Grupo_2181" transform="translate(2.731 6.18)"><path d="M236.785 212.794C236.896 212.833 237 212.873 237.105 212.921 237.139 213.048 237.164 213.178 237.182 213.308 237.061 213.128 236.928 212.957 236.785 212.794Z" id="Trazado_9140" fill="#EFE4D0" transform="translate(-217.908 -209.019)"/><path d="M233.193 217C234.407 217.028 235.615 216.815 236.746 216.372 238.628 215.547 238.993 214.289 238.814 213.15 239.386 213.988 239.693 214.978 239.698 215.992 239.743 218.646 236.972 220.472 233.788 221.163 233.43 219.803 233.23 218.406 233.193 217Z" id="Trazado_9141" fill="#6B2F29" transform="translate(-219.54 -208.858)"/><path d="M223.838 215.107C223.7 213.828 224.007 212.541 224.706 211.462 224.926 212.741 225.569 213.908 226.533 214.777 227.26 215.363 228.084 215.816 228.969 216.115 228.852 217.477 228.591 218.823 228.189 220.129 225.8 218.7 224 216.772 223.838 215.107Z" id="Trazado_9142" fill="#6B2F29" transform="translate(-223.807 -209.624)"/><path d="M224.425 212.036C224.873 211.35 225.428 210.739 226.069 210.228 226.969 209.952 228.098 211.688 228.414 211.651 228.579 212.789 228.672 213.936 228.693 215.085 228.731 215.618 228.731 216.152 228.693 216.685 227.808 216.386 226.984 215.933 226.257 215.347 225.292 214.48 224.647 213.314 224.425 212.036Z" id="Trazado_9143" fill="#FFFCF5" transform="translate(-223.525 -210.199)"/><path d="M233.194 217.408C233.145 216.035 233.336 214.664 233.758 213.356 233.892 212.956 234.033 212.591 234.178 212.243 235.623 212.303 237.051 212.573 238.418 213.043 238.562 213.205 238.696 213.377 238.818 213.556 238.997 214.695 238.632 215.956 236.75 216.778 235.618 217.222 234.409 217.436 233.194 217.408Z" id="Trazado_9144" fill="#FFFCF5" transform="translate(-219.541 -209.269)"/></g><g id="Grupo_2182" transform="translate(7.012 0)"><path d="M231.05 219.776C231.76 220.311 233.275 211.202 233.99 206.599 233.148 206.461 232.182 206.336 231.209 206.227 230.524 209.021 230.101 211.873 229.946 214.746 229.808 219.521 230.1 219.06 231.05 219.776Z" id="Trazado_9145" fill="#F4DDD4" transform="translate(-225.312 -205.823)"/><path d="M232.068 224.606C233.616 224.835 235.192 224.775 236.718 224.431 236.358 223.071 236.157 221.674 236.118 220.268 236.069 218.895 236.26 217.524 236.682 216.216 236.816 215.816 236.957 215.451 237.102 215.103 237.015 215.103 236.965 215.093 236.965 215.093 236.965 215.093 239.508 208.085 237.75 207.284 236.997 207.013 236.217 206.826 235.423 206.725 234.709 211.325 233.193 220.437 232.483 219.902 231.535 219.186 231.503 219.702 231.641 214.926 231.72 212.044 232.055 209.176 232.641 206.353 230.744 206.106 228.833 205.978 226.92 205.968 226.295 206.106 227.534 213.558 227.534 213.558 227.534 213.558 227.457 213.567 227.351 213.583 227.516 214.721 227.609 215.868 227.63 217.017 227.668 217.55 227.668 218.084 227.63 218.617 227.513 219.979 227.252 221.325 226.85 222.631 228.451 223.608 230.221 224.278 232.068 224.606Z" id="Trazado_9146" fill="#F2D6C9" transform="translate(-226.75 -205.949)"/></g><path d="M222.106 215.314C222.464 213.357 223.758 211.7 225.569 210.878 226.093 210.612 226.64 210.391 227.202 210.219 226.561 210.73 226.006 211.341 225.558 212.027 224.859 213.106 224.552 214.393 224.69 215.672 224.85 217.337 226.656 219.265 229.042 220.694 230.626 221.642 231.97 220.115 233.763 220.402 235.231 220.641 237.369 222.828 238.908 222.491 242.092 221.8 244.863 219.975 244.818 217.32 244.813 216.306 244.506 215.316 243.934 214.478 243.916 214.348 243.891 214.218 243.857 214.091 245.672 214.831 247.245 216.162 246.933 218.564 246.251 223.853 242.104 230.17 232.721 229.464 223.338 228.758 221.242 220.382 222.106 215.314Z" id="Trazado_9147" fill="#F7EFE4" transform="translate(-221.929 -204.009)"/><path d="M224.131 211.879C223.719 212.864 223.564 213.938 223.68 215 223.857 216.841 225.623 218.939 228.404 220.606 229.11 221.024 229.954 221.142 230.747 220.933 231.034 220.87 231.322 220.782 231.615 220.69 231.874 220.609 232.139 220.524 232.415 220.465 232.738 220.385 233.074 220.367 233.404 220.414 234.05 220.617 234.662 220.916 235.218 221.303 236.406 222.017 237.637 222.758 238.835 222.494 242.913 221.599 245.398 219.327 245.351 216.557 245.343 216.119 245.29 215.684 245.192 215.257 245.808 215.917 246.08 216.827 245.927 217.717 245.429 222.603 241.85 226.618 237.052 227.67 235.569 227.98 234.049 228.072 232.54 227.943 229.542 227.859 226.73 226.471 224.84 224.143 222.874 221.413 222.079 218.011 222.631 214.692 222.803 213.613 223.331 212.623 224.131 211.879Z" id="Trazado_9148" fill="#E2C7B5" transform="translate(-221.686 -203.254)"/><path d="M223.847 211.6C224.531 213.311 221.481 217.95 227.902 221.395 228.789 221.88 229.82 222.029 230.808 221.815 231.116 221.747 231.426 221.652 231.74 221.553 232 221.472 232.233 221.399 232.472 221.345 232.701 221.288 232.938 221.273 233.172 221.303 233.714 221.502 234.23 221.767 234.708 222.091 236.002 222.793 237.423 223.23 238.888 223.375 242.396 223.896 246.05 218.121 244.808 214.806 246.841 217.917 244.779 225.485 236.775 227.04 235.364 227.317 233.921 227.403 232.487 227.296 229.726 227.152 227.144 225.888 225.337 223.796 220.482 218.32 223.789 213.843 223.847 211.6Z" id="Trazado_9149" fill="#EFE4D0" transform="translate(-221.581 -203.382)"/><path d="M234.413 206.515 231.1 219.333 233.453 206.483Z" id="Trazado_9150" fill="#E2C7B5" transform="translate(-217.761 -205.707)"/><path d="M231.577 206.178 229.988 218.524 230.615 206.146Z" id="Trazado_9151" fill="#E2C7B5" transform="translate(-218.266 -205.86)"/></g><g id="Grupo_2186" transform="translate(25.609 58.478)"><g id="Grupo_2184" transform="translate(7.047 4.365)"><path d="M206.654 234.3C206.573 234.412 206.491 234.515 206.401 234.619 206.247 234.613 206.093 234.598 205.94 234.575 206.184 234.499 206.422 234.407 206.654 234.3Z" id="Trazado_9152" fill="#EFC29E" transform="translate(-198.551 -212.405)"/><path d="M205.8 229.467C205.36 230.828 205.194 232.263 205.311 233.688 205.611 236.088 206.902 236.926 208.248 237.108 207.111 237.47 205.892 237.484 204.748 237.147 201.739 236.302 200.613 232.562 200.908 228.737 202.561 228.791 204.203 229.036 205.8 229.467Z" id="Trazado_9153" fill="#6B2407" transform="translate(-200.86 -214.935)"/><path d="M211.7 219.311C213.19 219.586 214.539 220.366 215.52 221.52 214.003 221.336 212.469 221.668 211.164 222.463 210.257 223.086 209.467 223.865 208.832 224.763 207.335 224.172 205.905 223.423 204.567 222.53 206.988 220.317 209.773 218.93 211.7 219.311Z" id="Trazado_9154" fill="#6B2407" transform="translate(-199.172 -219.248)"/><path d="M214.192 220.83C214.815 221.567 215.317 222.399 215.677 223.294 215.686 224.394 213.345 225.089 213.277 225.458 211.938 225.261 210.613 224.979 209.309 224.614 208.694 224.475 208.089 224.293 207.5 224.069 208.135 223.171 208.925 222.392 209.832 221.769 211.138 220.974 212.674 220.643 214.192 220.83Z" id="Trazado_9155" fill="#FFE2C9" transform="translate(-197.84 -218.558)"/><path d="M204.426 229.239C205.992 229.646 207.475 230.323 208.808 231.239 209.215 231.526 209.577 231.808 209.921 232.088 209.365 233.697 208.579 235.216 207.588 236.6 207.356 236.707 207.118 236.799 206.874 236.875 205.529 236.693 204.233 235.857 203.937 233.455 203.821 232.031 203.987 230.598 204.426 229.239Z" id="Trazado_9156" fill="#FFE2C9" transform="translate(-199.485 -214.707)"/></g><g id="Grupo_2185" transform="translate(7.092 7.644)"><path d="M205.4 226.739C204.556 227.36 214.322 232.139 219.272 234.5 219.713 233.6 220.18 232.549 220.631 231.488 217.71 229.772 214.635 228.332 211.446 227.188 206.107 225.425 206.527 225.912 205.4 226.739Z" id="Trazado_9157" fill="#F4B8A1" transform="translate(-198.864 -219.461)"/><path d="M202.263 226.721C201.483 228.388 201.018 230.185 200.891 232.021 202.547 232.074 204.191 232.319 205.791 232.751 207.357 233.158 208.84 233.835 210.173 234.751 210.58 235.038 210.942 235.32 211.286 235.6 211.321 235.5 211.343 235.449 211.343 235.449 211.343 235.449 218.393 240.681 219.888 238.969 220.447 238.211 220.921 237.394 221.303 236.533 216.353 234.174 206.588 229.393 207.431 228.772 208.557 227.944 207.99 227.735 213.331 229.501 216.555 230.563 219.678 231.908 222.665 233.521 223.583 231.464 224.372 229.352 225.029 227.198 225.084 226.446 216.26 225.33 216.26 225.33 216.26 225.33 216.276 225.24 216.295 225.115 214.956 224.918 213.631 224.636 212.327 224.271 211.712 224.132 211.107 223.95 210.518 223.726 209.021 223.135 207.591 222.387 206.253 221.493 204.608 222.971 203.254 224.744 202.263 226.721Z" id="Trazado_9158" fill="#F2BFA7" transform="translate(-200.891 -221.502)"/></g><path d="M216.87 217.88C218.956 218.943 220.39 220.96 220.706 223.28 220.83 223.962 220.894 224.654 220.899 225.347 220.539 224.452 220.037 223.62 219.414 222.883 218.433 221.729 217.084 220.949 215.594 220.674 213.662 220.293 210.877 221.681 208.461 223.89 206.855 225.356 208.126 227.39 207.198 229.314 206.433 230.889 203.245 232.563 203.106 234.414 202.806 238.239 203.937 241.979 206.946 242.824 208.09 243.161 209.309 243.147 210.446 242.785 210.599 242.808 210.753 242.823 210.907 242.829 209.46 244.629 207.429 245.952 204.826 244.791 199.089 242.238 193.361 235.428 197.326 225.084 201.291 214.74 211.444 215.2 216.87 217.88Z" id="Trazado_9159" fill="#F7CFBC" transform="translate(-196.015 -216.247)"/><path d="M218.845 221.057C217.874 220.26 216.717 219.723 215.481 219.496 213.343 219.074 210.381 220.359 207.564 222.933 206.854 223.589 206.437 224.502 206.405 225.468 206.379 225.811 206.382 226.168 206.386 226.53 206.386 226.849 206.396 227.176 206.371 227.503 206.353 227.894 206.259 228.279 206.096 228.635 205.649 229.296 205.105 229.885 204.481 230.382 203.272 231.482 202.023 232.62 201.917 234.06 201.55 238.96 203.276 242.533 206.417 243.414 206.914 243.553 207.423 243.64 207.938 243.674 206.986 244.146 205.868 244.146 204.916 243.674 199.571 241.464 196.25 236.071 196.682 230.303 196.833 228.526 197.242 226.781 197.895 225.122 198.998 221.768 201.51 219.063 204.773 217.714 208.517 216.419 212.623 216.671 216.181 218.414 217.339 218.974 218.276 219.904 218.845 221.057Z" id="Trazado_9160" fill="#E2B08E" transform="translate(-195.731 -215.961)"/><path d="M219.1 220.862C216.94 221.055 212.735 216.05 206.681 222.132 205.835 222.969 205.319 224.083 205.228 225.269 205.2 225.638 205.203 226.021 205.208 226.409 205.208 226.729 205.218 227.017 205.196 227.309 205.185 227.587 205.121 227.861 205.007 228.115 204.599 228.66 204.127 229.152 203.6 229.583 202.371 230.805 201.398 232.261 200.74 233.865 198.968 237.648 204.253 243.716 208.41 243.433 204.21 244.678 196.372 239.8 197.319 230.245 197.482 228.559 197.871 226.903 198.475 225.321 199.569 222.255 201.867 219.768 204.836 218.434 212.647 214.8 216.582 220.039 219.1 220.862Z" id="Trazado_9161" fill="#EFC29E" transform="translate(-195.459 -215.831)"/><path d="M218.843 235.1 205.5 227.037 219.2 234.026Z" id="Trazado_9162" fill="#E2B08E" transform="translate(-191.703 -211.342)"/><path d="M220.014 231.964 206.623 226.007 220.375 230.89Z" id="Trazado_9163" fill="#E2B08E" transform="translate(-191.194 -211.81)"/></g><g id="Grupo_2189" transform="translate(85.631 65.751)"><g id="Grupo_2187" transform="translate(5.605 3.302)"><path d="M241.2 226.273C241.172 226.151 241.149 226.034 241.132 225.914 241.226 225.811 241.326 225.714 241.432 225.623 241.341 225.835 241.263 226.052 241.2 226.273Z" id="Trazado_9164" fill="#EFC29E" transform="translate(-241.135 -222.561)"/><path d="M248 229.415C247.33 228.312 246.448 227.352 245.405 226.592 243.591 225.377 242.257 225.77 241.34 226.58 241.763 225.589 242.473 224.748 243.379 224.165 245.729 222.607 248.947 224.044 251.386 226.501 250.373 227.599 249.237 228.577 248 229.415Z" id="Trazado_9165" fill="#6B2407" transform="translate(-241.04 -223.518)"/><path d="M250.813 239.114C249.747 239.969 248.419 240.43 247.052 240.42 248.072 239.493 248.751 238.25 248.978 236.89 249.087 235.904 249.022 234.906 248.785 233.943 250.071 233.268 251.425 232.732 252.824 232.343 252.906 235.3 252.213 238.021 250.813 239.114Z" id="Trazado_9166" fill="#6B2407" transform="translate(-238.446 -219.504)"/><path d="M247.948 239.922C247.078 239.913 246.214 239.765 245.391 239.483 244.632 238.839 245.539 236.833 245.326 236.571 246.25 235.774 247.224 235.035 248.241 234.36 248.698 234.021 249.18 233.715 249.681 233.445 249.918 234.408 249.983 235.406 249.874 236.392 249.646 237.752 248.968 238.995 247.948 239.922Z" id="Trazado_9167" fill="#FFE2C9" transform="translate(-239.341 -219.005)"/><path d="M248.076 228.7C246.874 229.528 245.536 230.14 244.123 230.509 243.688 230.62 243.282 230.7 242.888 230.769 242.117 229.441 241.543 228.008 241.182 226.515 241.246 226.294 241.324 226.076 241.416 225.865 242.334 225.055 243.668 224.665 245.481 225.877 246.524 226.637 247.406 227.597 248.076 228.7Z" id="Trazado_9168" fill="#FFE2C9" transform="translate(-241.114 -222.798)"/></g><g id="Grupo_2188" transform="matrix(1 0 0 1 0 6.286)"><path d="M251.335 230C251.409 229.059 242.385 232.908 237.856 234.9 238.214 235.733 238.656 236.67 239.113 237.6 242.006 236.616 244.802 235.365 247.463 233.862 251.816 231.255 251.236 231.255 251.335 230Z" id="Trazado_9169" fill="#F4B8A1" transform="translate(-237.021 -223.622)"/><path d="M256.048 229.633C255.368 228.117 254.415 226.739 253.235 225.569 252.222 226.667 251.086 227.645 249.849 228.482 248.647 229.31 247.309 229.922 245.896 230.291 245.461 230.402 245.055 230.482 244.661 230.551 244.708 230.632 244.731 230.678 244.731 230.678 244.731 230.678 237.002 232.407 237.29 234.438 237.478 235.266 237.756 236.07 238.118 236.838 242.647 234.85 251.671 231.001 251.597 231.938 251.497 233.195 251.977 232.93 247.622 235.538 244.996 237.112 242.237 238.451 239.375 239.538 240.238 241.377 241.215 243.161 242.299 244.879 242.78 245.362 248.744 239.993 248.744 239.993 248.744 239.993 248.796 240.056 248.872 240.143 249.796 239.346 250.77 238.607 251.787 237.932 252.244 237.593 252.726 237.287 253.227 237.017 254.513 236.342 255.867 235.806 257.266 235.417 257.223 233.43 256.81 231.468 256.048 229.633Z" id="Trazado_9170" fill="#F2BFA7" transform="translate(-237.282 -225.569)"/></g><path d="M254.7 246.679C252.744 247.477 250.521 247.266 248.75 246.113 248.211 245.796 247.701 245.432 247.226 245.026 248.049 245.308 248.913 245.456 249.783 245.465 251.15 245.475 252.478 245.014 253.544 244.159 254.944 243.065 255.637 240.345 255.554 237.393 255.499 235.432 253.362 235.104 252.593 233.333 251.969 231.881 252.706 228.718 251.525 227.533 249.086 225.076 245.868 223.639 243.518 225.197 242.612 225.78 241.902 226.621 241.479 227.612 241.373 227.703 241.273 227.8 241.179 227.903 240.805 225.855 241.098 223.685 243.425 222.593 248.551 220.181 256.578 220.285 261.305 229.093 266.032 237.901 259.733 244.557 254.7 246.679Z" id="Trazado_9171" fill="#F7CFBC" transform="translate(-235.573 -221.248)"/><path d="M250.709 245.925C251.826 245.732 252.875 245.258 253.758 244.548 255.306 243.338 256.175 240.557 256.078 237.115 256.048 236.244 255.672 235.42 255.032 234.828 254.812 234.608 254.567 234.4 254.316 234.191 254.096 234.005 253.869 233.816 253.66 233.606 253.404 233.363 253.198 233.072 253.051 232.751 252.863 232.057 252.782 231.338 252.81 230.619 252.771 229.146 252.73 227.619 251.81 226.699 248.678 223.559 245.222 222.632 242.769 224.257 242.381 224.515 242.021 224.811 241.694 225.143 241.932 224.214 242.592 223.45 243.476 223.079 248.137 220.733 253.777 221.644 257.461 225.339 258.586 226.49 259.537 227.798 260.284 229.223 261.923 231.954 262.288 235.265 261.284 238.288 259.962 241.608 257.37 244.264 254.084 245.668 253.019 246.128 251.831 246.218 250.709 245.925Z" id="Trazado_9172" fill="#E2B08E" transform="translate(-235.276 -220.993)"/><path d="M250.555 246.239C251.697 244.651 257.593 244.731 257.01 237.012 256.937 235.941 256.48 234.932 255.724 234.17 255.488 233.933 255.224 233.709 254.957 233.483 254.736 233.298 254.537 233.132 254.357 232.948 254.174 232.778 254.025 232.574 253.918 232.348 253.786 231.748 253.728 231.135 253.745 230.521 253.634 228.961 253.213 227.439 252.506 226.044 250.969 222.604 243.706 222.635 241.452 225.644 243.075 222.044 251.03 219.567 256.996 225.844 258.051 226.95 258.952 228.192 259.677 229.537 261.124 232.091 261.467 235.124 260.628 237.937 258.5 245.412 252.6 245.009 250.555 246.239Z" id="Trazado_9173" fill="#EFC29E" transform="translate(-235.388 -220.913)"/><path d="M237.5 234.076 250.871 229.72 238.02 234.956Z" id="Trazado_9174" fill="#E2B08E" transform="translate(-237.183 -217.397)"/><path d="M238.509 236.724 250.471 231.092 239.029 237.6Z" id="Trazado_9175" fill="#E2B08E" transform="translate(-236.724 -216.773)"/></g><g id="Grupo_2196" transform="translate(42.568 27.095)"><g id="Grupo_2190"><path d="M215.4 203.53C217.856 205.457 220.603 206.983 223.537 208.049 223.841 207.686 224.12 207.303 224.372 206.903 224.791 206.287 225.088 205.597 225.249 204.87 225.568 203.116 225.408 198.706 218.565 195.955 217.841 195.668 217.129 195.437 216.459 195.244 212.638 194.189 209.786 194.799 208.365 196.568 209.178 198.024 211.057 200.3 215.4 203.53Z" id="Trazado_9176" fill="#B7B029" transform="translate(-207.36 -194.725)"/><path d="M207.7 199.7C208.132 204.044 210.693 207.891 214.536 209.963 215.942 210.686 217.527 210.988 219.1 210.834L219.139 210.834C221.305 210.607 223.139 209.505 223.53 207.834 223.53 207.834 223.661 207.696 223.851 207.466 220.917 206.4 218.17 204.874 215.714 202.947 211.368 199.721 209.489 197.44 208.678 195.984 207.967 196.912 207.61 198.063 207.671 199.23 207.671 199.387 207.681 199.544 207.7 199.7Z" id="Trazado_9177" fill="#B1B52A" transform="translate(-207.675 -194.15)"/></g><g id="Grupo_2195" transform="translate(0.027 0.521)"><g id="Grupo_2194"><g id="Grupo_2191" opacity="0.4" transform="translate(5.719 0.827)"><path d="M212.989 195.858C212.989 195.858 217.689 197.301 219.245 199.48 220.801 201.659 215.907 199.765 215.485 199.303 215.063 198.841 212.43 195.943 211.978 196.144 211.526 196.345 211.213 195.2 212.989 195.858Z" id="Trazado_9178" fill="#918424" transform="translate(-211.626 -195.653)"/></g><path d="M218.772 205.957C218.772 205.957 217.758 207.889 215.047 206.934 212.336 205.979 210.107 202.728 211.638 201.385 213.169 200.042 219.053 204.877 219.053 204.877Z" id="Trazado_9179" fill="#C9C93A" transform="translate(-206.128 -192.327)"/><g id="Grupo_2192" opacity="0.4" transform="translate(9.075 0)"><path d="M221.847 206.735C221.771 204.494 222.606 202.195 219.815 199.512 218.034 197.811 216.06 196.325 213.933 195.084 214.648 195.282 215.351 195.52 216.039 195.797 222.881 198.539 223.039 202.952 222.721 204.706 222.562 205.432 222.265 206.121 221.847 206.735Z" id="Trazado_9180" fill="#918424" transform="translate(-213.933 -195.084)"/></g><g id="Grupo_2193" opacity="0.57" transform="translate(7.868 11.627)"><path d="M213.1 204.092C213.35 203.542 213.954 202.715 214.621 203.251 215.335 203.826 216.158 203.551 216.676 204.271 217.194 204.991 217.019 205.819 215.635 205.785 214.435 205.755 213.052 205 213.1 204.092Z" id="Trazado_9181" fill="#FFFBA9" transform="translate(-213.103 -203.078)"/></g><path d="M207.694 198.546C207.718 198.542 207.743 198.54 207.768 198.539 207.768 198.539 210.91 205.921 215.001 208.47 216.218 209.264 217.641 209.685 219.094 209.68 217.521 209.834 215.936 209.532 214.53 208.809 210.687 206.737 208.126 202.89 207.694 198.546Z" id="Trazado_9182" fill="#C9C93A" transform="translate(-207.694 -193.514)"/></g></g></g><g id="Grupo_2203" transform="translate(61.756 72.391)"><g id="Grupo_2197"><path d="M228.6 234.618C231.056 236.545 233.803 238.07 236.737 239.136 237.04 238.773 237.319 238.39 237.57 237.99 237.99 237.375 238.288 236.685 238.447 235.957 238.766 234.204 238.607 229.793 231.765 227.042 231.041 226.757 230.329 226.524 229.659 226.332 225.838 225.277 222.984 225.885 221.559 227.654 222.371 229.109 224.25 231.391 228.6 234.618Z" id="Trazado_9183" fill="#B7B029" transform="translate(-220.553 -225.812)"/><path d="M220.895 230.791C221.326 235.136 223.888 238.982 227.731 241.054 229.137 241.777 230.721 242.079 232.294 241.924L232.335 241.924C234.501 241.699 236.335 240.596 236.726 238.924 236.726 238.924 236.855 238.786 237.047 238.556 234.113 237.49 231.366 235.965 228.91 234.038 224.564 230.812 222.685 228.53 221.873 227.074 221.162 228.003 220.806 229.154 220.868 230.322 220.867 230.479 220.876 230.635 220.895 230.791Z" id="Trazado_9184" fill="#B1B52A" transform="translate(-220.867 -225.237)"/></g><g id="Grupo_2202" transform="translate(0.027 0.522)"><g id="Grupo_2201"><g id="Grupo_2198" opacity="0.4" transform="translate(5.718 0.826)"><path d="M226.18 226.945C226.18 226.945 230.88 228.386 232.437 230.567 233.994 232.748 229.099 230.852 228.677 230.388 228.255 229.924 225.623 227.029 225.169 227.229 224.715 227.429 224.4 226.288 226.18 226.945Z" id="Trazado_9185" fill="#918424" transform="translate(-224.817 -226.739)"/></g><path d="M231.965 237.044C231.965 237.044 230.951 238.974 228.239 238.02 225.527 237.066 223.299 233.814 224.83 232.471 226.361 231.128 232.247 235.965 232.247 235.965Z" id="Trazado_9186" fill="#C9C93A" transform="translate(-219.321 -223.414)"/><g id="Grupo_2199" opacity="0.4" transform="translate(9.075 0)"><path d="M235.038 237.822C234.962 235.579 235.797 233.282 233.007 230.599 231.226 228.898 229.252 227.412 227.125 226.171 227.84 226.368 228.543 226.606 229.231 226.884 236.073 229.626 236.231 234.039 235.912 235.793 235.753 236.519 235.456 237.208 235.038 237.822Z" id="Trazado_9187" fill="#918424" transform="translate(-227.125 -226.171)"/></g><g id="Grupo_2200" opacity="0.57" transform="translate(7.866 11.625)"><path d="M226.3 235.179C226.55 234.629 227.155 233.8 227.821 234.337 228.535 234.913 229.36 234.642 229.878 235.358 230.396 236.074 230.221 236.906 228.837 236.871 227.626 236.842 226.245 236.087 226.3 235.179Z" id="Trazado_9188" fill="#FFFBA9" transform="translate(-226.294 -234.164)"/></g><path d="M220.886 229.633C220.91 229.629 220.935 229.627 220.959 229.626 220.959 229.626 224.102 237.006 228.194 239.557 229.411 240.351 230.833 240.771 232.286 240.766 230.713 240.921 229.129 240.619 227.723 239.896 223.88 237.824 221.317 233.978 220.886 229.633Z" id="Trazado_9189" fill="#C9C93A" transform="translate(-220.886 -224.601)"/></g></g></g><g id="Grupo_2204" transform="translate(45.732 51.353)"><path d="M217.155 213.9C215.469 214.338 212.24 215.094 210.038 215.6 210.247 215.786 210.446 215.984 210.633 216.192 211.644 217.376 216.125 217.222 218.403 216.099 220.503 215.063 221.975 213.615 221.169 212.391 219.877 213.008 218.534 213.512 217.155 213.9Z" id="Trazado_9190" fill="#56A327" transform="translate(-209.765 -210.925)"/><path d="M221.031 212.545C218.59 210.896 215.366 211.007 213.043 212.818 209.913 215.033 209.571 215.432 210.002 215.931L221.061 212.586C221.047 212.573 221.044 212.558 221.031 212.545Z" id="Trazado_9191" fill="#3A8E1C" transform="translate(-209.85 -211.384)"/><path d="M221.208 212.476C221.152 212.381 221.087 212.292 221.013 212.21L209.954 215.555C209.99 215.597 210.031 215.639 210.076 215.684 212.276 215.175 215.507 214.419 217.193 213.984 218.572 213.597 219.915 213.092 221.208 212.476Z" id="Trazado_9192" fill="#318719" transform="translate(-209.803 -211.008)"/></g></g><g id="Grupo_2206" transform="translate(296.704 256.238)"><path d="M262.768 234.954C263.724 236.41 265.476 239.226 266.668 241.147 266.778 240.89 266.902 240.638 267.039 240.394 267.839 239.057 266.252 234.862 264.457 233.066 262.802 231.408 260.957 230.478 260.057 231.636 261.054 232.662 261.961 233.772 262.768 234.954Z" id="Trazado_9193" fill="#56A327" transform="translate(-259.595 -231.121)"/><path d="M259.979 231.7C259.201 234.541 260.341 237.56 262.802 239.178 265.902 241.433 266.39 241.627 266.725 241.06L260.008 231.66C260 231.676 259.987 231.685 259.979 231.7Z" id="Trazado_9194" fill="#3A8E1C" transform="translate(-259.738 -230.875)"/><path d="M260.113 231.475C260.041 231.558 259.977 231.648 259.924 231.744L266.641 241.144C266.669 241.096 266.696 241.044 266.724 240.985 265.536 239.064 263.783 236.248 262.824 234.792 262.017 233.61 261.11 232.501 260.113 231.475Z" id="Trazado_9195" fill="#318719" transform="translate(-259.654 -230.96)"/></g><g id="Grupo_2207" transform="translate(197.81 257.451)"><path d="M195.735 238.8C194.945 237.248 193.512 234.256 192.542 232.215 192.405 232.459 192.254 232.695 192.091 232.923 191.153 234.164 192.264 238.507 193.851 240.491 195.313 242.321 197.045 243.447 198.066 242.396 197.187 241.267 196.407 240.064 195.735 238.8Z" id="Trazado_9196" fill="#56A327" transform="translate(-191.748 -231.838)"/><path d="M198.039 242.226C199.124 239.488 198.323 236.364 196.056 234.485 193.22 231.902 192.756 231.654 192.363 232.185L198.005 242.266C198.015 242.249 198.028 242.242 198.039 242.226Z" id="Trazado_9197" fill="#3A8E1C" transform="translate(-191.468 -231.955)"/><path d="M197.818 242.44C197.899 242.365 197.972 242.282 198.036 242.193L192.394 232.112C192.361 232.156 192.327 232.205 192.294 232.259 193.264 234.3 194.694 237.292 195.487 238.844 196.159 240.108 196.939 241.311 197.818 242.44Z" id="Trazado_9198" fill="#318719" transform="translate(-191.499 -231.884)"/></g></g></svg>